<svg width="10" height="18" viewBox="0 0 10 18" fill="none" xmlns="http://www.w3.org/2000/svg">
<path d="M8.84251 0.954729C9.14912 0.955619 9.44292 1.07781 9.65972 1.29462C9.87653 1.51143 9.99872 1.80522 9.99961 2.11183C10.0037 2.26389 9.97482 2.41503 9.91483 2.55482C9.85483 2.69461 9.76521 2.8197 9.65214 2.92146L2.82255 9.48118L9.65214 16.0409C9.76202 16.1454 9.84951 16.2711 9.9093 16.4104C9.96908 16.5497 9.99991 16.6998 9.99991 16.8514C9.99991 17.003 9.96908 17.153 9.9093 17.2923C9.84951 17.4317 9.76202 17.5574 9.65214 17.6619C9.44451 17.8715 9.16382 17.9926 8.86888 17.9998C8.57394 18.007 8.28764 17.8998 8.06998 17.7006L0.353166 10.3313C0.134396 10.1207 0.00759452 9.83234 0.000329702 9.5288C-0.00693512 9.22525 0.105926 8.93112 0.314373 8.71034L0.353166 8.67154L8.06998 1.2634C8.17188 1.16334 8.29265 1.08452 8.42527 1.03153C8.55788 0.97854 8.69971 0.952433 8.84251 0.954729Z" fill="#1DA1F2"/>
</svg>
