<svg width="10" height="18" viewBox="0 0 10 18" fill="none" xmlns="http://www.w3.org/2000/svg">
<path d="M1.15749 17.9999C0.850882 17.999 0.557084 17.8768 0.340278 17.66C0.123472 17.4432 0.00127819 17.1494 0.000388157 16.8428C-0.0037461 16.6907 0.0251824 16.5396 0.0851741 16.3998C0.145166 16.26 0.234792 16.1349 0.347858 16.0331L7.17745 9.47341L0.347857 2.91369C0.237979 2.80923 0.150484 2.68351 0.0907006 2.54418C0.0309172 2.40485 9.15377e-05 2.25483 9.15311e-05 2.10321C9.15245e-05 1.9516 0.0309172 1.80157 0.0907005 1.66225C0.150484 1.52292 0.237979 1.3972 0.347857 1.29274C0.555488 1.08314 0.83618 0.962036 1.13112 0.954805C1.42606 0.947573 1.71236 1.05478 1.93002 1.25395L9.64683 8.6233C9.8656 8.83384 9.9924 9.12225 9.99967 9.42579C10.0069 9.72934 9.89407 10.0235 9.68563 10.2442L9.64683 10.283L1.93002 17.6912C1.82812 17.7913 1.70735 17.8701 1.57473 17.9231C1.44212 17.976 1.30029 18.0022 1.15749 17.9999Z" fill="#1DA1F2"/>
</svg>
