<svg width="506" height="240" viewBox="0 0 506 240" fill="none" xmlns="http://www.w3.org/2000/svg">
<mask id="mask0_1499_15523" style="mask-type:alpha" maskUnits="userSpaceOnUse" x="0" y="0" width="506" height="240">
<rect width="506" height="240" fill="#D9D9D9"/>
</mask>
<g mask="url(#mask0_1499_15523)">
<path fill-rule="evenodd" clip-rule="evenodd" d="M252.499 37.6986C273.044 37.6986 289.698 21.0442 289.698 0.49995C289.698 -20.0443 273.044 -36.6987 252.499 -36.6987C231.955 -36.6987 215.301 -20.0443 215.301 0.49995C215.301 21.0442 231.955 37.6986 252.499 37.6986ZM252.499 38.6986C273.596 38.6986 290.698 21.5965 290.698 0.49995C290.698 -20.5966 273.596 -37.6987 252.499 -37.6987C231.403 -37.6987 214.301 -20.5966 214.301 0.49995C214.301 21.5965 231.403 38.6986 252.499 38.6986Z" fill="#AAAAAA"/>
<path opacity="0.8" fill-rule="evenodd" clip-rule="evenodd" d="M252.5 61.2056C286.027 61.2056 313.206 34.0268 313.206 0.499996C313.206 -33.0268 286.027 -60.2056 252.5 -60.2056C218.974 -60.2056 191.795 -33.0268 191.795 0.499996C191.795 34.0268 218.974 61.2056 252.5 61.2056ZM252.5 62.2056C286.58 62.2056 314.206 34.579 314.206 0.499996C314.206 -33.579 286.58 -61.2056 252.5 -61.2056C218.421 -61.2056 190.795 -33.579 190.795 0.499996C190.795 34.579 218.421 62.2056 252.5 62.2056Z" fill="#AAAAAA"/>
<path opacity="0.6" fill-rule="evenodd" clip-rule="evenodd" d="M252.5 86.1815C299.821 86.1815 338.182 47.8206 338.182 0.499924C338.182 -46.8207 299.821 -85.1817 252.5 -85.1817C205.179 -85.1817 166.818 -46.8207 166.818 0.499924C166.818 47.8206 205.179 86.1815 252.5 86.1815ZM252.5 87.1815C300.373 87.1815 339.182 48.3729 339.182 0.499924C339.182 -47.373 300.373 -86.1817 252.5 -86.1817C204.627 -86.1817 165.818 -47.373 165.818 0.499924C165.818 48.3729 204.627 87.1815 252.5 87.1815Z" fill="#AAAAAA"/>
<path opacity="0.4" fill-rule="evenodd" clip-rule="evenodd" d="M252.501 109.688C312.804 109.688 361.69 60.8031 361.69 0.499969C361.69 -59.8032 312.804 -108.689 252.501 -108.689C192.198 -108.689 143.312 -59.8032 143.312 0.499969C143.312 60.8031 192.198 109.688 252.501 109.688ZM252.501 110.688C313.356 110.688 362.69 61.3554 362.69 0.499969C362.69 -60.3555 313.356 -109.689 252.501 -109.689C191.646 -109.689 142.312 -60.3555 142.312 0.499969C142.312 61.3554 191.646 110.688 252.501 110.688Z" fill="#AAAAAA"/>
<path opacity="0.3" fill-rule="evenodd" clip-rule="evenodd" d="M252.5 133.195C325.786 133.195 385.195 73.7857 385.195 0.500015C385.195 -72.7856 325.786 -132.195 252.5 -132.195C179.214 -132.195 119.805 -72.7856 119.805 0.500015C119.805 73.7857 179.214 133.195 252.5 133.195ZM252.5 134.195C326.338 134.195 386.195 74.3379 386.195 0.500015C386.195 -73.3379 326.338 -133.195 252.5 -133.195C178.662 -133.195 118.805 -73.3379 118.805 0.500015C118.805 74.3379 178.662 134.195 252.5 134.195Z" fill="#AAAAAA"/>
<path opacity="0.2" fill-rule="evenodd" clip-rule="evenodd" d="M252.5 161.11C341.203 161.11 413.11 89.2023 413.11 0.499954C413.11 -88.2024 341.203 -160.11 252.5 -160.11C163.798 -160.11 91.8906 -88.2024 91.8906 0.499954C91.8906 89.2023 163.798 161.11 252.5 161.11ZM252.5 162.11C341.755 162.11 414.11 89.7546 414.11 0.499954C414.11 -88.7547 341.755 -161.11 252.5 -161.11C163.246 -161.11 90.8906 -88.7547 90.8906 0.499954C90.8906 89.7546 163.246 162.11 252.5 162.11Z" fill="#AAAAAA"/>
<path opacity="0.1" fill-rule="evenodd" clip-rule="evenodd" d="M252.501 189.024C356.62 189.024 441.025 104.619 441.025 0.500061C441.025 -103.619 356.62 -188.024 252.501 -188.024C148.382 -188.024 63.9766 -103.619 63.9766 0.500061C63.9766 104.619 148.382 189.024 252.501 189.024ZM252.501 190.024C357.172 190.024 442.025 105.171 442.025 0.500061C442.025 -104.171 357.172 -189.024 252.501 -189.024C147.829 -189.024 62.9766 -104.171 62.9766 0.500061C62.9766 105.171 147.829 190.024 252.501 190.024Z" fill="#AAAAAA"/>
<path opacity="0.05" fill-rule="evenodd" clip-rule="evenodd" d="M252.5 219C373.174 219 471 121.174 471 0.5C471 -120.174 373.174 -218 252.5 -218C131.826 -218 34 -120.174 34 0.5C34 121.174 131.826 219 252.5 219ZM252.5 220C373.727 220 472 121.727 472 0.5C472 -120.727 373.727 -219 252.5 -219C131.273 -219 33 -120.727 33 0.5C33 121.727 131.273 220 252.5 220Z" fill="#AAAAAA"/>
</g>
</svg>
