<svg width="132" height="13" viewBox="0 0 132 13" fill="none" xmlns="http://www.w3.org/2000/svg">
<path d="M9.15341 4.03977C9.04356 3.69508 8.89583 3.38636 8.71023 3.11364C8.52841 2.83712 8.31061 2.60227 8.05682 2.40909C7.80303 2.21212 7.51326 2.0625 7.1875 1.96023C6.86553 1.85795 6.51136 1.80682 6.125 1.80682C5.4697 1.80682 4.87879 1.97538 4.35227 2.3125C3.82576 2.64962 3.40909 3.14394 3.10227 3.79545C2.79924 4.44318 2.64773 5.23674 2.64773 6.17614C2.64773 7.11932 2.80114 7.91667 3.10795 8.56818C3.41477 9.2197 3.83523 9.71402 4.36932 10.0511C4.90341 10.3883 5.51136 10.5568 6.19318 10.5568C6.82576 10.5568 7.37689 10.428 7.84659 10.1705C8.32008 9.91288 8.68561 9.54924 8.94318 9.07955C9.20455 8.60606 9.33523 8.04924 9.33523 7.40909L9.78977 7.49432H6.46023V6.04545H11.0341V7.36932C11.0341 8.34659 10.8258 9.19508 10.4091 9.91477C9.99621 10.6307 9.42424 11.1837 8.69318 11.5739C7.96591 11.964 7.13258 12.1591 6.19318 12.1591C5.14015 12.1591 4.21591 11.9167 3.42045 11.4318C2.62879 10.947 2.01136 10.2595 1.56818 9.36932C1.125 8.47538 0.903409 7.41477 0.903409 6.1875C0.903409 5.25947 1.0322 4.42614 1.28977 3.6875C1.54735 2.94886 1.90909 2.32197 2.375 1.80682C2.8447 1.28788 3.39583 0.892045 4.02841 0.619318C4.66477 0.342803 5.35985 0.204545 6.11364 0.204545C6.74242 0.204545 7.32765 0.297348 7.86932 0.482954C8.41477 0.66856 8.89962 0.931818 9.32386 1.27273C9.75189 1.61364 10.1061 2.01894 10.3864 2.48864C10.6667 2.95455 10.8561 3.47159 10.9545 4.03977H9.15341ZM19.6094 3.42045C19.5488 2.88258 19.2988 2.46591 18.8594 2.17045C18.42 1.87121 17.867 1.72159 17.2003 1.72159C16.723 1.72159 16.3101 1.79735 15.9616 1.94886C15.6132 2.09659 15.3423 2.30114 15.1491 2.5625C14.9598 2.82008 14.8651 3.11364 14.8651 3.44318C14.8651 3.7197 14.9295 3.95833 15.0582 4.15909C15.1908 4.35985 15.3632 4.52841 15.5753 4.66477C15.7912 4.79735 16.0223 4.90909 16.2685 5C16.5147 5.08712 16.7514 5.15909 16.9787 5.21591L18.1151 5.51136C18.4863 5.60227 18.867 5.72538 19.2571 5.88068C19.6473 6.03598 20.009 6.24053 20.3423 6.49432C20.6757 6.74811 20.9446 7.0625 21.1491 7.4375C21.3575 7.8125 21.4616 8.26136 21.4616 8.78409C21.4616 9.44318 21.2912 10.0284 20.9503 10.5398C20.6132 11.0511 20.1226 11.4545 19.4787 11.75C18.8385 12.0455 18.0639 12.1932 17.1548 12.1932C16.2836 12.1932 15.5298 12.0549 14.8935 11.7784C14.2571 11.5019 13.759 11.1098 13.3991 10.6023C13.0393 10.0909 12.8404 9.48485 12.8026 8.78409H14.5639C14.598 9.20455 14.7344 9.55492 14.973 9.83523C15.2154 10.1117 15.5241 10.3182 15.8991 10.4545C16.2779 10.5871 16.6927 10.6534 17.1435 10.6534C17.6397 10.6534 18.081 10.5758 18.4673 10.4205C18.8575 10.2614 19.1643 10.0417 19.3878 9.76136C19.6113 9.47727 19.723 9.14583 19.723 8.76705C19.723 8.42235 19.6245 8.14015 19.4276 7.92045C19.2344 7.70076 18.9711 7.51894 18.6378 7.375C18.3082 7.23106 17.9351 7.10417 17.5185 6.99432L16.1435 6.61932C15.2116 6.36553 14.473 5.99242 13.9276 5.5C13.3859 5.00758 13.1151 4.35606 13.1151 3.54545C13.1151 2.875 13.2969 2.28977 13.6605 1.78977C14.0241 1.28977 14.5166 0.901515 15.1378 0.625C15.759 0.344697 16.4598 0.204545 17.2401 0.204545C18.0279 0.204545 18.723 0.342803 19.3253 0.619318C19.9313 0.895833 20.4086 1.27652 20.7571 1.76136C21.1056 2.24242 21.2874 2.79545 21.3026 3.42045H19.6094ZM24.5767 0.363636L27.8153 9.84091H27.946L31.1847 0.363636H33.0824L28.8949 12H26.8665L22.679 0.363636H24.5767ZM43.2244 12L45.1335 0.363636H46.4972L44.5881 12H43.2244ZM37.9574 8.88636L38.179 7.52273H46.9972L46.7756 8.88636H37.9574ZM39.1335 12L41.0426 0.363636H42.4062L40.4972 12H39.1335ZM38.6335 4.84091L38.8551 3.47727H47.6733L47.4517 4.84091H38.6335ZM49.1847 12V0.363636H56.4801V1.875H50.9403V5.42045H56.0994V6.92614H50.9403V10.4886H56.5483V12H49.1847ZM61.956 12.1705C61.2514 12.1705 60.6226 11.9905 60.0696 11.6307C59.5204 11.267 59.0885 10.75 58.7741 10.0795C58.4635 9.4053 58.3082 8.59659 58.3082 7.65341C58.3082 6.71023 58.4654 5.90341 58.7798 5.23295C59.098 4.5625 59.5336 4.04924 60.0866 3.69318C60.6397 3.33712 61.2666 3.15909 61.9673 3.15909C62.509 3.15909 62.9446 3.25 63.2741 3.43182C63.6075 3.60985 63.8651 3.81818 64.0469 4.05682C64.2325 4.29545 64.3764 4.50568 64.4787 4.6875H64.581V0.363636H66.2798V12H64.6207V10.642H64.4787C64.3764 10.8277 64.2287 11.0398 64.0355 11.2784C63.8461 11.517 63.5848 11.7254 63.2514 11.9034C62.9181 12.0814 62.4863 12.1705 61.956 12.1705ZM62.331 10.7216C62.8196 10.7216 63.2325 10.5928 63.5696 10.3352C63.9105 10.0739 64.1681 9.71212 64.3423 9.25C64.5204 8.78788 64.6094 8.25 64.6094 7.63636C64.6094 7.0303 64.5223 6.5 64.348 6.04545C64.1738 5.59091 63.9181 5.23674 63.581 4.98295C63.2438 4.72917 62.8272 4.60227 62.331 4.60227C61.8196 4.60227 61.3935 4.73485 61.0526 5C60.7116 5.26515 60.4541 5.62689 60.2798 6.08523C60.1094 6.54356 60.0241 7.06061 60.0241 7.63636C60.0241 8.2197 60.1113 8.74432 60.2855 9.21023C60.4598 9.67614 60.7173 10.0455 61.0582 10.3182C61.4029 10.5871 61.8272 10.7216 62.331 10.7216ZM68.267 1.875V0.363636H77.2727V1.875H73.642V12H71.892V1.875H68.267ZM81.6222 12.1761C80.7623 12.1761 80.0218 11.9924 79.4006 11.625C78.7831 11.2538 78.3059 10.733 77.9688 10.0625C77.6354 9.38826 77.4688 8.59848 77.4688 7.69318C77.4688 6.79924 77.6354 6.01136 77.9688 5.32955C78.3059 4.64773 78.7756 4.11553 79.3778 3.73295C79.9839 3.35038 80.6922 3.15909 81.5028 3.15909C81.9953 3.15909 82.4725 3.24053 82.9347 3.40341C83.3968 3.56629 83.8116 3.82197 84.179 4.17045C84.5464 4.51894 84.8362 4.97159 85.0483 5.52841C85.2604 6.08144 85.3665 6.75379 85.3665 7.54545V8.14773H78.429V6.875H83.7017C83.7017 6.42803 83.6108 6.0322 83.429 5.6875C83.2472 5.33902 82.9915 5.06439 82.6619 4.86364C82.3362 4.66288 81.9536 4.5625 81.5142 4.5625C81.0369 4.5625 80.6203 4.67992 80.2642 4.91477C79.9119 5.14583 79.6392 5.44886 79.446 5.82386C79.2566 6.19508 79.1619 6.59848 79.1619 7.03409V8.02841C79.1619 8.61174 79.2642 9.10795 79.4688 9.51705C79.6771 9.92614 79.9669 10.2386 80.3381 10.4545C80.7093 10.6667 81.143 10.7727 81.6392 10.7727C81.9612 10.7727 82.2547 10.7273 82.5199 10.6364C82.785 10.5417 83.0142 10.4015 83.2074 10.2159C83.4006 10.0303 83.5483 9.80114 83.6506 9.52841L85.2585 9.81818C85.1297 10.2917 84.8987 10.7064 84.5653 11.0625C84.2358 11.4148 83.821 11.6894 83.321 11.8864C82.8248 12.0795 82.2585 12.1761 81.6222 12.1761ZM90.9276 12.1761C90.0829 12.1761 89.3556 11.9848 88.7457 11.6023C88.1397 11.2159 87.6738 10.6837 87.348 10.0057C87.0223 9.32765 86.8594 8.55114 86.8594 7.67614C86.8594 6.78977 87.026 6.00758 87.3594 5.32955C87.6927 4.64773 88.1624 4.11553 88.7685 3.73295C89.3745 3.35038 90.0885 3.15909 90.9105 3.15909C91.5734 3.15909 92.1643 3.2822 92.6832 3.52841C93.2022 3.77083 93.6207 4.11174 93.9389 4.55114C94.2609 4.99053 94.4522 5.50379 94.5128 6.09091H92.8594C92.7685 5.68182 92.5601 5.32955 92.2344 5.03409C91.9124 4.73864 91.4806 4.59091 90.9389 4.59091C90.4654 4.59091 90.0507 4.71591 89.6946 4.96591C89.3423 5.21212 89.0677 5.56439 88.8707 6.02273C88.6738 6.47727 88.5753 7.01515 88.5753 7.63636C88.5753 8.27273 88.6719 8.82197 88.8651 9.28409C89.0582 9.74621 89.331 10.1042 89.6832 10.358C90.0393 10.6117 90.4579 10.7386 90.9389 10.7386C91.2609 10.7386 91.5526 10.6799 91.8139 10.5625C92.0791 10.4413 92.3007 10.2689 92.4787 10.0455C92.6605 9.82197 92.7874 9.55303 92.8594 9.23864H94.5128C94.4522 9.80303 94.2685 10.3068 93.9616 10.75C93.6548 11.1932 93.2438 11.5417 92.7287 11.7955C92.2173 12.0492 91.617 12.1761 90.9276 12.1761ZM98.0284 6.81818V12H96.3295V0.363636H98.0057V4.69318H98.1136C98.3182 4.22348 98.6307 3.85038 99.0511 3.57386C99.4716 3.29735 100.021 3.15909 100.699 3.15909C101.297 3.15909 101.82 3.2822 102.267 3.52841C102.718 3.77462 103.066 4.14205 103.312 4.63068C103.562 5.11553 103.688 5.72159 103.688 6.44886V12H101.989V6.65341C101.989 6.01326 101.824 5.51705 101.494 5.16477C101.165 4.80871 100.706 4.63068 100.119 4.63068C99.7178 4.63068 99.358 4.71591 99.0398 4.88636C98.7254 5.05682 98.4773 5.30682 98.2955 5.63636C98.1174 5.96212 98.0284 6.35606 98.0284 6.81818ZM109.706 0.363636V12H107.945V2.125H107.876L105.092 3.94318V2.26136L107.996 0.363636H109.706ZM116.695 12.1591C115.982 12.1591 115.342 12.0227 114.774 11.75C114.21 11.4735 113.759 11.0947 113.422 10.6136C113.085 10.1326 112.905 9.58333 112.882 8.96591H114.587C114.628 9.46591 114.85 9.87689 115.251 10.1989C115.653 10.5208 116.134 10.6818 116.695 10.6818C117.142 10.6818 117.537 10.5795 117.882 10.375C118.231 10.1667 118.503 9.88068 118.7 9.51705C118.901 9.15341 119.001 8.73864 119.001 8.27273C119.001 7.79924 118.899 7.37689 118.695 7.00568C118.49 6.63447 118.208 6.3428 117.848 6.13068C117.492 5.91856 117.083 5.81061 116.621 5.80682C116.268 5.80682 115.914 5.86742 115.558 5.98864C115.202 6.10985 114.914 6.26894 114.695 6.46591L113.087 6.22727L113.74 0.363636H120.138V1.86932H115.2L114.831 5.125H114.899C115.126 4.9053 115.428 4.72159 115.803 4.57386C116.181 4.42614 116.587 4.35227 117.018 4.35227C117.727 4.35227 118.357 4.52083 118.911 4.85795C119.467 5.19508 119.905 5.6553 120.223 6.23864C120.545 6.81818 120.704 7.48485 120.7 8.23864C120.704 8.99242 120.534 9.66477 120.189 10.2557C119.848 10.8466 119.375 11.3125 118.768 11.6534C118.166 11.9905 117.475 12.1591 116.695 12.1591ZM126.827 12.1932C125.929 12.1894 125.162 11.9527 124.526 11.483C123.889 11.0133 123.402 10.3295 123.065 9.43182C122.728 8.53409 122.56 7.45265 122.56 6.1875C122.56 4.92614 122.728 3.84848 123.065 2.95455C123.406 2.06061 123.895 1.37879 124.531 0.909091C125.171 0.439394 125.937 0.204545 126.827 0.204545C127.717 0.204545 128.48 0.441287 129.116 0.914772C129.753 1.38447 130.24 2.06629 130.577 2.96023C130.918 3.85038 131.088 4.92614 131.088 6.1875C131.088 7.45644 130.92 8.53977 130.582 9.4375C130.245 10.3314 129.759 11.0152 129.122 11.4886C128.486 11.9583 127.721 12.1932 126.827 12.1932ZM126.827 10.6761C127.615 10.6761 128.23 10.2917 128.673 9.52273C129.12 8.75379 129.344 7.64205 129.344 6.1875C129.344 5.22159 129.241 4.4053 129.037 3.73864C128.836 3.06818 128.546 2.56061 128.168 2.21591C127.793 1.86742 127.346 1.69318 126.827 1.69318C126.043 1.69318 125.427 2.07954 124.98 2.85227C124.533 3.625 124.308 4.73674 124.304 6.1875C124.304 7.1572 124.404 7.97727 124.605 8.64773C124.81 9.31439 125.099 9.82008 125.474 10.1648C125.849 10.5057 126.3 10.6761 126.827 10.6761Z" fill="#4D4D4D"/>
</svg>
