<svg width="35" height="35" viewBox="0 0 35 35" fill="none" xmlns="http://www.w3.org/2000/svg">
<path d="M30.6252 11.6667C28.5106 11.6667 27.3293 13.7667 27.8106 15.3271L22.6335 20.5187C22.196 20.3875 21.5543 20.3875 21.1168 20.5187L17.3981 16.8C17.8939 15.2396 16.7127 13.125 14.5835 13.125C12.4689 13.125 11.2731 15.225 11.7689 16.8L5.11891 23.4354C3.5585 22.9542 1.4585 24.1354 1.4585 26.25C1.4585 27.8542 2.771 29.1667 4.37516 29.1667C6.48975 29.1667 7.671 27.0667 7.18975 25.5062L13.8252 18.8562C14.2627 18.9875 14.9043 18.9875 15.3418 18.8562L19.0606 22.575C18.5647 24.1354 19.746 26.25 21.8752 26.25C23.9897 26.25 25.1856 24.15 24.6898 22.575L29.8814 17.3979C31.4418 17.8792 33.5418 16.6979 33.5418 14.5833C33.5418 12.9792 32.2293 11.6667 30.6252 11.6667Z" fill="#FF8A8A"/>
<path d="M21.875 13.125L23.2458 10.1062L26.25 8.75L23.2458 7.39375L21.875 4.375L20.5333 7.39375L17.5 8.75L20.5333 10.1062L21.875 13.125Z" fill="#FF8A8A"/>
<path d="M5.10433 16.0417L5.8335 13.125L8.75016 12.3958L5.8335 11.6667L5.10433 8.75L4.37516 11.6667L1.4585 12.3958L4.37516 13.125L5.10433 16.0417Z" fill="#FF8A8A"/>
</svg>
