<svg width="35" height="35" viewBox="0 0 35 35" fill="none" xmlns="http://www.w3.org/2000/svg">
<path d="M27.7083 4.37501H21.6125C21 2.68334 19.3958 1.45834 17.5 1.45834C15.6042 1.45834 14 2.68334 13.3875 4.37501H7.29167C5.6875 4.37501 4.375 5.68751 4.375 7.29168V27.7083C4.375 29.3125 5.6875 30.625 7.29167 30.625H27.7083C29.3125 30.625 30.625 29.3125 30.625 27.7083V7.29168C30.625 5.68751 29.3125 4.37501 27.7083 4.37501ZM17.5 4.37501C18.3021 4.37501 18.9583 5.03126 18.9583 5.83334C18.9583 6.63543 18.3021 7.29168 17.5 7.29168C16.6979 7.29168 16.0417 6.63543 16.0417 5.83334C16.0417 5.03126 16.6979 4.37501 17.5 4.37501ZM18.9583 24.7917H11.6667C10.8646 24.7917 10.2083 24.1354 10.2083 23.3333C10.2083 22.5313 10.8646 21.875 11.6667 21.875H18.9583C19.7604 21.875 20.4167 22.5313 20.4167 23.3333C20.4167 24.1354 19.7604 24.7917 18.9583 24.7917ZM23.3333 18.9583H11.6667C10.8646 18.9583 10.2083 18.3021 10.2083 17.5C10.2083 16.6979 10.8646 16.0417 11.6667 16.0417H23.3333C24.1354 16.0417 24.7917 16.6979 24.7917 17.5C24.7917 18.3021 24.1354 18.9583 23.3333 18.9583ZM23.3333 13.125H11.6667C10.8646 13.125 10.2083 12.4688 10.2083 11.6667C10.2083 10.8646 10.8646 10.2083 11.6667 10.2083H23.3333C24.1354 10.2083 24.7917 10.8646 24.7917 11.6667C24.7917 12.4688 24.1354 13.125 23.3333 13.125Z" fill="#79D8A5"/>
</svg>
