<svg width="33" height="25" viewBox="0 0 33 25" fill="none" xmlns="http://www.w3.org/2000/svg">
<path d="M24.5205 0.5625C21.6768 0.5625 18.6143 1.14583 16.4997 2.75C14.3851 1.14583 11.3226 0.5625 8.47884 0.5625C6.36426 0.5625 4.11842 0.883333 2.23717 1.71458C1.17259 2.19583 0.458008 3.23125 0.458008 4.4125V20.8625C0.458008 22.7583 2.23717 24.1583 4.07467 23.6917C5.50384 23.3271 7.02051 23.1667 8.47884 23.1667C10.7538 23.1667 13.1747 23.5458 15.1288 24.5083C16.0038 24.9458 16.9955 24.9458 17.8559 24.5083C19.8101 23.5312 22.2309 23.1667 24.5059 23.1667C25.9643 23.1667 27.4809 23.3271 28.9101 23.6917C30.7476 24.1729 32.5268 22.7729 32.5268 20.8625V4.4125C32.5268 3.23125 31.8122 2.19583 30.7476 1.71458C28.8809 0.883333 26.6351 0.5625 24.5205 0.5625ZM29.6247 19.1271C29.6247 20.0458 28.7788 20.7167 27.8747 20.5562C26.7809 20.3521 25.6434 20.2646 24.5205 20.2646C22.0413 20.2646 18.4684 21.2125 16.4997 22.4521V5.66667C18.4684 4.42708 22.0413 3.47917 24.5205 3.47917C25.8622 3.47917 27.1893 3.61042 28.458 3.8875C29.1288 4.03333 29.6247 4.63125 29.6247 5.31667V19.1271Z" fill="#DFBD72"/>
<path d="M19.3869 10.0563C18.9203 10.0563 18.4973 9.76459 18.3515 9.29793C18.1619 8.72918 18.4828 8.1021 19.0515 7.9271C21.2973 7.19793 24.1994 6.9646 26.8682 7.27085C27.4661 7.34376 27.9036 7.88335 27.8307 8.48126C27.7578 9.07918 27.2182 9.51668 26.6203 9.44376C24.2578 9.16668 21.6765 9.38543 19.7223 10.0125C19.6057 10.0271 19.489 10.0563 19.3869 10.0563Z" fill="#DFBD72"/>
<path d="M19.3869 13.9354C18.9203 13.9354 18.4973 13.6437 18.3515 13.1771C18.1619 12.6083 18.4828 11.9812 19.0515 11.8062C21.2828 11.0771 24.1994 10.8437 26.8682 11.15C27.4661 11.2229 27.9036 11.7625 27.8307 12.3604C27.7578 12.9583 27.2182 13.3958 26.6203 13.3229C24.2578 13.0458 21.6765 13.2646 19.7223 13.8917C19.6057 13.9208 19.489 13.9354 19.3869 13.9354Z" fill="#DFBD72"/>
<path d="M19.3869 17.8146C18.9203 17.8146 18.4973 17.5229 18.3515 17.0563C18.1619 16.4875 18.4828 15.8604 19.0515 15.6854C21.2828 14.9563 24.1994 14.7229 26.8682 15.0292C27.4661 15.1021 27.9036 15.6417 27.8307 16.2396C27.7578 16.8375 27.2182 17.2604 26.6203 17.2021C24.2578 16.925 21.6765 17.1438 19.7223 17.7708C19.6057 17.8 19.489 17.8146 19.3869 17.8146Z" fill="#DFBD72"/>
</svg>
