<svg width="35" height="35" viewBox="0 0 35 35" fill="none" xmlns="http://www.w3.org/2000/svg">
<path d="M29.1665 8.75001H17.4998L15.4436 6.69376C14.8894 6.13959 14.1457 5.83334 13.3728 5.83334H5.83317C4.229 5.83334 2.93109 7.14584 2.93109 8.75001L2.9165 26.25C2.9165 27.8542 4.229 29.1667 5.83317 29.1667H29.1665C30.7707 29.1667 32.0832 27.8542 32.0832 26.25V11.6667C32.0832 10.0625 30.7707 8.75001 29.1665 8.75001ZM18.9582 23.3333H10.2082C9.40609 23.3333 8.74984 22.6771 8.74984 21.875C8.74984 21.0729 9.40609 20.4167 10.2082 20.4167H18.9582C19.7603 20.4167 20.4165 21.0729 20.4165 21.875C20.4165 22.6771 19.7603 23.3333 18.9582 23.3333ZM24.7915 17.5H10.2082C9.40609 17.5 8.74984 16.8438 8.74984 16.0417C8.74984 15.2396 9.40609 14.5833 10.2082 14.5833H24.7915C25.5936 14.5833 26.2498 15.2396 26.2498 16.0417C26.2498 16.8438 25.5936 17.5 24.7915 17.5Z" fill="#67C5D2"/>
</svg>
