<svg width="35" height="35" viewBox="0 0 35 35" fill="none" xmlns="http://www.w3.org/2000/svg">
<path fill-rule="evenodd" clip-rule="evenodd" d="M17.4997 22.8846C20.4735 22.8846 22.8843 20.4738 22.8843 17.5C22.8843 14.5262 20.4735 12.1154 17.4997 12.1154C14.5259 12.1154 12.1151 14.5262 12.1151 17.5C12.1151 20.4738 14.5259 22.8846 17.4997 22.8846ZM17.4997 28.2692C23.4474 28.2692 28.2689 23.4477 28.2689 17.5C28.2689 11.5523 23.4474 6.73077 17.4997 6.73077C11.552 6.73077 6.73047 11.5523 6.73047 17.5C6.73047 23.4477 11.552 28.2692 17.4997 28.2692Z" fill="white"/>
<path fill-rule="evenodd" clip-rule="evenodd" d="M17.5003 32.0833C25.5545 32.0833 32.0837 25.5541 32.0837 17.5C32.0837 9.44584 25.5545 2.91666 17.5003 2.91666C9.44617 2.91666 2.91699 9.44584 2.91699 17.5C2.91699 25.5541 9.44617 32.0833 17.5003 32.0833ZM17.5005 27.7083C23.1384 27.7083 27.7088 23.1379 27.7088 17.5C27.7088 11.8621 23.1384 7.29164 17.5005 7.29164C11.8626 7.29164 7.29215 11.8621 7.29215 17.5C7.29215 23.1379 11.8626 27.7083 17.5005 27.7083Z" fill="#EE827D"/>
<circle cx="17.5003" cy="17.5" r="5.83333" fill="#EE827D"/>
</svg>
