<svg width="35" height="35" viewBox="0 0 35 35" fill="none" xmlns="http://www.w3.org/2000/svg">
<path d="M17.5005 33.5417C19.1046 33.5417 20.4025 32.2438 20.4025 30.6396H14.5984C14.5984 32.2438 15.8963 33.5417 17.5005 33.5417ZM29.59 26.6729L27.7088 24.7917V16.0417C27.7088 11.1563 24.2671 7.07292 19.688 6.08125V4.375C19.688 3.16458 18.7109 2.1875 17.5005 2.1875C16.29 2.1875 15.313 3.16458 15.313 4.375V6.08125C10.7338 7.07292 7.29213 11.1563 7.29213 16.0417V24.7917L5.41088 26.6729C4.49213 27.5917 5.13379 29.1667 6.43171 29.1667H28.5546C29.8671 29.1667 30.5088 27.5917 29.59 26.6729ZM18.9588 23.3333H16.0421V20.4167H18.9588V23.3333ZM18.9588 16.0417C18.9588 16.8438 18.3025 17.5 17.5005 17.5C16.6984 17.5 16.0421 16.8438 16.0421 16.0417V13.125C16.0421 12.3229 16.6984 11.6667 17.5005 11.6667C18.3025 11.6667 18.9588 12.3229 18.9588 13.125V16.0417Z" fill="#88A3D3"/>
</svg>
