<svg width="35" height="35" viewBox="0 0 35 35" fill="none" xmlns="http://www.w3.org/2000/svg">
<path d="M27.7083 5.83335H26.25V4.37502C26.25 3.57294 25.5938 2.91669 24.7917 2.91669C23.9896 2.91669 23.3333 3.57294 23.3333 4.37502V5.83335H11.6667V4.37502C11.6667 3.57294 11.0104 2.91669 10.2083 2.91669C9.40625 2.91669 8.75 3.57294 8.75 4.37502V5.83335H7.29167C5.67292 5.83335 4.38958 7.14585 4.38958 8.75002L4.375 29.1667C4.375 30.7709 5.67292 32.0834 7.29167 32.0834H27.7083C29.3125 32.0834 30.625 30.7709 30.625 29.1667V8.75002C30.625 7.14585 29.3125 5.83335 27.7083 5.83335ZM27.7083 27.7084C27.7083 28.5104 27.0521 29.1667 26.25 29.1667H8.75C7.94792 29.1667 7.29167 28.5104 7.29167 27.7084V13.125H27.7083V27.7084ZM10.2083 16.0417H13.125V18.9584H10.2083V16.0417ZM16.0417 16.0417H18.9583V18.9584H16.0417V16.0417ZM21.875 16.0417H24.7917V18.9584H21.875V16.0417Z" fill="#998AD8"/>
</svg>
