<svg width="35" height="35" viewBox="0 0 35 35" fill="none" xmlns="http://www.w3.org/2000/svg">
<path d="M30.6247 4.375H4.37467C2.77051 4.375 1.45801 5.6875 1.45801 7.29167V24.7917C1.45801 26.3958 2.77051 27.7083 4.37467 27.7083H11.6663V29.1667C11.6663 29.9688 12.3226 30.625 13.1247 30.625H21.8747C22.6768 30.625 23.333 29.9688 23.333 29.1667V27.7083H30.6247C32.2288 27.7083 33.5413 26.3958 33.5413 24.7917V7.29167C33.5413 5.6875 32.2288 4.375 30.6247 4.375ZM29.1663 24.7917H5.83301C5.03092 24.7917 4.37467 24.1354 4.37467 23.3333V8.75C4.37467 7.94792 5.03092 7.29167 5.83301 7.29167H29.1663C29.9684 7.29167 30.6247 7.94792 30.6247 8.75V23.3333C30.6247 24.1354 29.9684 24.7917 29.1663 24.7917ZM26.2497 11.6667H13.1247C12.3226 11.6667 11.6663 12.3229 11.6663 13.125C11.6663 13.9271 12.3226 14.5833 13.1247 14.5833H26.2497C27.0518 14.5833 27.708 13.9271 27.708 13.125C27.708 12.3229 27.0518 11.6667 26.2497 11.6667ZM26.2497 17.5H13.1247C12.3226 17.5 11.6663 18.1562 11.6663 18.9583C11.6663 19.7604 12.3226 20.4167 13.1247 20.4167H26.2497C27.0518 20.4167 27.708 19.7604 27.708 18.9583C27.708 18.1562 27.0518 17.5 26.2497 17.5ZM10.208 11.6667H7.29134V14.5833H10.208V11.6667ZM10.208 17.5H7.29134V20.4167H10.208V17.5Z" fill="#D2A386"/>
</svg>
