<svg width="89" height="90" viewBox="0 0 89 90" fill="none" xmlns="http://www.w3.org/2000/svg">
<path fill-rule="evenodd" clip-rule="evenodd" d="M86.1867 0C87.4052 0 88.5485 1.01229 88.6611 2.23079C89.5047 11.7538 85.793 21.3705 79.1565 28.1754C77.4881 29.8813 75.5947 31.3622 73.5889 32.6557C73.1408 32.9383 72.6753 33.2069 72.208 33.4767C70.5052 34.4595 68.7778 35.4566 67.7776 37.1922C66.8592 38.7669 67.6839 40.6228 69.39 41.1477C69.5774 41.2039 69.7836 41.2414 69.9711 41.2414C71.3394 41.2414 72.4831 39.8167 72.4831 38.5045C72.4831 37.211 73.4954 36.5549 74.5077 36.5549C75.5199 36.5549 76.5322 37.1922 76.5322 38.5045C76.5322 41.3351 74.7326 43.8471 72.1269 44.8594C71.4145 45.1218 70.6834 45.2531 69.9711 45.2531C68.059 45.2531 66.1656 44.3533 64.9096 42.8348C63.6537 41.3351 63.2039 39.5543 63.4287 37.7921C59.5485 40.679 54.9932 42.7036 50.0442 43.5847C48.2071 43.9221 46.3135 44.0908 44.3829 44.0908C42.452 44.0908 40.5587 43.9221 38.7215 43.5847C33.7726 42.7036 29.2173 40.679 25.3368 37.7921C25.5618 39.5543 25.0931 41.3351 23.8559 42.8348C22.5999 44.3345 20.7066 45.2531 18.7945 45.2531C18.0634 45.2531 17.3323 45.1406 16.6387 44.8594C14.0329 43.8284 12.2333 41.3351 12.2333 38.5045C12.2333 37.211 13.2456 36.5549 14.2579 36.5549C15.2702 36.5549 16.2825 37.1922 16.2825 38.5045C16.2825 39.8167 17.426 41.2414 18.7945 41.2414C18.9819 41.2414 19.1694 41.2039 19.3756 41.1477C21.0815 40.6228 21.8876 38.7669 20.9877 37.1922C20.0081 35.4923 18.3199 34.512 16.6549 33.5451C16.1533 33.2538 15.6538 32.9638 15.1765 32.6557C13.1706 31.381 11.2773 29.8813 9.60887 28.1754C2.97275 21.3705 -0.738976 11.7538 0.123345 2.23079C0.235821 0.974797 1.32309 0 2.59783 0H86.1867ZM4.06002 4.0679C4.04128 4.25536 4.04128 4.46157 4.04128 4.64903C4.00379 14.3595 9.06523 24.1075 17.3885 29.2627C14.2392 24.2949 12.402 18.4274 12.402 12.11C12.402 9.33556 12.7582 6.63612 13.4331 4.0679H4.06002ZM76.3637 12.11C76.3637 18.4274 74.5266 24.3137 71.3772 29.2627C79.7005 24.1075 84.7619 14.3595 84.7246 4.64903C84.7246 4.5553 84.7199 4.45688 84.7152 4.35847C84.7104 4.26005 84.7057 4.16163 84.7057 4.0679H75.3327C76.0077 6.63612 76.3637 9.33556 76.3637 12.11ZM37.6338 67.1483C36.0028 67.1483 34.6719 68.4795 34.6719 70.1102C34.6719 70.4478 34.7281 70.7476 34.8218 71.0475H53.9429C54.0366 70.7476 54.0928 70.4289 54.0928 70.1102C54.0928 68.4795 52.7619 67.1483 51.131 67.1483H50.0437V50.0706H51.131C52.7619 50.0706 54.0928 48.7396 54.0928 47.1089C54.0928 46.2653 53.7368 45.5155 53.1745 44.9717C52.1434 45.2529 51.0935 45.4778 50.0439 45.6465C48.188 45.9652 46.2946 46.1152 44.3825 46.1152C42.4704 46.1152 40.5771 45.9652 38.7212 45.6465C37.6714 45.4778 36.6217 45.2343 35.5906 44.9717C35.0282 45.5155 34.6721 46.2653 34.6721 47.1089C34.6721 48.7396 36.003 50.0706 37.6339 50.0706H38.7212V67.1483H37.6338ZM65.0419 88.969V78.0587C65.0419 77.4963 64.5544 77.0277 63.9547 77.0277H61.0115C60.4117 77.0277 59.9243 76.559 59.9243 75.9967V74.1033C59.9243 73.5409 59.4367 73.0723 58.8368 73.0723H51.1322H37.635H29.8553C29.2555 73.0723 28.7681 73.5409 28.7681 74.1033V75.9967C28.7681 76.559 28.2807 77.0277 27.6808 77.0277H24.7377C24.1378 77.0277 23.6504 77.4963 23.6504 78.0587V88.969C23.6504 89.5313 24.1378 90 24.7377 90H63.9545C64.5358 90 65.0419 89.5313 65.0419 88.969Z" fill="url(#paint0_linear_1_2498)"/>
<defs>
<linearGradient id="paint0_linear_1_2498" x1="28.4835" y1="-1.15116e-06" x2="90.1157" y2="123.458" gradientUnits="userSpaceOnUse">
<stop stop-color="#FEC532"/>
<stop offset="1" stop-color="#DEA411"/>
</linearGradient>
</defs>
</svg>
