<svg width="128" height="90" viewBox="0 0 128 90" fill="none" xmlns="http://www.w3.org/2000/svg">
<path fill-rule="evenodd" clip-rule="evenodd" d="M16.7219 29.5577C17.7729 35.2919 14.0964 38.6745 14.0964 38.6745C14.0964 38.6745 9.30854 36.2503 8.28975 30.6651C7.26694 25.0719 11.4589 21.0088 11.4589 21.0088C11.4589 21.0088 15.679 23.8276 16.7219 29.5577ZM26.6321 41.984C25.7946 47.5974 21.0872 50.1866 21.0872 50.1866C21.0872 50.1866 17.302 46.9209 18.1597 41.1625C19.0214 35.3961 23.1409 32.4404 23.1409 32.4404C23.1409 32.4404 27.4697 36.3626 26.6321 41.984ZM9.31178 42.0695C13.3628 46.2534 12.1869 51.1057 12.1869 51.1057C12.1869 51.1057 6.85944 51.7419 2.90107 47.6627C-1.05327 43.5795 0.182967 37.8735 0.182967 37.8735C0.182967 37.8735 5.25677 37.8735 9.31178 42.0695ZM24.1755 55.7359C24.0788 61.5587 28.2547 64.301 28.2547 64.301C28.2547 64.301 32.5835 61.1198 32.6842 55.442C32.7768 49.7641 27.9768 46.438 27.9768 46.438C27.9768 46.438 24.2721 49.9011 24.1755 55.7359ZM34.0458 64.2729C33.5989 58.4542 36.9572 54.6528 36.9572 54.6528C36.9572 54.6528 42.0471 57.5159 42.4901 63.1776C42.925 68.8434 38.9102 72.4111 38.9102 72.4111C38.9102 72.4111 34.4968 70.0836 34.0458 64.2729ZM52.29 79.4133C52.29 79.4133 55.1087 74.8348 53.0591 69.5355C51.0054 64.2443 45.3034 62.9678 45.3034 62.9678C45.3034 62.9678 43.1813 67.5785 45.2873 73.0147C47.3934 78.4509 52.29 79.4133 52.29 79.4133ZM17.1165 62.086C17.1165 62.086 16.8104 57.1008 11.7044 54.29C6.59439 51.4833 1.74609 52.9773 1.74609 52.9773C1.74609 52.9773 2.24945 58.792 7.23063 61.5343C12.2038 64.2725 17.1165 62.086 17.1165 62.086ZM18.7468 65.3406C24.3481 66.9473 25.7535 71.7352 25.7535 71.7352C25.7535 71.7352 21.4528 74.9527 15.9884 73.3943C10.528 71.8319 8.74414 66.2708 8.74414 66.2708C8.74414 66.2708 13.1374 63.746 18.7468 65.3406ZM35.3866 78.5934C35.3866 78.5934 32.596 74.4579 26.7691 74.623C20.9383 74.7881 17.5195 78.5371 17.5195 78.5371C17.5195 78.5371 20.9021 83.3008 26.5799 83.1357C32.2577 82.9666 35.3866 78.5934 35.3866 78.5934ZM30.7871 86.3804C30.7871 86.3804 33.7388 82.261 39.5052 81.3952C45.2595 80.5254 48.5333 84.3026 48.5333 84.3026C48.5333 84.3026 45.9562 89.014 40.3347 89.8636C34.7173 90.7052 30.7871 86.3804 30.7871 86.3804ZM16.0091 41.5086L13.2347 41.416C13.2226 41.714 12.679 71.8548 58.2062 85.2077L58.9874 82.542C15.6347 69.8253 15.9689 42.6643 16.0091 41.5086ZM125.092 47.6857C121.142 51.7649 115.806 51.1286 115.806 51.1286C115.806 51.1286 114.63 46.2683 118.681 42.0884C122.736 37.8965 127.81 37.8965 127.81 37.8965C127.81 37.8965 129.042 43.6025 125.092 47.6857ZM101.361 42.006C102.199 47.6274 106.906 50.2086 106.906 50.2086C106.906 50.2086 110.688 46.9469 109.834 41.1845C108.98 35.4221 104.857 32.4624 104.857 32.4624C104.857 32.4624 100.524 36.3845 101.361 42.006ZM99.7433 64.3166C99.7433 64.3166 95.4064 61.1354 95.3138 55.4616C95.2212 49.7838 100.029 46.4536 100.029 46.4536C100.029 46.4536 103.73 49.9247 103.822 55.7516C103.919 61.5784 99.7433 64.3166 99.7433 64.3166ZM85.5001 63.2015C85.0693 68.8673 89.084 72.4351 89.084 72.4351C89.084 72.4351 93.5014 70.1076 93.9484 64.2968C94.3914 58.4861 91.033 54.6768 91.033 54.6768C91.033 54.6768 85.9471 57.5398 85.5001 63.2015ZM75.7071 79.4329C75.7071 79.4329 72.8883 74.8584 74.9339 69.5551C76.9916 64.2638 82.6936 62.9873 82.6936 62.9873C82.6936 62.9873 84.8077 67.594 82.7097 73.0342C80.6077 78.4745 75.7071 79.4329 75.7071 79.4329ZM119.712 30.6846C120.735 25.0914 116.543 21.0283 116.543 21.0283C116.543 21.0283 112.323 23.8471 111.276 29.5813C110.229 35.3115 113.901 38.698 113.901 38.698C113.901 38.698 118.693 36.2739 119.712 30.6846ZM110.885 62.1099C110.885 62.1099 111.187 57.1207 116.297 54.314C121.403 51.5073 126.255 53.0012 126.255 53.0012C126.255 53.0012 125.748 58.82 120.775 61.5582C115.793 64.2965 110.885 62.1099 110.885 62.1099ZM109.255 65.3641C103.649 66.9628 102.248 71.7587 102.248 71.7587C102.248 71.7587 106.549 74.9761 112.013 73.4178C117.473 71.8513 119.257 66.2903 119.257 66.2903C119.257 66.2903 114.86 63.7614 109.255 65.3641ZM92.6113 78.6171C92.6113 78.6171 95.406 74.4735 101.229 74.6386C107.06 74.8117 110.478 78.5527 110.478 78.5527C110.478 78.5527 107.096 83.3204 101.418 83.1553C95.7321 82.9902 92.6113 78.6171 92.6113 78.6171ZM88.4959 81.4159C82.7335 80.5502 79.4678 84.3314 79.4678 84.3314C79.4678 84.3314 82.049 89.0427 87.6664 89.8924C93.2878 90.726 97.214 86.4132 97.214 86.4132C97.214 86.4132 94.2623 82.2817 88.4959 81.4159ZM111.997 41.5346L114.771 41.438C114.779 41.74 115.327 71.8768 69.7998 85.2337L69.0186 82.5639C112.363 69.8432 112.033 42.6823 111.997 41.5346Z" fill="url(#paint0_linear_1_2507)"/>
<path d="M63.805 0L69.7572 12.8167L83.7859 14.517L73.4358 24.1384L76.1539 38.0059L63.805 31.1355L51.4562 38.0059L54.1742 24.1384L43.8242 14.517L57.8529 12.8167L63.805 0Z" fill="url(#paint1_linear_1_2507)"/>
<defs>
<linearGradient id="paint0_linear_1_2507" x1="41.0641" y1="21.0088" x2="70.3799" y2="131.451" gradientUnits="userSpaceOnUse">
<stop stop-color="#FEC532"/>
<stop offset="1" stop-color="#DEA411"/>
</linearGradient>
<linearGradient id="paint1_linear_1_2507" x1="56.2768" y1="-5.37442e-07" x2="84.8142" y2="57.9502" gradientUnits="userSpaceOnUse">
<stop stop-color="#FEC532"/>
<stop offset="1" stop-color="#DEA411"/>
</linearGradient>
</defs>
</svg>
