<svg width="136" height="136" viewBox="0 0 136 136" fill="none" xmlns="http://www.w3.org/2000/svg">
<path d="M66.3072 8.21114C64.5797 8.68356 63.1476 9.53983 59.0726 12.5515C55.5438 15.1646 53.5211 15.9175 50.4353 15.7404C49.6233 15.6961 47.763 15.5189 46.3013 15.3418C40.6465 14.6774 38.1365 15.2384 36.1876 17.6006C35.2132 18.7669 34.5783 19.9331 33.0576 23.4025C31.4335 27.0933 30.6509 28.3925 29.3221 29.6621C28.0376 30.8579 26.8417 31.5518 23.3573 33.0577C21.8661 33.7072 20.2272 34.4749 19.6957 34.7702C17.4367 36.0103 16.1227 37.4128 15.4878 39.2287C15.1778 40.1292 15.1482 40.4836 15.163 42.7423C15.163 44.1891 15.2811 45.9902 15.414 47.0089C16.2851 53.239 15.8865 54.6415 11.6638 60.3106C7.97271 65.271 7.33784 67.4412 8.57806 70.7482C9.00623 71.8997 9.87733 73.2875 11.6934 75.7529C13.8785 78.7056 14.8087 80.2114 15.2959 81.6582C15.6798 82.795 15.7093 83.0755 15.7093 84.9652C15.7093 86.1315 15.5617 88.154 15.3845 89.6156C14.7053 95.2109 15.163 97.5877 17.3186 99.5808C18.4998 100.673 19.7991 101.411 22.9144 102.77C27.4175 104.718 28.894 105.634 30.2228 107.302C30.9019 108.143 32.3046 110.889 33.6186 113.901C35.4937 118.197 37.1473 120.043 39.7311 120.707C41.0304 121.047 43.7175 121.017 46.8919 120.633C49.9186 120.264 52.4581 120.235 53.6835 120.545C55.5143 121.017 56.5183 121.608 60.1061 124.235C64.3139 127.336 65.7018 128 68.0051 128C70.2493 128 71.8438 127.247 75.5792 124.472C80.3777 120.899 81.677 120.323 84.9104 120.323C85.8406 120.323 87.7452 120.456 89.1183 120.633C91.9235 120.973 94.9502 121.032 96.0428 120.781C98.7595 120.131 100.487 118.271 102.392 113.901C103.706 110.889 105.108 108.143 105.787 107.302C107.116 105.634 108.593 104.718 113.096 102.77C116.211 101.411 117.51 100.673 118.692 99.5808C120.847 97.5877 121.305 95.2109 120.626 89.6156C120.448 88.1836 120.301 86.1167 120.301 84.9652C120.286 83.0312 120.316 82.8245 120.744 81.6139C121.261 80.1376 122.087 78.7499 123.889 76.3287C127.284 71.7816 128.156 69.8919 127.978 67.5446C127.831 65.5958 126.915 63.7652 124.346 60.3106C121.482 56.4721 120.773 55.1582 120.404 53.1209C120.138 51.6889 120.183 50.2125 120.655 46.2855C121.349 40.2769 120.685 37.7524 117.806 35.7298C116.492 34.7997 115.665 34.3716 112.461 32.9838C109.198 31.5666 107.958 30.8432 106.688 29.6621C105.359 28.3925 104.577 27.0786 102.997 23.4911C101.018 18.9735 100.162 17.6006 98.6118 16.449C96.7515 15.076 94.4335 14.7955 89.7088 15.3418C88.2472 15.5189 86.3868 15.6961 85.5748 15.7404C82.489 15.9175 80.4663 15.1646 76.9376 12.5515C74.1618 10.4994 72.272 9.2298 71.3271 8.80167C69.5406 7.98969 67.8722 7.79777 66.3072 8.21114Z" fill="url(#paint0_linear_1_2476)"/>
<path opacity="0.1" d="M32.3297 11.2012L32.3316 11.1988C33.3694 9.94101 34.5375 9.17621 36.211 8.80238C37.9137 8.42205 40.1574 8.44231 43.348 8.81705C43.3486 8.81712 43.3492 8.81719 43.3498 8.81726L43.4081 8.32068C45.0647 8.52146 47.1731 8.72224 48.0934 8.77244L32.3297 11.2012ZM32.3297 11.2012C31.2758 12.4626 30.5804 13.7241 28.8565 17.6569L28.8562 17.6576C27.0126 21.8473 26.0932 23.3997 24.5105 24.9119L24.5058 24.9164C22.9837 26.3333 21.5611 27.1472 17.6033 28.8577C15.9124 29.5942 14.0765 30.4552 13.4979 30.7766L13.4957 30.7779C11.0087 32.1432 9.62581 33.6488 8.95853 35.5565C8.79126 36.0425 8.70735 36.357 8.66201 36.852C8.6145 37.3706 8.60966 38.0845 8.61808 39.3714V39.3746C8.61808 40.9944 8.7507 43.0123 8.89804 44.1431C9.3913 47.6714 9.54249 49.9281 8.92349 52.1219C8.30723 54.3061 6.94084 56.3787 4.55347 59.5838C2.46463 62.391 1.28741 64.3501 0.787473 66.0442C0.298701 67.7005 0.447991 69.1384 1.12329 70.939L1.12378 70.9404C1.58147 72.1713 2.52752 73.6923 4.58838 76.4901C7.0623 79.833 8.16228 81.5967 8.74253 83.3197C8.96257 83.9714 9.09317 84.4119 9.16232 84.972C9.22956 85.5166 9.2372 86.164 9.2372 87.2272C9.2372 88.5754 9.06775 90.8889 8.86544 92.5578L8.86543 92.5579C8.48177 95.7187 8.42795 97.9126 8.75118 99.5804C9.06865 101.219 9.75269 102.363 10.9005 103.424L10.9006 103.424C12.1732 104.602 13.5786 105.411 17.1022 106.947C22.2054 109.155 23.9854 110.233 25.5759 112.229C25.9974 112.752 26.6079 113.812 27.2851 115.131C27.9704 116.466 28.7446 118.107 29.4927 119.821C31.6012 124.652 33.3899 126.557 36.0864 127.25L36.0883 127.251C36.7585 127.426 37.8339 127.515 39.2175 127.5C40.5905 127.486 42.2326 127.37 44.0174 127.155C45.7463 126.944 47.3417 126.829 48.6853 126.812C50.0187 126.795 51.1381 126.874 51.8973 127.066L51.8996 127.066C54.0778 127.628 55.285 128.353 59.349 131.33L59.3501 131.331C61.7364 133.089 63.287 134.129 64.5543 134.733C65.7952 135.325 66.7662 135.5 68.0057 135.5C70.3741 135.5 72.0665 134.739 76.2912 131.6L32.3297 11.2012ZM58.1798 5.56023C62.8062 2.14101 64.3583 1.22923 66.2115 0.722076C67.852 0.289413 69.6232 0.48175 71.5638 1.36374L71.5643 1.36398C72.5772 1.82291 74.6739 3.22572 77.8317 5.56023C79.845 7.05112 81.4625 8.03748 83.0385 8.62024C84.6259 9.20722 86.1441 9.37498 87.9453 9.2717C87.9458 9.27167 87.9463 9.27164 87.9468 9.27161L87.9181 8.77244C88.8384 8.72224 90.9468 8.52146 92.6034 8.32068L58.1798 5.56023ZM58.1798 5.56023C58.1797 5.56032 58.1795 5.56041 58.1794 5.5605L57.8822 5.1584L58.1798 5.56023ZM102.395 9.97694C100.454 8.54512 98.0034 8.19984 92.6627 8.81715L127.305 83.2634C127.916 81.5166 128.891 79.8945 130.939 77.1407L130.94 77.14C134.794 71.9795 135.662 69.9757 135.477 67.5215C135.321 65.4678 134.366 63.4939 131.458 59.5842C128.211 55.2322 127.341 53.661 126.9 51.228C126.583 49.5206 126.645 47.7763 127.179 43.331C127.571 39.9385 127.569 37.6008 127.097 35.8443C126.634 34.1228 125.711 32.9268 124.159 31.8362L124.158 31.8352C122.713 30.813 121.817 30.3446 118.19 28.7738L118.19 28.7736C114.48 27.1625 113.01 26.3153 111.506 24.9165L111.501 24.9119C109.918 23.3996 108.999 21.8306 107.206 17.7581L107.205 17.7571C104.959 12.6285 104.033 11.1931 102.395 9.97694Z" stroke="url(#paint1_linear_1_2476)"/>
<path d="M49.9034 53.2965V82.3144H43.187V60.8699L36.5703 62.8031V57.701L49.2856 53.2965H49.9034Z" fill="white"/>
<path d="M61.1869 69.3799L55.8457 68.1244L57.5995 53.2965H74.5598V58.5182H63.0802L62.4225 64.2779C62.7414 64.0919 63.2795 63.8727 64.0368 63.6202C64.8075 63.3545 65.6578 63.2216 66.5879 63.2216C68.0228 63.2216 69.2917 63.4408 70.3945 63.8793C71.5105 64.3045 72.4539 64.9356 73.2245 65.7726C73.9951 66.5964 74.5731 67.6128 74.9584 68.8219C75.357 70.031 75.5563 71.4128 75.5563 72.9673C75.5563 74.2162 75.3503 75.4253 74.9385 76.5945C74.5399 77.7505 73.922 78.7935 73.085 79.7235C72.2612 80.6403 71.2182 81.3711 69.956 81.9158C68.6938 82.4473 67.199 82.713 65.4718 82.713C64.183 82.713 62.9274 82.5137 61.705 82.1151C60.4827 81.7165 59.3799 81.1452 58.3967 80.4011C57.4268 79.6438 56.6561 78.7337 56.0848 77.6707C55.5268 76.5945 55.2544 75.3921 55.2677 74.0634H62.0239C62.0638 74.7676 62.2299 75.3788 62.5222 75.897C62.8145 76.4152 63.2064 76.8204 63.698 77.1127C64.2029 77.3917 64.7809 77.5312 65.4319 77.5312C66.0962 77.5312 66.6476 77.3984 67.0861 77.1326C67.5246 76.8669 67.87 76.5015 68.1224 76.0365C68.3749 75.5715 68.5543 75.04 68.6606 74.4421C68.7668 73.8309 68.82 73.1865 68.82 72.5089C68.82 71.7914 68.7403 71.147 68.5808 70.5757C68.4347 70.0044 68.1955 69.5194 67.8634 69.1208C67.5312 68.709 67.0994 68.3967 66.5679 68.1841C66.0497 67.9716 65.4253 67.8653 64.6945 67.8653C63.7246 67.8653 62.9606 68.0313 62.4026 68.3635C61.8445 68.6957 61.4393 69.0345 61.1869 69.3799Z" fill="white"/>
<path d="M99.2728 65.1548V70.4561C99.2728 72.5421 99.027 74.3558 98.5354 75.897C98.0571 77.4382 97.3662 78.7137 96.4627 79.7235C95.5725 80.7333 94.5096 81.484 93.2739 81.9756C92.0383 82.4672 90.6764 82.713 89.1883 82.713C87.9925 82.713 86.8764 82.5602 85.8401 82.2546C84.8037 81.9357 83.867 81.4574 83.03 80.8197C82.2062 80.1686 81.4954 79.3581 80.8975 78.3882C80.2996 77.4183 79.8412 76.2757 79.5223 74.9603C79.2034 73.6316 79.044 72.1303 79.044 70.4561V65.1548C79.044 63.0555 79.2832 61.2419 79.7615 59.714C80.2531 58.1727 80.9506 56.8972 81.8541 55.8874C82.7576 54.8776 83.8272 54.127 85.0628 53.6354C86.2985 53.1438 87.6603 52.8979 89.1484 52.8979C90.3442 52.8979 91.4537 53.0574 92.4767 53.3763C93.5131 53.6819 94.4498 54.1602 95.2868 54.8112C96.1239 55.449 96.8347 56.2528 97.4193 57.2227C98.0172 58.1926 98.4756 59.3419 98.7945 60.6706C99.1134 61.986 99.2728 63.4807 99.2728 65.1548ZM92.5564 71.2733V64.2978C92.5564 63.3678 92.5033 62.5573 92.397 61.8664C92.304 61.1755 92.1578 60.5909 91.9585 60.1126C91.7725 59.6342 91.54 59.2489 91.261 58.9566C90.982 58.651 90.6631 58.4318 90.3044 58.2989C89.9589 58.1528 89.5736 58.0797 89.1484 58.0797C88.617 58.0797 88.1387 58.1926 87.7135 58.4185C87.3016 58.6311 86.9495 58.9766 86.6572 59.4549C86.3649 59.9332 86.139 60.5709 85.9796 61.3681C85.8334 62.1653 85.7604 63.1419 85.7604 64.2978V71.2733C85.7604 72.2166 85.8069 73.0404 85.8999 73.7446C86.0062 74.4355 86.1523 75.0267 86.3383 75.5183C86.5376 75.9966 86.7768 76.3886 87.0558 76.6942C87.3348 76.9865 87.6537 77.1991 88.0124 77.3319C88.3712 77.4648 88.7631 77.5312 89.1883 77.5312C89.7065 77.5312 90.1715 77.4249 90.5834 77.2124C90.9953 76.9998 91.3474 76.6543 91.6397 76.176C91.9453 75.6844 92.1711 75.04 92.3173 74.2428C92.4767 73.4323 92.5564 72.4425 92.5564 71.2733Z" fill="white"/>
<g opacity="0.4">
<path d="M38.3393 92.2387C37.8013 93.2333 37.3451 94.0502 37.3246 94.0502C37.1884 94.0502 33.3205 94.4906 33.3069 94.512C33.2932 94.5262 33.9265 95.201 34.7097 96.0109L36.1397 97.4956L35.6835 99.5202C35.4315 100.636 35.2272 101.552 35.234 101.566C35.2476 101.58 36.0853 101.168 37.1067 100.657C38.1282 100.152 38.9794 99.7333 39.0067 99.7333C39.0271 99.7333 39.817 100.195 40.75 100.756C41.6897 101.318 42.4592 101.772 42.4728 101.765C42.4796 101.751 42.4115 100.927 42.3162 99.9393C42.2209 98.9448 42.1392 98.0355 42.1323 97.9076C42.1119 97.6945 42.1868 97.6235 43.6441 96.4229C44.4885 95.7338 45.1899 95.1584 45.2036 95.1442C45.2717 95.0803 45.0742 95.0305 43.2015 94.6185C42.1119 94.377 41.2062 94.1568 41.179 94.1354C41.1585 94.107 40.7295 93.2688 40.2392 92.2742C39.7421 91.2797 39.3335 90.4556 39.3267 90.4485C39.3199 90.4343 38.8705 91.2442 38.3393 92.2387Z" fill="white"/>
<path d="M94.7995 90.8674C94.7246 90.9953 94.3092 91.7696 93.8665 92.5937C93.4307 93.4106 93.0357 94.121 92.9949 94.1708C92.9472 94.2134 92.1709 94.3341 91.1767 94.4336C90.2233 94.5402 89.3108 94.6396 89.1542 94.6609L88.8613 94.7035L90.305 96.1812L91.7555 97.6517L91.2924 99.6976C91.0405 100.827 90.843 101.758 90.8566 101.765C90.8634 101.779 91.6942 101.374 92.7021 100.863C93.7099 100.358 94.568 99.9462 94.6088 99.9462C94.6497 99.9462 95.4532 100.408 96.3862 100.969C97.3259 101.53 98.0954 101.985 98.0954 101.978C98.1022 101.978 98.0205 101.076 97.9116 99.9817C97.8094 98.8877 97.7141 97.9713 97.7141 97.9429C97.7141 97.9145 98.4223 97.3107 99.2872 96.5932C100.213 95.8331 100.826 95.2861 100.772 95.2648C100.717 95.2434 99.8047 95.0374 98.7356 94.803L96.7948 94.3697L95.8686 92.5013L94.9425 90.6259L94.7995 90.8674Z" fill="white"/>
<path d="M51.217 99.3578C50.8833 99.9758 50.4611 100.764 50.2772 101.112C50.0934 101.461 49.8823 101.766 49.8074 101.802C49.7325 101.83 48.8472 101.944 47.8325 102.043C46.8247 102.15 45.9462 102.249 45.8917 102.27C45.8236 102.292 46.2527 102.775 47.2333 103.769L48.6769 105.24L48.2139 107.279C47.9619 108.408 47.7781 109.325 47.7985 109.325C47.8257 109.325 48.6838 108.913 49.6984 108.401L51.5439 107.485L53.2531 108.515C54.1929 109.083 54.976 109.538 54.9896 109.516C55.0032 109.502 54.9283 108.586 54.8262 107.478L54.6355 105.467L55.5957 104.679C56.12 104.245 56.8146 103.67 57.1483 103.4C57.4752 103.13 57.7203 102.881 57.6931 102.853C57.659 102.832 56.7533 102.611 55.6706 102.377C54.5878 102.135 53.6957 101.937 53.6889 101.922C53.6821 101.908 53.2667 101.077 52.7764 100.068C52.2793 99.0666 51.8639 98.2425 51.8503 98.2425C51.8367 98.2425 51.5507 98.7469 51.217 99.3578Z" fill="white"/>
<path d="M82.3998 99.5494C82.1342 100.04 81.6984 100.849 81.4328 101.34C81.1672 101.83 80.9152 102.242 80.8744 102.256C80.8267 102.27 79.9959 102.37 79.0221 102.469C78.0483 102.569 77.163 102.675 77.0541 102.704C76.8634 102.753 76.8838 102.782 78.2867 104.21L79.7167 105.666L79.2877 107.57C79.0562 108.614 78.8451 109.552 78.8246 109.644C78.777 109.836 78.7565 109.843 81.3102 108.557L82.5768 107.925L84.2929 108.948C85.2395 109.516 86.0226 109.971 86.0362 109.957C86.0498 109.935 85.9749 109.033 85.866 107.939C85.7638 106.845 85.6889 105.929 85.7025 105.907C85.7162 105.879 86.4176 105.289 87.2688 104.6C88.2971 103.748 88.7738 103.314 88.7125 103.286C88.6648 103.258 87.7727 103.045 86.7376 102.824C85.7025 102.597 84.8241 102.391 84.79 102.37C84.756 102.348 84.3201 101.51 83.823 100.516C83.3259 99.521 82.9173 98.6969 82.9037 98.6827C82.8901 98.6685 82.6654 99.0592 82.3998 99.5494Z" fill="white"/>
<path d="M66.5654 102.655C66.0479 103.636 65.5848 104.445 65.5439 104.46C65.5031 104.474 64.7063 104.573 63.7666 104.673C62.8337 104.772 61.9348 104.872 61.7713 104.893L61.4785 104.936L62.9222 106.406L64.3727 107.877L63.9164 109.923C63.6644 111.052 63.467 111.983 63.4738 111.99C63.4874 112.004 64.3182 111.599 65.326 111.095C66.3271 110.59 67.1851 110.178 67.2328 110.178C67.2804 110.178 68.0567 110.626 68.9624 111.173C69.8681 111.72 70.6376 112.167 70.6649 112.167C70.6989 112.167 70.6308 111.279 70.5287 110.193C70.4265 109.113 70.3516 108.189 70.3653 108.147C70.3857 108.097 71.0871 107.493 71.9383 106.797C73.1436 105.809 73.4501 105.518 73.3547 105.483C73.2866 105.461 72.3878 105.255 71.3595 105.028C70.3312 104.801 69.4596 104.595 69.4187 104.559C69.3847 104.531 68.9556 103.685 68.4653 102.691C67.9818 101.689 67.5664 100.879 67.546 100.879C67.5256 100.879 67.0898 101.675 66.5654 102.655Z" fill="white"/>
</g>
<path d="M59.4342 30.5509V39.8366H57.6867V30.5509H59.4342ZM62.3168 30.5509V31.9348H54.8359V30.5509H62.3168Z" fill="white"/>
<path d="M70.8245 34.9578V35.4361C70.8245 36.1376 70.7309 36.769 70.5438 37.3302C70.3568 37.8872 70.091 38.3613 69.7467 38.7524C69.4023 39.1436 68.992 39.4433 68.5158 39.6517C68.0396 39.86 67.5103 39.9642 66.9278 39.9642C66.3538 39.9642 65.8266 39.86 65.3461 39.6517C64.87 39.4433 64.4575 39.1436 64.1089 38.7524C63.7603 38.3613 63.4903 37.8872 63.2989 37.3302C63.1076 36.769 63.012 36.1376 63.012 35.4361V34.9578C63.012 34.252 63.1076 33.6206 63.2989 33.0636C63.4903 32.5067 63.7581 32.0326 64.1025 31.6415C64.4469 31.246 64.8572 30.9442 65.3334 30.7358C65.8138 30.5275 66.341 30.4233 66.915 30.4233C67.4975 30.4233 68.0268 30.5275 68.503 30.7358C68.9792 30.9442 69.3895 31.246 69.7339 31.6415C70.0825 32.0326 70.3504 32.5067 70.5375 33.0636C70.7288 33.6206 70.8245 34.252 70.8245 34.9578ZM69.0515 35.4361V34.945C69.0515 34.4391 69.0047 33.9948 68.9112 33.6121C68.8177 33.2252 68.6795 32.9 68.4967 32.6364C68.3138 32.3727 68.0885 32.175 67.8206 32.0432C67.5528 31.9072 67.2509 31.8392 66.915 31.8392C66.5749 31.8392 66.273 31.9072 66.0094 32.0432C65.7501 32.175 65.529 32.3727 65.3461 32.6364C65.1633 32.9 65.023 33.2252 64.9252 33.6121C64.8317 33.9948 64.7849 34.4391 64.7849 34.945V35.4361C64.7849 35.9378 64.8317 36.3821 64.9252 36.769C65.023 37.1559 65.1633 37.4833 65.3461 37.7511C65.5332 38.0148 65.7586 38.2146 66.0222 38.3506C66.2858 38.4867 66.5876 38.5547 66.9278 38.5547C67.2679 38.5547 67.5698 38.4867 67.8334 38.3506C68.097 38.2146 68.3181 38.0148 68.4967 37.7511C68.6795 37.4833 68.8177 37.1559 68.9112 36.769C69.0047 36.3821 69.0515 35.9378 69.0515 35.4361Z" fill="white"/>
<path d="M75.8819 36.4501H73.4903V35.0726H75.8819C76.273 35.0726 76.5898 35.0088 76.8321 34.8812C77.0787 34.7494 77.2594 34.5709 77.3742 34.3455C77.489 34.1159 77.5464 33.8545 77.5464 33.5611C77.5464 33.2762 77.489 33.0105 77.3742 32.7639C77.2594 32.5173 77.0787 32.3175 76.8321 32.1644C76.5898 32.0114 76.273 31.9348 75.8819 31.9348H74.0643V39.8366H72.3104V30.5509H75.8819C76.6046 30.5509 77.2211 30.6806 77.7313 30.9399C78.2458 31.195 78.637 31.55 78.9048 32.005C79.1769 32.4557 79.313 32.9701 79.313 33.5483C79.313 34.1478 79.1769 34.6644 78.9048 35.0981C78.637 35.5318 78.2458 35.8655 77.7313 36.0994C77.2211 36.3332 76.6046 36.4501 75.8819 36.4501Z" fill="white"/>
<defs>
<linearGradient id="paint0_linear_1_2476" x1="46.5" y1="128" x2="128" y2="-37.5" gradientUnits="userSpaceOnUse">
<stop stop-color="#FEC532"/>
<stop offset="1" stop-color="#DEA411"/>
</linearGradient>
<linearGradient id="paint1_linear_1_2476" x1="68" y1="136" x2="68" y2="0" gradientUnits="userSpaceOnUse">
<stop stop-color="#E0A613"/>
<stop offset="1" stop-color="#FDC431"/>
</linearGradient>
</defs>
</svg>
