<svg width="35" height="35" viewBox="0 0 35 35" fill="none" xmlns="http://www.w3.org/2000/svg">
<path d="M17.4998 2.91666C14.6155 2.91666 11.796 3.77195 9.39778 5.37439C6.99956 6.97683 5.13038 9.25443 4.0266 11.9192C2.92282 14.5839 2.63402 17.5162 3.19673 20.3451C3.75943 23.1739 5.14835 25.7724 7.18787 27.812C9.22739 29.8515 11.8259 31.2404 14.6548 31.8031C17.4837 32.3658 20.4159 32.077 23.0806 30.9732C25.7454 29.8695 28.023 28.0003 29.6254 25.6021C31.2279 23.2038 32.0832 20.3843 32.0832 17.5C32.0832 15.5849 31.706 13.6885 30.9731 11.9192C30.2402 10.1499 29.166 8.5422 27.8118 7.18802C26.4576 5.83383 24.85 4.75963 23.0806 4.02675C21.3113 3.29387 19.415 2.91666 17.4998 2.91666ZM22.9978 16.6979C23.3109 16.8047 23.633 16.8828 23.9603 16.9312C24.1377 16.9512 24.3133 16.9853 24.4853 17.0333L24.6603 17.1208C24.6069 17.2022 24.5484 17.2801 24.4853 17.3542L23.8873 18.0542C23.294 18.7059 22.7528 19.4032 22.2686 20.1396C21.478 21.3112 21.165 22.7406 21.3936 24.1354C21.6259 24.9395 22.0165 25.6891 22.5424 26.3402C23.0683 26.9913 23.7189 27.5308 24.4561 27.9271C23.0524 28.8624 21.4755 29.507 19.8186 29.8229C19.8798 28.9911 19.6919 28.16 19.2789 27.4354C18.866 26.7108 18.2466 26.1255 17.4998 25.7542C17.13 25.5881 16.7439 25.461 16.3478 25.375C16.0642 25.3096 15.7862 25.2219 15.5165 25.1125C15.0177 24.8284 14.5693 24.4638 14.1894 24.0333C13.722 23.5451 13.1982 23.1143 12.629 22.75C11.513 22.1384 10.2245 21.9176 8.96859 22.1229C8.00317 22.2542 7.05467 22.4888 6.13943 22.8229C5.50377 21.4889 5.11352 20.0514 4.98734 18.5792C7.12259 18.6782 9.21322 17.9464 10.8207 16.5375C11.3701 15.9886 11.859 15.3824 12.279 14.7292C12.4978 14.4083 12.7165 14.0875 12.9498 13.7812C14.1887 12.3951 15.6717 11.2483 17.3248 10.3979L17.4707 10.3104C18.3359 9.83637 19.1433 9.26381 19.8769 8.60416C20.6889 7.81023 21.2515 6.79655 21.4957 5.68749C22.6669 6.05792 23.7774 6.59841 24.7915 7.29166C23.9718 7.95398 23.2062 8.68059 22.5019 9.46457C21.5597 10.4173 20.9684 11.6615 20.8248 12.9937C20.7551 13.7607 20.9272 14.5303 21.3169 15.1945C21.7065 15.8588 22.2943 16.3845 22.9978 16.6979Z" fill="#9989D8"/>
</svg>
