<svg width="35" height="35" viewBox="0 0 35 35" fill="none" xmlns="http://www.w3.org/2000/svg">
<path d="M26.2502 17.5C25.4481 17.5 24.7918 18.1562 24.7918 18.9583V21.875H21.8752C21.0731 21.875 20.4168 22.5312 20.4168 23.3333C20.4168 24.1354 21.0731 24.7917 21.8752 24.7917H26.2502C27.0522 24.7917 27.7085 24.1354 27.7085 23.3333V18.9583C27.7085 18.1562 27.0522 17.5 26.2502 17.5ZM10.2085 13.125H13.1252C13.9272 13.125 14.5835 12.4688 14.5835 11.6667C14.5835 10.8646 13.9272 10.2083 13.1252 10.2083H8.75016C7.94808 10.2083 7.29183 10.8646 7.29183 11.6667V16.0417C7.29183 16.8438 7.94808 17.5 8.75016 17.5C9.55225 17.5 10.2085 16.8438 10.2085 16.0417V13.125ZM30.6252 4.375H4.37516C2.771 4.375 1.4585 5.6875 1.4585 7.29167V27.7083C1.4585 29.3125 2.771 30.625 4.37516 30.625H30.6252C32.2293 30.625 33.5418 29.3125 33.5418 27.7083V7.29167C33.5418 5.6875 32.2293 4.375 30.6252 4.375ZM29.1668 27.7229H5.8335C5.03141 27.7229 4.37516 27.0667 4.37516 26.2646V8.73542C4.37516 7.93333 5.03141 7.27708 5.8335 7.27708H29.1668C29.9689 7.27708 30.6252 7.93333 30.6252 8.73542V26.2646C30.6252 27.0667 29.9689 27.7229 29.1668 27.7229Z" fill="#7CBCE3"/>
</svg>
