<svg width="35" height="35" viewBox="0 0 35 35" fill="none" xmlns="http://www.w3.org/2000/svg">
<path d="M7.29183 10.2083H27.7085C28.5106 10.2083 29.1668 10.8646 29.1668 11.6666C29.1668 12.4687 28.5106 13.125 27.7085 13.125H7.29183C6.48975 13.125 5.8335 12.4687 5.8335 11.6666C5.8335 10.8646 6.48975 10.2083 7.29183 10.2083Z" fill="#9989D8"/>
<path d="M7.29183 18.9584H27.7085C28.5106 18.9584 29.1668 18.3021 29.1668 17.5C29.1668 16.6979 28.5106 16.0417 27.7085 16.0417H7.29183C6.48975 16.0417 5.8335 16.6979 5.8335 17.5C5.8335 18.3021 6.48975 18.9584 7.29183 18.9584Z" fill="#9989D8"/>
<path d="M7.29183 24.7917H14.5835C15.3856 24.7917 16.0418 24.1354 16.0418 23.3333C16.0418 22.5312 15.3856 21.875 14.5835 21.875H7.29183C6.48975 21.875 5.8335 22.5312 5.8335 23.3333C5.8335 24.1354 6.48975 24.7917 7.29183 24.7917Z" fill="#9989D8"/>
<path d="M7.29183 30.625H14.5835C15.3856 30.625 16.0418 29.9687 16.0418 29.1666C16.0418 28.3646 15.3856 27.7083 14.5835 27.7083H7.29183C6.48975 27.7083 5.8335 28.3646 5.8335 29.1666C5.8335 29.9687 6.48975 30.625 7.29183 30.625Z" fill="#9989D8"/>
<path d="M22.4733 26.4979L21.4379 25.4625C20.8691 24.8937 19.9504 24.8937 19.3816 25.4625C18.8129 26.0312 18.8129 26.95 19.3816 27.5187L21.4525 29.5896C22.0212 30.1583 22.94 30.1583 23.5087 29.5896L28.1316 24.9666C28.7004 24.3979 28.7004 23.4791 28.1316 22.9104C27.5629 22.3416 26.6441 22.3416 26.0754 22.9104L22.4733 26.4979Z" fill="#9989D8"/>
<path d="M5.8335 5.83333C5.8335 6.63542 6.48975 7.29167 7.29183 7.29167H27.7085C28.5106 7.29167 29.1668 6.63542 29.1668 5.83333C29.1668 5.03125 28.5106 4.375 27.7085 4.375H7.29183C6.48975 4.375 5.8335 5.03125 5.8335 5.83333Z" fill="#9989D8"/>
</svg>
