<svg width="35" height="35" viewBox="0 0 35 35" fill="none" xmlns="http://www.w3.org/2000/svg">
<path d="M16.0415 4.6375V30.3625C16.0415 31.2958 15.1811 31.9958 14.2769 31.7917C7.75817 30.3333 2.9165 24.4854 2.9165 17.5C2.9165 10.5146 7.75817 4.66667 14.2769 3.20834C15.1811 3.00417 16.0415 3.70417 16.0415 4.6375ZM19.0019 4.6375V14.5688C19.0019 15.3708 19.6582 16.0271 20.4603 16.0271H30.3623C31.2957 16.0271 31.9957 15.1667 31.7915 14.2479C30.5519 8.76459 26.2498 4.44792 20.7811 3.20834C19.8623 3.00417 19.0019 3.70417 19.0019 4.6375ZM19.0019 20.4313V30.3625C19.0019 31.2958 19.8623 31.9958 20.7811 31.7917C26.2644 30.5521 30.5665 26.2208 31.8061 20.7375C32.0103 19.8333 31.2957 18.9583 30.3769 18.9583H20.4748C19.6582 18.9729 19.0019 19.6292 19.0019 20.4313Z" fill="#D2A386"/>
</svg>
