<svg width="35" height="35" viewBox="0 0 35 35" fill="none" xmlns="http://www.w3.org/2000/svg">
<path d="M30.6252 4.375H4.37516C2.771 4.375 1.4585 5.6875 1.4585 7.29167V24.7917C1.4585 26.3958 2.771 27.7083 4.37516 27.7083H11.6668V29.1667C11.6668 29.9688 12.3231 30.625 13.1252 30.625H21.8752C22.6772 30.625 23.3335 29.9688 23.3335 29.1667V27.7083H30.6252C32.2293 27.7083 33.5418 26.3958 33.5418 24.7917V7.29167C33.5418 5.6875 32.2293 4.375 30.6252 4.375ZM29.1668 24.7917H5.8335C5.03141 24.7917 4.37516 24.1354 4.37516 23.3333V8.75C4.37516 7.94792 5.03141 7.29167 5.8335 7.29167H29.1668C29.9689 7.29167 30.6252 7.94792 30.6252 8.75V23.3333C30.6252 24.1354 29.9689 24.7917 29.1668 24.7917ZM26.2502 11.6667H13.1252C12.3231 11.6667 11.6668 12.3229 11.6668 13.125C11.6668 13.9271 12.3231 14.5833 13.1252 14.5833H26.2502C27.0522 14.5833 27.7085 13.9271 27.7085 13.125C27.7085 12.3229 27.0522 11.6667 26.2502 11.6667ZM26.2502 17.5H13.1252C12.3231 17.5 11.6668 18.1562 11.6668 18.9583C11.6668 19.7604 12.3231 20.4167 13.1252 20.4167H26.2502C27.0522 20.4167 27.7085 19.7604 27.7085 18.9583C27.7085 18.1562 27.0522 17.5 26.2502 17.5ZM10.2085 11.6667H7.29183V14.5833H10.2085V11.6667ZM10.2085 17.5H7.29183V20.4167H10.2085V17.5Z" fill="#D2A386"/>
</svg>
