<svg width="35" height="35" viewBox="0 0 35 35" fill="none" xmlns="http://www.w3.org/2000/svg">
<path d="M30.6252 5.83331H4.37516C2.771 5.83331 1.4585 7.14581 1.4585 8.74998V27.7083C1.4585 29.3125 2.771 30.625 4.37516 30.625H30.6252C32.2293 30.625 33.5418 29.3125 33.5418 27.7083V8.74998C33.5418 7.14581 32.2293 5.83331 30.6252 5.83331ZM30.6252 26.25C30.6252 27.0521 29.9689 27.7083 29.1668 27.7083H17.5002V8.74998H29.1668C29.9689 8.74998 30.6252 9.40623 30.6252 10.2083V26.25ZM28.0731 13.8541H20.0522C19.4543 13.8541 18.9585 14.35 18.9585 14.9479C18.9585 15.5458 19.4543 16.0416 20.0522 16.0416H28.0731C28.671 16.0416 29.1668 15.5458 29.1668 14.9479C29.1668 14.35 28.671 13.8541 28.0731 13.8541ZM28.0731 17.5H20.0522C19.4543 17.5 18.9585 17.9958 18.9585 18.5937C18.9585 19.1916 19.4543 19.6875 20.0522 19.6875H28.0731C28.671 19.6875 29.1668 19.1916 29.1668 18.5937C29.1668 17.9958 28.671 17.5 28.0731 17.5ZM28.0731 21.1458H20.0522C19.4543 21.1458 18.9585 21.6416 18.9585 22.2396C18.9585 22.8375 19.4543 23.3333 20.0522 23.3333H28.0731C28.671 23.3333 29.1668 22.8375 29.1668 22.2396C29.1668 21.6416 28.671 21.1458 28.0731 21.1458Z" fill="#7CBCE3"/>
</svg>
