<svg width="35" height="35" viewBox="0 0 35 35" fill="none" xmlns="http://www.w3.org/2000/svg">
<path d="M26.2499 18.9583H18.8708C18.3749 23.4792 15.5749 27.3 11.6666 29.2396C11.6228 31.8792 9.24576 33.95 6.48951 33.4688C4.73951 33.1625 3.29576 31.7188 2.98951 29.9688C2.49368 27.1979 4.60826 24.7917 7.29159 24.7917C8.67701 24.7917 9.88742 25.4479 10.6895 26.4542C13.4603 24.9521 15.4437 22.2104 15.9103 18.9583H11.3895C10.6895 20.9125 8.67701 22.225 6.40201 21.7875C4.68117 21.4521 3.29576 20.0375 2.97493 18.3167C2.47909 15.5458 4.60826 13.125 7.29159 13.125C9.18743 13.125 10.7916 14.35 11.4041 16.0417H15.9249C15.4583 12.7896 13.4603 10.0625 10.6895 8.54584C9.75618 9.71251 8.25409 10.4125 6.59159 10.15C4.79784 9.87293 3.29576 8.41459 2.98951 6.62084C2.50826 3.86459 4.62284 1.45834 7.29159 1.45834C9.68326 1.45834 11.6083 3.36876 11.652 5.76043C15.5603 7.70001 18.3603 11.5208 18.8562 16.0417H26.2499V13.4313C26.2499 12.775 27.0374 12.4542 27.4895 12.9208L31.5583 16.9896C31.8499 17.2813 31.8499 17.7333 31.5583 18.025L27.4895 22.0938C27.0374 22.5458 26.2499 22.225 26.2499 21.5688V18.9583Z" fill="#D2A386"/>
</svg>
