<svg width="35" height="35" viewBox="0 0 35 35" fill="none" xmlns="http://www.w3.org/2000/svg">
<path d="M27.7083 2.91667H21.6125C21 1.225 19.3958 0 17.5 0C15.6042 0 14 1.225 13.3875 2.91667H7.29167C5.6875 2.91667 4.375 4.22917 4.375 5.83333V29.1667C4.375 30.7708 5.6875 32.0833 7.29167 32.0833H27.7083C29.3125 32.0833 30.625 30.7708 30.625 29.1667V5.83333C30.625 4.22917 29.3125 2.91667 27.7083 2.91667ZM17.5 2.91667C18.3021 2.91667 18.9583 3.57292 18.9583 4.375C18.9583 5.17708 18.3021 5.83333 17.5 5.83333C16.6979 5.83333 16.0417 5.17708 16.0417 4.375C16.0417 3.57292 16.6979 2.91667 17.5 2.91667ZM26.25 29.1667H8.75C7.94792 29.1667 7.29167 28.5104 7.29167 27.7083V7.29167C7.29167 6.48958 7.94792 5.83333 8.75 5.83333H10.2083V7.29167C10.2083 8.89583 11.5208 10.2083 13.125 10.2083H21.875C23.4792 10.2083 24.7917 8.89583 24.7917 7.29167V5.83333H26.25C27.0521 5.83333 27.7083 6.48958 27.7083 7.29167V27.7083C27.7083 28.5104 27.0521 29.1667 26.25 29.1667Z" fill="#7CBCE3"/>
</svg>
