<svg width="35" height="35" viewBox="0 0 35 35" fill="none" xmlns="http://www.w3.org/2000/svg">
<path d="M30.6252 4.375H4.37516C2.771 4.375 1.4585 5.6875 1.4585 7.29167V24.7917C1.4585 26.3958 2.771 27.7083 4.37516 27.7083H11.6668V29.1667C11.6668 29.9688 12.3231 30.625 13.1252 30.625H21.8752C22.6772 30.625 23.3335 29.9688 23.3335 29.1667V27.7083H30.6252C32.2293 27.7083 33.5272 26.3958 33.5272 24.7917L33.5418 7.29167C33.5418 5.67292 32.2293 4.375 30.6252 4.375ZM29.1668 24.7917H5.8335C5.03141 24.7917 4.37516 24.1354 4.37516 23.3333V8.75C4.37516 7.94792 5.03141 7.29167 5.8335 7.29167H29.1668C29.9689 7.29167 30.6252 7.94792 30.6252 8.75V23.3333C30.6252 24.1354 29.9689 24.7917 29.1668 24.7917ZM21.1168 17.3104L15.3127 20.6354C14.3356 21.1896 13.1252 20.475 13.1252 19.3667V12.7167C13.1252 11.5938 14.3356 10.8938 15.3127 11.4479L21.1168 14.7729C22.0939 15.3417 22.0939 16.7417 21.1168 17.3104Z" fill="#FF8A8A"/>
</svg>
