<svg width="35" height="35" viewBox="0 0 35 35" fill="none" xmlns="http://www.w3.org/2000/svg">
<path d="M5.83333 18.9583C6.63542 18.9583 7.29167 18.3021 7.29167 17.5C7.29167 16.6979 6.63542 16.0416 5.83333 16.0416C5.03125 16.0416 4.375 16.6979 4.375 17.5C4.375 18.3021 5.03125 18.9583 5.83333 18.9583ZM5.83333 24.7916C6.63542 24.7916 7.29167 24.1354 7.29167 23.3333C7.29167 22.5312 6.63542 21.875 5.83333 21.875C5.03125 21.875 4.375 22.5312 4.375 23.3333C4.375 24.1354 5.03125 24.7916 5.83333 24.7916ZM5.83333 13.125C6.63542 13.125 7.29167 12.4687 7.29167 11.6666C7.29167 10.8646 6.63542 10.2083 5.83333 10.2083C5.03125 10.2083 4.375 10.8646 4.375 11.6666C4.375 12.4687 5.03125 13.125 5.83333 13.125ZM11.6667 18.9583H29.1667C29.9688 18.9583 30.625 18.3021 30.625 17.5C30.625 16.6979 29.9688 16.0416 29.1667 16.0416H11.6667C10.8646 16.0416 10.2083 16.6979 10.2083 17.5C10.2083 18.3021 10.8646 18.9583 11.6667 18.9583ZM11.6667 24.7916H29.1667C29.9688 24.7916 30.625 24.1354 30.625 23.3333C30.625 22.5312 29.9688 21.875 29.1667 21.875H11.6667C10.8646 21.875 10.2083 22.5312 10.2083 23.3333C10.2083 24.1354 10.8646 24.7916 11.6667 24.7916ZM10.2083 11.6666C10.2083 12.4687 10.8646 13.125 11.6667 13.125H29.1667C29.9688 13.125 30.625 12.4687 30.625 11.6666C30.625 10.8646 29.9688 10.2083 29.1667 10.2083H11.6667C10.8646 10.2083 10.2083 10.8646 10.2083 11.6666ZM5.83333 18.9583C6.63542 18.9583 7.29167 18.3021 7.29167 17.5C7.29167 16.6979 6.63542 16.0416 5.83333 16.0416C5.03125 16.0416 4.375 16.6979 4.375 17.5C4.375 18.3021 5.03125 18.9583 5.83333 18.9583ZM5.83333 24.7916C6.63542 24.7916 7.29167 24.1354 7.29167 23.3333C7.29167 22.5312 6.63542 21.875 5.83333 21.875C5.03125 21.875 4.375 22.5312 4.375 23.3333C4.375 24.1354 5.03125 24.7916 5.83333 24.7916ZM5.83333 13.125C6.63542 13.125 7.29167 12.4687 7.29167 11.6666C7.29167 10.8646 6.63542 10.2083 5.83333 10.2083C5.03125 10.2083 4.375 10.8646 4.375 11.6666C4.375 12.4687 5.03125 13.125 5.83333 13.125ZM11.6667 18.9583H29.1667C29.9688 18.9583 30.625 18.3021 30.625 17.5C30.625 16.6979 29.9688 16.0416 29.1667 16.0416H11.6667C10.8646 16.0416 10.2083 16.6979 10.2083 17.5C10.2083 18.3021 10.8646 18.9583 11.6667 18.9583ZM11.6667 24.7916H29.1667C29.9688 24.7916 30.625 24.1354 30.625 23.3333C30.625 22.5312 29.9688 21.875 29.1667 21.875H11.6667C10.8646 21.875 10.2083 22.5312 10.2083 23.3333C10.2083 24.1354 10.8646 24.7916 11.6667 24.7916ZM10.2083 11.6666C10.2083 12.4687 10.8646 13.125 11.6667 13.125H29.1667C29.9688 13.125 30.625 12.4687 30.625 11.6666C30.625 10.8646 29.9688 10.2083 29.1667 10.2083H11.6667C10.8646 10.2083 10.2083 10.8646 10.2083 11.6666Z" fill="#79D8A5"/>
</svg>
