<svg width="65" height="64" viewBox="0 0 65 64" fill="none" xmlns="http://www.w3.org/2000/svg">
<path d="M52.0338 63.9994C49.2452 63.9994 45.328 62.9909 39.4623 59.7137C32.3293 55.7136 26.8121 52.0207 19.7177 44.9449C12.8777 38.1091 9.54904 33.6834 4.89041 25.2061C-0.372507 15.6346 0.524647 10.6174 1.52752 8.47306C2.72182 5.91017 4.48469 4.3773 6.76329 2.85585C8.05752 2.00789 9.42714 1.281 10.8548 0.684397C10.9976 0.622968 11.1305 0.564396 11.2491 0.511538C11.9562 0.192963 13.0277 -0.288472 14.3848 0.22582C15.2905 0.565824 16.0991 1.26155 17.3649 2.51156C19.9606 5.07159 23.5078 10.7731 24.8164 13.5731C25.6949 15.4603 26.2764 16.706 26.2778 18.1032C26.2778 19.7389 25.4549 21.0004 24.4564 22.3618C24.2692 22.6175 24.0835 22.8618 23.9035 23.099C22.8163 24.5275 22.5778 24.9404 22.7349 25.6776C23.0535 27.159 25.4292 31.5691 29.3336 35.4648C33.2379 39.3606 37.5208 41.5863 39.008 41.9035C39.7765 42.0678 40.198 41.8192 41.6723 40.6934C41.8837 40.532 42.1009 40.3649 42.328 40.1977C43.8509 39.0649 45.0538 38.2634 46.6509 38.2634H46.6595C48.0495 38.2634 49.2395 38.8663 51.211 39.8606C53.7824 41.1577 59.6554 44.6592 62.2311 47.2578C63.484 48.5207 64.1826 49.3264 64.524 50.2307C65.0383 51.5922 64.554 52.6593 64.2383 53.3736C64.1854 53.4922 64.1268 53.6222 64.0654 53.7665C63.4641 55.1916 62.7329 56.5583 61.8811 57.8494C60.3625 60.1208 58.8239 61.8794 56.2553 63.0751C54.9363 63.699 53.4928 64.0151 52.0338 63.9994Z" fill="black"/>
</svg>
