<svg width="136" height="136" viewBox="0 0 136 136" fill="none" xmlns="http://www.w3.org/2000/svg">
<circle opacity="0.1" cx="68" cy="68" r="68" fill="#1DA1F2"/>
<path fill-rule="evenodd" clip-rule="evenodd" d="M34 92.5763H42.1163V38.2656C42.1163 37.7914 42.5078 37.3999 42.982 37.3999H70.4737C70.9479 37.3999 71.3393 37.7914 71.3393 38.2656V58.628H95.6662C96.1403 58.628 96.5318 59.0195 96.5318 59.4936V92.5708H101.753V99.7332H34V92.5763ZM49.0637 45.5713H54.6877C54.8586 45.5713 55.002 45.7147 55.002 45.8856V52.7007C55.002 52.8716 54.8586 53.0149 54.6877 53.0149H49.0637C48.8927 53.0149 48.7494 52.8716 48.7494 52.7007V45.8856C48.7494 45.7147 48.8927 45.5713 49.0637 45.5713ZM58.5915 79.4701H64.2155C64.3865 79.4701 64.5298 79.6134 64.5298 79.7844V86.5994C64.5298 86.7703 64.3865 86.9137 64.2155 86.9137H58.5915C58.4205 86.9137 58.2772 86.7703 58.2772 86.5994V79.7844C58.2772 79.6079 58.4205 79.4701 58.5915 79.4701ZM49.0637 79.4701H54.6877C54.8586 79.4701 55.002 79.6134 55.002 79.7844V86.5994C55.002 86.7703 54.8586 86.9137 54.6877 86.9137H49.0637C48.8927 86.9137 48.7494 86.7703 48.7494 86.5994V79.7844C48.7494 79.6079 48.8927 79.4701 49.0637 79.4701ZM58.5915 68.1668H64.2155C64.3865 68.1668 64.5298 68.3102 64.5298 68.4811V75.2961C64.5298 75.4671 64.3865 75.6104 64.2155 75.6104H58.5915C58.4205 75.6104 58.2772 75.4671 58.2772 75.2961V68.4866C58.2772 68.3102 58.4205 68.1668 58.5915 68.1668ZM49.0637 68.1668H54.6877C54.8586 68.1668 55.002 68.3102 55.002 68.4811V75.2961C55.002 75.4671 54.8586 75.6104 54.6877 75.6104H49.0637C48.8927 75.6104 48.7494 75.4671 48.7494 75.2961V68.4866C48.7494 68.3102 48.8927 68.1668 49.0637 68.1668ZM58.5915 56.8691H64.2155C64.3865 56.8691 64.5298 57.0124 64.5298 57.1834V63.9984C64.5298 64.1693 64.3865 64.3127 64.2155 64.3127H58.5915C58.4205 64.3127 58.2772 64.1693 58.2772 63.9984V57.1834C58.2772 57.0124 58.4205 56.8691 58.5915 56.8691ZM49.0637 56.8691H54.6877C54.8586 56.8691 55.002 57.0124 55.002 57.1834V63.9984C55.002 64.1693 54.8586 64.3127 54.6877 64.3127H49.0637C48.8927 64.3127 48.7494 64.1693 48.7494 63.9984V57.1834C48.7494 57.0124 48.8927 56.8691 49.0637 56.8691ZM58.5915 45.5713H64.2155C64.3865 45.5713 64.5298 45.7147 64.5298 45.8856V52.7007C64.5298 52.8716 64.3865 53.0149 64.2155 53.0149H58.5915C58.4205 53.0149 58.2772 52.8716 58.2772 52.7007V45.8856C58.2772 45.7147 58.4205 45.5713 58.5915 45.5713ZM46.7754 41.436H66.581C66.9228 41.436 67.204 41.7723 67.204 42.1804V89.5272C67.204 89.9352 66.9228 90.2716 66.581 90.2716H46.7754C46.4336 90.2716 46.1524 89.9352 46.1524 89.5272V42.1804C46.1524 41.7723 46.4336 41.436 46.7754 41.436ZM74.0356 66.8601H79.6596C79.8306 66.8601 79.9739 67.0034 79.9739 67.1743V73.9894C79.9739 74.1603 79.8306 74.3037 79.6596 74.3037H74.0356C73.8647 74.3037 73.7213 74.1603 73.7213 73.9894V67.1743C73.7213 67.0034 73.8647 66.8601 74.0356 66.8601ZM83.5634 79.4701H89.1875C89.3584 79.4701 89.5018 79.6134 89.5018 79.7844V86.5994C89.5018 86.7703 89.3584 86.9137 89.1875 86.9137H83.5634C83.3925 86.9137 83.2491 86.7703 83.2491 86.5994V79.7844C83.2491 79.6079 83.3925 79.4701 83.5634 79.4701ZM74.0356 79.4701H79.6596C79.8306 79.4701 79.9739 79.6134 79.9739 79.7844V86.5994C79.9739 86.7703 79.8306 86.9137 79.6596 86.9137H74.0356C73.8647 86.9137 73.7213 86.7703 73.7213 86.5994V79.7844C73.7213 79.6079 73.8647 79.4701 74.0356 79.4701ZM83.5634 66.8601H89.1875C89.3584 66.8601 89.5018 67.0034 89.5018 67.1743V73.9894C89.5018 74.1603 89.3584 74.3037 89.1875 74.3037H83.5634C83.3925 74.3037 83.2491 74.1603 83.2491 73.9894V67.1743C83.2491 67.0034 83.3925 66.8601 83.5634 66.8601ZM71.9679 62.6641H91.7734C92.1153 62.6641 92.3965 63.0004 92.3965 63.4084V89.5272C92.3965 89.9352 92.1153 90.2716 91.7734 90.2716H71.9679C71.6261 90.2716 71.3449 89.9352 71.3449 89.5272V63.4084C71.3449 63.0004 71.6261 62.6641 71.9679 62.6641Z" fill="#1DA1F2"/>
</svg>
