<svg width="136" height="136" viewBox="0 0 136 136" fill="none" xmlns="http://www.w3.org/2000/svg">
<circle opacity="0.1" cx="68" cy="68" r="68" fill="#1DA1F2"/>
<path fill-rule="evenodd" clip-rule="evenodd" d="M64.1437 55.5781L46.7053 73.0165L47.5627 74.4459L51.5647 70.7296C54.1373 67.8708 58.7113 70.7296 58.1398 74.4459C60.7124 73.8743 63.2853 76.4469 62.7138 79.3057C65.5726 78.7341 68.1452 81.3067 67.5736 84.1655C71.004 83.3081 73.8629 87.3101 71.8614 90.1685L74.1482 92.1696C76.1493 94.4564 79.8655 90.7402 77.8644 88.4534L71.0036 81.8783C70.432 81.3067 71.5752 80.1631 72.1472 81.0209L78.7222 87.596C81.0091 89.597 84.7253 85.8808 82.4384 83.8798L75.8634 77.0189C75.2918 76.4473 76.435 75.3037 77.007 76.1615L83.582 82.7366C85.8689 84.7376 89.5851 81.0214 87.2982 79.0204L85.0114 76.4477L71.8615 63.5835L67.2875 68.1575C64.1428 71.5879 58.1398 65.5849 61.5702 62.4402L66.1442 57.5804L64.1431 55.5794L64.1437 55.5781ZM67.2883 95.0279L69.2894 97.029C71.2904 99.3158 75.0066 95.5996 73.0056 93.3127L71.0045 91.3117L67.2883 95.0279Z" fill="#1DA1F2"/>
<path fill-rule="evenodd" clip-rule="evenodd" d="M59.2839 93.5982L66.7163 85.88C69.0031 83.8789 72.7194 87.5951 70.4325 89.5962L63.0001 97.3144C60.7132 99.6012 56.997 95.5992 59.2839 93.5982Z" fill="#1DA1F2"/>
<path fill-rule="evenodd" clip-rule="evenodd" d="M54.4251 88.7384C56.9978 86.1657 59.5707 83.5928 62.1434 81.3059C64.1444 79.0191 67.8606 82.7353 65.8596 85.0221C63.287 87.309 60.714 89.8819 58.1414 92.4546C56.1403 94.7414 52.4241 91.0252 54.4251 88.7384V88.7384Z" fill="#1DA1F2"/>
<path fill-rule="evenodd" clip-rule="evenodd" d="M49.5653 83.8787C52.138 81.3061 54.7109 79.0189 57.2836 76.4463C59.2846 74.1595 63.0008 77.8757 60.9998 80.1625C58.4272 82.7352 55.8542 85.0223 53.2816 87.595C51.2805 89.8818 47.5643 86.1656 49.5653 83.8787Z" fill="#1DA1F2"/>
<path fill-rule="evenodd" clip-rule="evenodd" d="M44.9912 79.0201L52.4236 71.5877C54.7105 69.3008 58.4267 73.017 56.1399 75.3039L48.7074 82.7363C46.4206 85.0232 42.7044 81.3069 44.9912 79.0201V79.0201Z" fill="#1DA1F2"/>
<path fill-rule="evenodd" clip-rule="evenodd" d="M75.5795 54.4354C79.8673 59.0094 85.585 64.7267 90.1589 69.3005L85.0133 74.4461L71.8634 61.5818L66.1461 67.0132C64.431 69.0142 60.7148 65.298 62.4299 63.297L68.1472 57.5797C72.7212 55.8645 75.5796 54.4351 75.5796 54.4351L75.5795 54.4354Z" fill="#1DA1F2"/>
<path fill-rule="evenodd" clip-rule="evenodd" d="M30.1453 61.0571L51.316 39.8864C51.5584 39.644 52.081 39.7735 52.3455 40.038L63.9776 51.6701C64.3039 51.9964 64.3716 52.4572 64.1292 52.6996L42.9585 73.8703C42.7162 74.1126 42.1936 73.9832 41.9291 73.7187L30.2969 62.0865C29.9707 61.7603 29.9029 61.2994 30.1453 61.0571V61.0571Z" fill="#1DA1F2"/>
<path fill-rule="evenodd" clip-rule="evenodd" d="M93.634 70.2632L74.3071 50.9363C74.0856 50.7148 74.2325 50.2096 74.497 49.9452L86.1292 38.313C86.4554 37.9868 86.8992 37.902 87.1203 38.1231L106.447 57.45C106.669 57.6714 106.522 58.1766 106.257 58.4411L94.6251 70.0732C94.2988 70.3995 93.855 70.4842 93.634 70.2632Z" fill="#1DA1F2"/>
</svg>
