<svg width="136" height="136" viewBox="0 0 136 136" fill="none" xmlns="http://www.w3.org/2000/svg">
<circle opacity="0.1" cx="68" cy="68" r="68" fill="#1DA1F2"/>
<path fill-rule="evenodd" clip-rule="evenodd" d="M53.5056 42.3259C60.4431 33.7538 68.4387 29.0916 74.4424 36.7173C81.3422 37.0788 84.3001 47.5521 79.5541 52.7169C79.8947 52.7127 80.2143 52.7825 80.4921 52.9346C80.8551 53.1328 81.13 53.4539 81.2682 53.9089C81.4064 54.357 81.4064 54.9377 81.211 55.6594L81.1873 55.7306C81.1007 55.986 81.0254 56.3098 80.9486 56.6435C80.6303 58.0226 80.28 59.5385 78.7082 59.4548C78.6244 59.4492 78.5421 59.4408 78.4583 59.4268C78.4011 62.2772 77.008 63.5894 75.1864 65.3021C75.6749 66.0154 76.1649 66.7343 76.7526 67.3987L76.754 67.3959C79.8361 70.1709 87.78 70.7265 91.1734 72.6207C92.2468 73.2181 93.217 73.9803 93.9973 75.0105C94.1103 75.1584 94.2164 75.3078 94.3183 75.4571C94.2429 75.4515 94.1718 75.4488 94.1075 75.4488H42.1361C42.2352 75.3022 42.3399 75.1556 42.4502 75.0105C43.2305 73.9803 44.2006 73.2181 45.2741 72.6207C48.5614 70.7865 56.0391 70.2072 59.3836 67.6542C59.5916 67.2982 59.808 66.8487 60.0174 66.3727C60.2882 65.753 60.5422 65.0955 60.7516 64.5246C59.4255 63.2962 58.4065 61.9687 58.1762 59.4366L58.0185 59.4394C57.6499 59.4338 57.2968 59.3501 56.966 59.1616C56.2331 58.7457 55.8339 57.9514 55.6413 57.0455C55.3942 55.8939 55.4766 54.5287 55.5952 53.6661C55.6036 53.606 55.6189 53.5502 55.6413 53.4971C55.8967 52.7811 56.2192 52.3944 56.6226 52.2297C56.4397 48.8084 57.0176 43.3882 53.5056 42.3259V42.3259ZM41.8988 77.1852H94.1075C95.435 77.1852 96.5182 78.4304 96.3144 79.9491L93.4291 101.503C93.2309 103.009 92.1854 104.267 90.6653 104.267H45.3411C43.821 104.267 42.7782 103.009 42.5772 101.503L39.6906 79.9491C39.4909 78.429 40.57 77.1852 41.8988 77.1852ZM67.7505 87.1644C69.5805 87.1644 71.0658 88.6482 71.0658 90.4782C71.0658 92.3096 69.5805 93.7934 67.7505 93.7934C65.9205 93.7934 64.4367 92.3096 64.4367 90.4782C64.4367 88.6482 65.9205 87.1644 67.7505 87.1644ZM74.3168 66.1257C72.5133 67.8049 70.5493 68.6215 68.5546 68.6215C66.4649 68.6229 64.3739 67.7295 62.4294 65.9987L61.7455 65.4012L61.6994 65.3621C61.5193 65.8423 61.3141 66.356 61.1006 66.8446C60.8074 67.5104 60.4948 68.1371 60.1918 68.5908C63.4666 75.2296 73.1456 75.4613 76.2835 68.6285C75.4949 67.83 74.8988 66.9772 74.3168 66.1257V66.1257ZM73.5169 43.1341C71.934 44.7296 70.2589 45.1889 68.6174 45.3326C68.133 45.4178 67.6612 45.4764 67.1908 45.5351C65.6162 45.7291 64.0445 45.9231 61.9646 47.3637C60.9819 48.0421 60.3272 48.8642 59.988 49.8204C59.6405 50.8059 59.6167 51.9561 59.9043 53.264C59.9307 53.3846 59.9242 53.5101 59.8855 53.6274C59.8468 53.7446 59.7773 53.8493 59.6843 53.9305C59.5912 54.0116 59.4781 54.0663 59.3567 54.0888C59.2353 54.1113 59.1101 54.1008 58.9942 54.0583L58.1971 53.7666C57.5494 53.5404 57.1432 53.465 56.9492 53.9271C56.8501 54.6836 56.7873 55.8241 56.9869 56.7593C57.1056 57.3135 57.3094 57.7755 57.6444 57.9668C57.763 58.0338 57.8942 58.0645 58.0338 58.0659C58.2097 58.0687 58.4065 58.0296 58.6159 57.9654C58.6759 57.9472 58.7373 57.9374 58.8016 57.936C59.1812 57.9277 59.4967 58.2278 59.5051 58.6061C59.5805 61.7231 60.9624 62.9138 62.6444 64.3613L63.3451 64.9699C65.0342 66.4733 66.8125 67.2494 68.5546 67.2494C70.2492 67.248 71.9424 66.5081 73.5225 64.9838L74.2344 64.3082C75.9988 62.6513 77.2984 61.4299 77.0485 58.4553C77.0387 58.3074 77.0736 58.1552 77.1616 58.0226C77.2615 57.8704 77.4178 57.7642 77.5961 57.7273C77.7744 57.6904 77.96 57.7258 78.1122 57.8258C78.2266 57.9012 78.3411 57.9626 78.4541 58.0058L78.4835 58.0156C78.5867 58.0533 78.6873 58.0756 78.7794 58.0812C79.1995 58.1036 79.4131 57.1781 79.6071 56.3364C79.6937 55.9637 79.7774 55.6007 79.8863 55.2853C80.005 54.8358 80.0175 54.5189 79.9547 54.3123C79.9282 54.2258 79.8863 54.1686 79.8347 54.1407C79.7523 54.096 79.6295 54.082 79.4829 54.096C79.1325 54.1281 78.711 54.3137 78.3146 54.6139C78.2397 54.6706 78.154 54.7114 78.0628 54.7338C77.9716 54.7561 77.8767 54.7595 77.7841 54.7437C77.6041 54.7129 77.4437 54.612 77.338 54.4631C77.2323 54.3142 77.1899 54.1295 77.2202 53.9494C77.8693 50.1666 77.5719 47.7015 76.7665 46.0194C76.0602 44.5468 74.9337 43.6534 73.7123 42.9862L73.5169 43.1341V43.1341Z" fill="#1DA1F2"/>
</svg>
