<svg width="136" height="136" viewBox="0 0 136 136" fill="none" xmlns="http://www.w3.org/2000/svg">
<circle opacity="0.1" cx="68" cy="68" r="68" fill="#1DA1F2"/>
<path fill-rule="evenodd" clip-rule="evenodd" d="M46.0372 73.6855C46.1946 72.3988 42.3894 67.5259 41.6913 65.1511C40.1993 62.7831 39.6724 58.9916 41.3012 56.5141C41.9445 55.5217 41.6639 54.6594 41.6639 53.2838C41.6639 39.6644 65.5355 39.6575 65.5355 53.2838C65.5355 55.0084 65.1454 55.4122 66.0762 56.7742C67.6366 59.0326 66.8359 63.0569 65.515 65.158C64.6663 67.6286 60.6763 72.2893 60.9706 73.6923C61.2239 80.68 46.0167 80.4473 46.0577 73.6923L46.0372 73.6855ZM54.7427 85.7787H55.5776C55.9407 85.7787 56.2888 85.6345 56.5455 85.3778C56.8022 85.1211 56.9464 84.7729 56.9464 84.4099V82.1788C56.9464 81.8157 56.8022 81.4676 56.5455 81.2109C56.2888 80.9542 55.9407 80.81 55.5776 80.81H50.6089C50.2459 80.81 49.8978 80.9542 49.6411 81.2109C49.3844 81.4676 49.2402 81.8157 49.2402 82.1788V84.403C49.2402 84.7661 49.3844 85.1142 49.6411 85.3709C49.8978 85.6276 50.2459 85.7718 50.6089 85.7718H51.4576L49.8287 94.0667H56.3099L54.7427 85.7787ZM26.0667 94.0667C26.71 85.7034 25.0743 86.0661 32.0688 83.4449C35.4986 82.1271 38.7848 80.4622 41.8761 78.4762L47.8851 94.0667H26.0667ZM64.5705 77.7644C67.3851 79.6555 70.4303 81.1781 73.6319 82.2951C80.1678 84.4715 80.1336 84.7726 80.1336 94.0667H58.3699L64.5705 77.7644ZM88.6816 87.4007H89.366C89.6589 87.4007 89.9399 87.2848 90.1476 87.0784C90.3553 86.8719 90.4729 86.5917 90.4747 86.2988V84.5125C90.473 84.2191 90.3556 83.9381 90.148 83.7306C89.9405 83.523 89.6595 83.4056 89.366 83.4038H85.3555C85.2093 83.4029 85.0644 83.4309 84.9291 83.4863C84.7938 83.5416 84.6708 83.6231 84.5671 83.7261C84.4634 83.8292 84.3811 83.9517 84.325 84.0867C84.2688 84.2216 84.2399 84.3664 84.2399 84.5125V86.2988C84.2417 86.5905 84.3584 86.8697 84.5647 87.076C84.7709 87.2822 85.0501 87.3989 85.3418 87.4007H86.0262L84.719 94.0667H89.9272L88.668 87.4007H88.6816ZM81.6872 77.6823C81.8104 76.6489 78.7511 72.7136 78.1899 70.8384C76.9922 68.9358 76.5679 65.9039 77.8751 63.8987C78.3952 63.0979 78.1694 62.4067 78.1694 61.298C78.1694 50.3477 97.3324 50.3477 97.3324 61.298C97.3324 62.6668 97.0175 63.009 97.7635 64.104C99.016 65.9245 98.3726 69.1548 97.3118 70.8452C96.6274 72.83 93.4245 76.5736 93.6435 77.6892C93.8488 83.308 81.6256 83.1232 81.6598 77.6892L81.6872 77.6823ZM96.559 80.9674C99.2049 82.4916 102.015 83.7108 104.936 84.6015C110.192 86.3536 110.172 86.5931 110.137 94.0667H91.5972L96.559 80.9674Z" fill="#1DA1F2"/>
</svg>
