<svg width="35" height="35" viewBox="0 0 35 35" fill="none" xmlns="http://www.w3.org/2000/svg">
<path d="M29.1667 2.91663H5.83341C4.22925 2.91663 2.91675 4.22913 2.91675 5.83329V23.3333C2.91675 24.9375 4.22925 26.25 5.83341 26.25H26.2501L32.0834 32.0833V5.83329C32.0834 4.22913 30.7709 2.91663 29.1667 2.91663ZM24.7917 20.4166H10.2084C9.40633 20.4166 8.75008 19.7604 8.75008 18.9583C8.75008 18.1562 9.40633 17.5 10.2084 17.5H24.7917C25.5938 17.5 26.2501 18.1562 26.2501 18.9583C26.2501 19.7604 25.5938 20.4166 24.7917 20.4166ZM24.7917 16.0416H10.2084C9.40633 16.0416 8.75008 15.3854 8.75008 14.5833C8.75008 13.7812 9.40633 13.125 10.2084 13.125H24.7917C25.5938 13.125 26.2501 13.7812 26.2501 14.5833C26.2501 15.3854 25.5938 16.0416 24.7917 16.0416ZM24.7917 11.6666H10.2084C9.40633 11.6666 8.75008 11.0104 8.75008 10.2083C8.75008 9.40621 9.40633 8.74996 10.2084 8.74996H24.7917C25.5938 8.74996 26.2501 9.40621 26.2501 10.2083C26.2501 11.0104 25.5938 11.6666 24.7917 11.6666Z" fill="#D2A386"/>
</svg>
