<svg width="35" height="35" viewBox="0 0 35 35" fill="none" xmlns="http://www.w3.org/2000/svg">
<path d="M29.1667 21.875H5.83333C5.03125 21.875 4.375 22.5313 4.375 23.3334C4.375 24.1355 5.03125 24.7917 5.83333 24.7917H29.1667C29.9688 24.7917 30.625 24.1355 30.625 23.3334C30.625 22.5313 29.9688 21.875 29.1667 21.875ZM29.1667 14.5834H5.83333C5.03125 14.5834 4.375 15.2396 4.375 16.0417V17.5C4.375 18.3021 5.03125 18.9584 5.83333 18.9584H29.1667C29.9688 18.9584 30.625 18.3021 30.625 17.5V16.0417C30.625 15.2396 29.9688 14.5834 29.1667 14.5834ZM29.1667 5.83337H5.83333C5.03125 5.83337 4.375 6.48962 4.375 7.29171V10.2084C4.375 11.0105 5.03125 11.6667 5.83333 11.6667H29.1667C29.9688 11.6667 30.625 11.0105 30.625 10.2084V7.29171C30.625 6.48962 29.9688 5.83337 29.1667 5.83337ZM29.8958 27.7084H5.10417C4.69583 27.7084 4.375 28.0292 4.375 28.4375C4.375 28.8459 4.69583 29.1667 5.10417 29.1667H29.8958C30.3042 29.1667 30.625 28.8459 30.625 28.4375C30.625 28.0292 30.3042 27.7084 29.8958 27.7084Z" fill="#FF8A8A"/>
</svg>
