<svg width="35" height="35" viewBox="0 0 35 35" fill="none" xmlns="http://www.w3.org/2000/svg">
<path d="M16.0417 4.6375V30.3625C16.0417 31.2958 15.1813 31.9958 14.2772 31.7917C7.75841 30.3333 2.91675 24.4854 2.91675 17.5C2.91675 10.5146 7.75841 4.66667 14.2772 3.20834C15.1813 3.00417 16.0417 3.70417 16.0417 4.6375ZM19.0022 4.6375V14.5688C19.0022 15.3708 19.6584 16.0271 20.4605 16.0271H30.3626C31.2959 16.0271 31.9959 15.1667 31.7917 14.2479C30.5522 8.76459 26.2501 4.44792 20.7813 3.20834C19.8626 3.00417 19.0022 3.70417 19.0022 4.6375ZM19.0022 20.4313V30.3625C19.0022 31.2958 19.8626 31.9958 20.7813 31.7917C26.2647 30.5521 30.5667 26.2208 31.8063 20.7375C32.0105 19.8333 31.2959 18.9583 30.3772 18.9583H20.4751C19.6584 18.9729 19.0022 19.6292 19.0022 20.4313Z" fill="#D2A386"/>
</svg>
