<svg width="35" height="35" viewBox="0 0 35 35" fill="none" xmlns="http://www.w3.org/2000/svg">
<path d="M9.47925 30.625H4.37508C3.573 30.625 2.91675 29.9688 2.91675 29.1667V14.5833C2.91675 13.7812 3.573 13.125 4.37508 13.125H9.47925C10.2813 13.125 10.9376 13.7812 10.9376 14.5833V29.1667C10.9376 29.9688 10.2813 30.625 9.47925 30.625ZM20.0522 4.375H14.948C14.1459 4.375 13.4897 5.03125 13.4897 5.83333V29.1667C13.4897 29.9688 14.1459 30.625 14.948 30.625H20.0522C20.8542 30.625 21.5105 29.9688 21.5105 29.1667V5.83333C21.5105 5.03125 20.8542 4.375 20.0522 4.375ZM30.6251 16.0417H25.5209C24.7188 16.0417 24.0626 16.6979 24.0626 17.5V29.1667C24.0626 29.9688 24.7188 30.625 25.5209 30.625H30.6251C31.4272 30.625 32.0834 29.9688 32.0834 29.1667V17.5C32.0834 16.6979 31.4272 16.0417 30.6251 16.0417Z" fill="#79D8A5"/>
</svg>
