<svg width="35" height="35" viewBox="0 0 35 35" fill="none" xmlns="http://www.w3.org/2000/svg">
<path d="M29.1667 8.75004H17.5001L15.4438 6.69379C14.8897 6.13962 14.1459 5.83337 13.373 5.83337H5.83341C4.22925 5.83337 2.93133 7.14587 2.93133 8.75004L2.91675 26.25C2.91675 27.8542 4.22925 29.1667 5.83341 29.1667H29.1667C30.7709 29.1667 32.0834 27.8542 32.0834 26.25V11.6667C32.0834 10.0625 30.7709 8.75004 29.1667 8.75004ZM18.9584 23.3334H10.2084C9.40633 23.3334 8.75008 22.6771 8.75008 21.875C8.75008 21.073 9.40633 20.4167 10.2084 20.4167H18.9584C19.7605 20.4167 20.4167 21.073 20.4167 21.875C20.4167 22.6771 19.7605 23.3334 18.9584 23.3334ZM24.7917 17.5H10.2084C9.40633 17.5 8.75008 16.8438 8.75008 16.0417C8.75008 15.2396 9.40633 14.5834 10.2084 14.5834H24.7917C25.5938 14.5834 26.2501 15.2396 26.2501 16.0417C26.2501 16.8438 25.5938 17.5 24.7917 17.5Z" fill="#67C5D2"/>
</svg>
