<svg width="35" height="35" viewBox="0 0 35 35" fill="none" xmlns="http://www.w3.org/2000/svg">
<path d="M24.573 9.98958L26.673 12.0896L19.5564 19.2063L14.7584 14.4083C14.1897 13.8396 13.2709 13.8396 12.7022 14.4083L3.9522 23.1729C3.38345 23.7417 3.38345 24.6604 3.9522 25.2292C4.52095 25.7979 5.4397 25.7979 6.00845 25.2292L13.723 17.5L18.5209 22.2979C19.0897 22.8667 20.0084 22.8667 20.5772 22.2979L28.7293 14.1604L30.8293 16.2604C31.2814 16.7125 32.0689 16.3917 32.0689 15.75V9.47917C32.0834 9.07083 31.7626 8.75 31.3543 8.75H25.098C24.4418 8.75 24.1209 9.5375 24.573 9.98958Z" fill="#67C5D2"/>
</svg>
