<svg width="35" height="35" viewBox="0 0 35 35" fill="none" xmlns="http://www.w3.org/2000/svg">
<path d="M17.7043 8.95412L13.6355 4.89995C13.3438 4.62287 12.8918 4.62287 12.6001 4.89995L8.53134 8.95412C8.06467 9.4062 8.40009 10.1937 9.04175 10.1937L11.6668 10.1937L11.6668 18.9583C11.6668 19.7604 12.323 20.4166 13.1251 20.4166C13.9272 20.4166 14.5834 19.7604 14.5834 18.9583L14.5834 10.1937L17.1938 10.1937C17.8501 10.1937 18.1709 9.4062 17.7043 8.95412ZM22.3855 30.1145L26.4543 26.0604C26.9209 25.6083 26.5855 24.8208 25.9438 24.8208L23.3334 24.8208L23.3334 16.0416C23.3334 15.2395 22.6772 14.5833 21.8751 14.5833C21.073 14.5833 20.4168 15.2395 20.4168 16.0416L20.4168 24.8062L17.8063 24.8062C17.1501 24.8062 16.8293 25.5937 17.2959 26.0458L21.3647 30.1C21.6418 30.3916 22.1084 30.3916 22.3855 30.1145Z" fill="#67C5D2"/>
</svg>
