<svg width="35" height="35" viewBox="0 0 35 35" fill="none" xmlns="http://www.w3.org/2000/svg">
<path d="M26.2502 4.37504H21.6127C21.0002 2.68337 19.396 1.45837 17.5002 1.45837C15.6043 1.45837 14.0002 2.68337 13.3877 4.37504H8.75016C7.146 4.37504 5.8335 5.68754 5.8335 7.29171V29.1667C5.8335 30.7709 7.146 32.0834 8.75016 32.0834H17.6606C16.8002 31.2521 16.1002 30.2605 15.5897 29.1667H8.75016V7.29171H11.6668V8.75004C11.6668 10.3542 12.9793 11.6667 14.5835 11.6667H20.4168C22.021 11.6667 23.3335 10.3542 23.3335 8.75004V7.29171H26.2502V14.7C27.2856 14.8459 28.2627 15.1521 29.1668 15.575V7.29171C29.1668 5.68754 27.8543 4.37504 26.2502 4.37504ZM17.5002 7.29171C16.6981 7.29171 16.0418 6.63546 16.0418 5.83337C16.0418 5.03129 16.6981 4.37504 17.5002 4.37504C18.3022 4.37504 18.9585 5.03129 18.9585 5.83337C18.9585 6.63546 18.3022 7.29171 17.5002 7.29171ZM24.7918 17.5C20.7668 17.5 17.5002 20.7667 17.5002 24.7917C17.5002 28.8167 20.7668 32.0834 24.7918 32.0834C28.8168 32.0834 32.0835 28.8167 32.0835 24.7917C32.0835 20.7667 28.8168 17.5 24.7918 17.5ZM26.6731 27.7084L24.2668 25.3021C24.1356 25.1709 24.0481 24.9813 24.0481 24.7917V21.1605C24.0481 20.7521 24.3689 20.4313 24.7772 20.4313C25.1856 20.4313 25.5064 20.7521 25.5064 21.1605V24.5L27.6939 26.6875C27.9856 26.9792 27.9856 27.4313 27.6939 27.723C27.4168 28 26.9647 28 26.6731 27.7084Z" fill="#9989D8"/>
</svg>
