<svg width="35" height="35" viewBox="0 0 35 35" fill="none" xmlns="http://www.w3.org/2000/svg">
<path d="M4.375 26.25C4.375 27.0521 5.03125 27.7083 5.83333 27.7083H13.125V24.7917H5.83333C5.03125 24.7917 4.375 25.4479 4.375 26.25ZM4.375 8.75C4.375 9.55208 5.03125 10.2083 5.83333 10.2083H18.9583V7.29167H5.83333C5.03125 7.29167 4.375 7.94792 4.375 8.75ZM18.9583 29.1667V27.7083H29.1667C29.9688 27.7083 30.625 27.0521 30.625 26.25C30.625 25.4479 29.9688 24.7917 29.1667 24.7917H18.9583V23.3333C18.9583 22.5312 18.3021 21.875 17.5 21.875C16.6979 21.875 16.0417 22.5312 16.0417 23.3333V29.1667C16.0417 29.9688 16.6979 30.625 17.5 30.625C18.3021 30.625 18.9583 29.9688 18.9583 29.1667ZM10.2083 14.5833V16.0417H5.83333C5.03125 16.0417 4.375 16.6979 4.375 17.5C4.375 18.3021 5.03125 18.9583 5.83333 18.9583H10.2083V20.4167C10.2083 21.2188 10.8646 21.875 11.6667 21.875C12.4688 21.875 13.125 21.2188 13.125 20.4167V14.5833C13.125 13.7812 12.4688 13.125 11.6667 13.125C10.8646 13.125 10.2083 13.7812 10.2083 14.5833ZM30.625 17.5C30.625 16.6979 29.9688 16.0417 29.1667 16.0417H16.0417V18.9583H29.1667C29.9688 18.9583 30.625 18.3021 30.625 17.5ZM23.3333 13.125C24.1354 13.125 24.7917 12.4688 24.7917 11.6667V10.2083H29.1667C29.9688 10.2083 30.625 9.55208 30.625 8.75C30.625 7.94792 29.9688 7.29167 29.1667 7.29167H24.7917V5.83333C24.7917 5.03125 24.1354 4.375 23.3333 4.375C22.5312 4.375 21.875 5.03125 21.875 5.83333V11.6667C21.875 12.4688 22.5312 13.125 23.3333 13.125Z" fill="#79D8A5"/>
</svg>
