<svg width="35" height="35" viewBox="0 0 35 35" fill="none" xmlns="http://www.w3.org/2000/svg">
<path d="M24.7915 10.2084H20.4165C19.6144 10.2084 18.9582 10.8646 18.9582 11.6667C18.9582 12.4688 19.6144 13.125 20.4165 13.125H24.7915C27.1978 13.125 29.1665 15.0938 29.1665 17.5C29.1665 19.9063 27.1978 21.875 24.7915 21.875H20.4165C19.6144 21.875 18.9582 22.5313 18.9582 23.3334C18.9582 24.1355 19.6144 24.7917 20.4165 24.7917H24.7915C28.8165 24.7917 32.0832 21.525 32.0832 17.5C32.0832 13.475 28.8165 10.2084 24.7915 10.2084ZM11.6665 17.5C11.6665 18.3021 12.3228 18.9584 13.1248 18.9584H21.8748C22.6769 18.9584 23.3332 18.3021 23.3332 17.5C23.3332 16.698 22.6769 16.0417 21.8748 16.0417H13.1248C12.3228 16.0417 11.6665 16.698 11.6665 17.5ZM14.5832 21.875H10.2082C7.80192 21.875 5.83317 19.9063 5.83317 17.5C5.83317 15.0938 7.80192 13.125 10.2082 13.125H14.5832C15.3853 13.125 16.0415 12.4688 16.0415 11.6667C16.0415 10.8646 15.3853 10.2084 14.5832 10.2084H10.2082C6.18317 10.2084 2.9165 13.475 2.9165 17.5C2.9165 21.525 6.18317 24.7917 10.2082 24.7917H14.5832C15.3853 24.7917 16.0415 24.1355 16.0415 23.3334C16.0415 22.5313 15.3853 21.875 14.5832 21.875Z" fill="#88A3D3"/>
</svg>
