<svg width="35" height="35" viewBox="0 0 35 35" fill="none" xmlns="http://www.w3.org/2000/svg">
<path d="M29.1667 2.91663H11.6667C10.0626 2.91663 8.75008 4.22913 8.75008 5.83329V23.3333C8.75008 24.9375 10.0626 26.25 11.6667 26.25H29.1667C30.7709 26.25 32.0834 24.9375 32.0834 23.3333V5.83329C32.0834 4.22913 30.7709 2.91663 29.1667 2.91663ZM16.7709 13.8541C16.7709 15.0645 15.7938 16.0416 14.5834 16.0416H13.1251V17.8645C13.1251 18.4625 12.6292 18.9583 12.0313 18.9583C11.4334 18.9583 10.9376 18.4625 10.9376 17.8645V11.6666C10.9376 10.8645 11.5938 10.2083 12.3959 10.2083H14.5834C15.7938 10.2083 16.7709 11.1854 16.7709 12.3958V13.8541ZM24.0626 16.7708C24.0626 17.9812 23.0855 18.9583 21.8751 18.9583H18.9584C18.5501 18.9583 18.2292 18.6375 18.2292 18.2291V10.9375C18.2292 10.5291 18.5501 10.2083 18.9584 10.2083H21.8751C23.0855 10.2083 24.0626 11.1854 24.0626 12.3958V16.7708ZM29.8959 11.302C29.8959 11.9 29.4001 12.3958 28.8022 12.3958H27.7084V13.8541H28.8022C29.4001 13.8541 29.8959 14.35 29.8959 14.9479C29.8959 15.5458 29.4001 16.0416 28.8022 16.0416H27.7084V17.8645C27.7084 18.4625 27.2126 18.9583 26.6147 18.9583C26.0167 18.9583 25.5209 18.4625 25.5209 17.8645V11.6666C25.5209 10.8645 26.1772 10.2083 26.9792 10.2083H28.8022C29.4001 10.2083 29.8959 10.7041 29.8959 11.302ZM13.1251 13.8541H14.5834V12.3958H13.1251V13.8541ZM4.37508 8.74996C3.573 8.74996 2.91675 9.40621 2.91675 10.2083V29.1666C2.91675 30.7708 4.22925 32.0833 5.83341 32.0833H24.7917C25.5938 32.0833 26.2501 31.427 26.2501 30.625C26.2501 29.8229 25.5938 29.1666 24.7917 29.1666H7.29175C6.48966 29.1666 5.83341 28.5104 5.83341 27.7083V10.2083C5.83341 9.40621 5.17716 8.74996 4.37508 8.74996ZM20.4167 16.7708H21.8751V12.3958H20.4167V16.7708Z" fill="#9989D8"/>
</svg>
