<svg width="35" height="35" viewBox="0 0 35 35" fill="none" xmlns="http://www.w3.org/2000/svg">
<path d="M5.83333 20.4167H8.75C9.55208 20.4167 10.2083 19.7604 10.2083 18.9583V16.0417C10.2083 15.2396 9.55208 14.5833 8.75 14.5833H5.83333C5.03125 14.5833 4.375 15.2396 4.375 16.0417V18.9583C4.375 19.7604 5.03125 20.4167 5.83333 20.4167ZM5.83333 27.7083H8.75C9.55208 27.7083 10.2083 27.0521 10.2083 26.25V23.3333C10.2083 22.5313 9.55208 21.875 8.75 21.875H5.83333C5.03125 21.875 4.375 22.5313 4.375 23.3333V26.25C4.375 27.0521 5.03125 27.7083 5.83333 27.7083ZM5.83333 13.125H8.75C9.55208 13.125 10.2083 12.4688 10.2083 11.6667V8.75001C10.2083 7.94792 9.55208 7.29167 8.75 7.29167H5.83333C5.03125 7.29167 4.375 7.94792 4.375 8.75001V11.6667C4.375 12.4688 5.03125 13.125 5.83333 13.125ZM13.125 20.4167H27.7083C28.5104 20.4167 29.1667 19.7604 29.1667 18.9583V16.0417C29.1667 15.2396 28.5104 14.5833 27.7083 14.5833H13.125C12.3229 14.5833 11.6667 15.2396 11.6667 16.0417V18.9583C11.6667 19.7604 12.3229 20.4167 13.125 20.4167ZM13.125 27.7083H27.7083C28.5104 27.7083 29.1667 27.0521 29.1667 26.25V23.3333C29.1667 22.5313 28.5104 21.875 27.7083 21.875H13.125C12.3229 21.875 11.6667 22.5313 11.6667 23.3333V26.25C11.6667 27.0521 12.3229 27.7083 13.125 27.7083ZM11.6667 8.75001V11.6667C11.6667 12.4688 12.3229 13.125 13.125 13.125H27.7083C28.5104 13.125 29.1667 12.4688 29.1667 11.6667V8.75001C29.1667 7.94792 28.5104 7.29167 27.7083 7.29167H13.125C12.3229 7.29167 11.6667 7.94792 11.6667 8.75001Z" fill="#EE827D"/>
</svg>
