<svg width="35" height="35" viewBox="0 0 35 35" fill="none" xmlns="http://www.w3.org/2000/svg">
<path d="M17.5 2.91667C9.45 2.91667 2.91667 9.45 2.91667 17.5C2.91667 25.55 9.45 32.0833 17.5 32.0833C25.55 32.0833 32.0833 25.55 32.0833 17.5C32.0833 9.45 25.55 2.91667 17.5 2.91667ZM17.5 29.1667C11.0688 29.1667 5.83334 23.9313 5.83334 17.5C5.83334 11.0688 11.0688 5.83334 17.5 5.83334C23.9313 5.83334 29.1667 11.0688 29.1667 17.5C29.1667 23.9313 23.9313 29.1667 17.5 29.1667ZM23.1583 12.0896L14.5833 20.6646L11.8417 17.9229C11.2729 17.3542 10.3542 17.3542 9.78542 17.9229C9.21667 18.4917 9.21667 19.4104 9.78542 19.9792L13.5625 23.7563C14.1313 24.325 15.05 24.325 15.6188 23.7563L25.2292 14.1458C25.7979 13.5771 25.7979 12.6583 25.2292 12.0896C24.6604 11.5208 23.7271 11.5208 23.1583 12.0896Z" fill="#67C5D2"/>
</svg>
