<svg width="195" height="93" viewBox="0 0 195 93" fill="none" xmlns="http://www.w3.org/2000/svg">
<g opacity="0.9">
<path d="M11.1137 80.4248C9.96411 80.2157 8.76224 80.059 7.50812 79.9545C6.3585 79.7454 5.36566 79.2751 4.52958 78.5436C3.37996 77.394 2.33486 76.1398 1.39427 74.7812C0.349166 73.4226 -0.0688746 71.9072 0.140146 70.235C0.140146 70.026 0.192401 69.6079 0.296911 68.9809C0.296911 68.2493 0.401421 67.779 0.610442 67.57L0.923973 66.6294C1.44652 65.3753 1.81231 64.5392 2.02133 64.1212C2.23035 63.7031 2.70065 62.9193 3.43222 61.7697C5.20889 59.0524 7.50812 56.5442 10.3299 54.2449C11.166 53.5134 12.1066 52.8341 13.1517 52.207C14.1968 51.4754 15.3464 50.7961 16.6005 50.1691C16.914 50.1691 17.3321 50.0123 17.8546 49.6988C18.6907 49.3852 19.5268 49.4375 20.3629 49.8555C21.3035 50.2736 22.035 50.7439 22.5576 51.2664L23.1847 52.8341C23.4982 55.3423 22.8711 57.3803 21.3035 58.9479C20.1539 60.3065 18.8997 61.6129 17.5411 62.867C16.287 64.1212 14.9283 65.323 13.4652 66.4726C13.2562 66.6817 12.9426 66.8907 12.5246 67.0997C12.2111 67.3087 11.9498 67.5178 11.7408 67.7268C11.4273 68.0403 11.0092 68.2493 10.4867 68.3538C10.0686 68.3538 9.59832 68.4061 9.07577 68.5106C8.23969 69.0331 7.50812 68.8764 6.88106 68.0403L6.25399 67.57H5.94046C5.83595 67.57 5.7837 67.6223 5.7837 67.7268C5.26115 68.4583 4.94762 69.2944 4.84311 70.235C4.84311 71.1756 4.84311 72.0117 4.84311 72.7433C4.94762 73.2658 5.3134 73.8406 5.94046 74.4677C6.3585 74.9902 6.8288 75.356 7.35135 75.565C7.97841 75.7741 8.55322 75.8786 9.07577 75.8786C9.49381 75.9831 10.0686 76.0353 10.8002 76.0353C11.6363 75.9308 12.5246 75.8786 13.4652 75.8786C14.5103 75.8786 15.5554 75.6695 16.6005 75.2515C20.4674 74.3109 23.9685 73.1613 27.1038 71.8027C30.2391 70.444 33.4267 69.0331 36.6665 67.57C38.3386 66.7339 39.854 65.9501 41.2127 65.2185C42.6758 64.3824 44.139 63.5986 45.6021 62.867C46.5427 62.3445 47.1175 62.031 47.3265 61.9264C47.5355 61.7174 48.1626 61.2471 49.2077 60.5156C49.7303 59.993 49.9915 59.784 49.9915 59.8885C50.096 59.8885 50.5663 59.7317 51.4024 59.4182C51.6114 59.2092 51.6637 59.2092 51.5592 59.4182C51.5592 59.5227 51.6114 59.7317 51.7159 60.0453C51.8205 60.4633 51.925 60.9859 52.0295 61.6129C52.2385 62.1355 52.134 62.5535 51.7159 62.867C50.9844 63.5986 50.6708 64.0167 50.7754 64.1212C50.8799 64.1212 50.5663 64.4347 49.8348 65.0618C48.2671 66.2114 46.6995 67.2042 45.1318 68.0403C43.5641 68.8764 41.9442 69.817 40.2721 70.8621C39.1225 71.3846 38.0251 71.9072 36.98 72.4297C36.0394 72.9523 35.0988 73.4226 34.1582 73.8406C32.068 74.6767 29.9256 75.565 27.7308 76.5056C25.6406 77.3417 23.4459 78.021 21.1467 78.5436L16.6005 79.7977C15.4509 80.1112 14.5626 80.3203 13.9355 80.4248C13.3084 80.4248 12.3678 80.4248 11.1137 80.4248ZM9.07577 63.6509C10.8524 62.6058 12.5246 61.3516 14.0923 59.8885C15.6599 58.4254 17.1753 56.8055 18.6385 55.0288C18.5339 55.0288 18.4294 55.081 18.3249 55.1855C18.2204 55.1855 18.1159 55.1855 18.0114 55.1855C16.0257 56.0216 14.3013 57.0145 12.8381 58.1641C11.4795 59.3137 10.3821 60.7768 9.54607 62.5535C9.44156 62.5535 9.28479 62.9193 9.07577 63.6509Z" fill="#1DA1F2"/>
<path d="M38.1312 86.5386C38.1312 86.0161 38.1835 85.6503 38.288 85.4413C38.497 84.9187 38.7061 84.4484 38.9151 84.0304C39.1241 83.6123 39.4376 83.142 39.8557 82.6195C40.1692 82.515 40.326 82.3059 40.326 81.9924C40.535 81.4699 40.7963 81.0518 41.1098 80.7383C41.3188 80.3203 41.6323 79.85 42.0504 79.3274C42.3639 78.9094 42.6774 78.5958 42.991 78.3868C43.2 78.0733 43.409 77.7075 43.618 77.2895C43.9316 76.7669 44.1928 76.4534 44.4019 76.3489C44.6109 76.1398 44.7676 76.0353 44.8722 76.0353C44.9767 75.9308 45.0812 75.8786 45.1857 75.8786C45.2902 75.8786 45.447 75.7218 45.656 75.4083C45.656 75.1992 45.865 74.8857 46.283 74.4677L49.2616 71.1756C49.5751 70.6531 49.9932 70.235 50.5157 69.9215C51.1428 69.5034 51.6653 68.9809 52.0834 68.3538C52.6059 67.7268 52.8672 67.361 52.8672 67.2565C52.8672 67.152 52.6582 66.7339 52.2401 66.0024C51.6131 64.8527 51.0905 63.8599 50.6725 63.0238C50.3589 62.0832 49.8364 61.0381 49.1048 59.8885C48.7913 59.366 48.4255 58.8434 48.0075 58.3208C47.6939 57.6938 47.4849 57.0667 47.3804 56.4397C47.1714 55.6036 46.9624 54.8198 46.7533 54.0882C46.5443 53.3566 46.5443 52.625 46.7533 51.8935C46.7533 51.1619 47.2236 50.7961 48.1642 50.7961L50.2022 51.5799C50.8292 51.8935 51.2473 52.3115 51.4563 52.8341L52.0834 55.3423C52.0834 55.8649 52.1879 56.4397 52.3969 57.0667C52.7104 57.5893 52.9717 58.1118 53.1807 58.6344C53.8078 59.6795 54.2258 60.5156 54.4348 61.1426C54.6439 61.6652 55.0619 62.449 55.689 63.4941C55.898 63.9121 56.2115 63.8599 56.6296 63.3373C56.7341 63.1283 56.7863 63.0238 56.7863 63.0238C56.8908 63.0238 57.0476 62.9193 57.2566 62.7103C57.3611 62.5013 57.4656 62.3445 57.5701 62.24C57.6747 62.1355 57.8314 61.9787 58.0404 61.7697C58.2495 61.5607 58.4585 61.3516 58.6675 61.1426C58.981 60.8291 59.2423 60.5678 59.4513 60.3588C60.1829 59.6272 60.8622 58.9479 61.4893 58.3208C62.2209 57.6938 62.8479 57.0145 63.3705 56.2829C64.102 55.2378 64.9381 54.2449 65.8787 53.3044L66.6625 52.3638C67.1851 51.7367 67.6554 51.1096 68.0734 50.4826C68.596 49.751 69.1708 49.0194 69.7978 48.2879C69.9024 48.2879 69.9546 48.2879 69.9546 48.2879C70.0591 48.1834 70.1636 48.1311 70.2681 48.1311C70.4772 47.9221 70.8429 47.7131 71.3655 47.504C71.8881 47.1905 72.3061 47.1383 72.6196 47.3473C73.1422 47.5563 73.5602 47.7131 73.8737 47.8176C74.1873 47.8176 74.5531 47.9743 74.9711 48.2879C75.1801 48.4969 75.3369 48.8627 75.4414 49.3852C75.5459 49.9078 75.4937 50.2736 75.2846 50.4826C74.2395 51.4232 73.2467 52.416 72.3061 53.4611C71.3655 54.4017 70.4249 55.4468 69.4843 56.5964C68.8573 57.4325 68.1779 58.2163 67.4464 58.9479C66.7148 59.575 66.0355 60.202 65.4084 60.8291L59.7649 66.6294L59.1378 67.4132C58.9288 67.6223 58.7198 67.8313 58.5107 68.0403C58.4062 68.2493 58.4585 68.4583 58.6675 68.6674L60.3919 71.4891C61.1235 72.9523 61.8551 74.3109 62.5866 75.565C63.3182 76.8192 64.102 78.0733 64.9381 79.3274C65.3562 80.3725 65.931 81.4699 66.6625 82.6195C66.8716 82.8285 66.9761 83.0375 66.9761 83.2465C66.9761 83.3511 67.0283 83.5078 67.1328 83.7168C67.1328 84.1349 66.8716 84.3439 66.349 84.3439C65.8265 84.4484 65.3039 84.4484 64.7814 84.3439C64.2588 84.2394 63.8408 83.9781 63.5272 83.5601C63.0047 82.724 62.4299 81.8879 61.8028 81.0518C61.2803 80.2157 60.7577 79.3797 60.2352 78.5436C59.8171 78.021 59.3991 77.4985 58.981 76.9759C58.6675 76.3489 58.3017 75.6695 57.8837 74.938C57.6747 74.6244 57.4134 74.2064 57.0999 73.6839C56.8908 73.1613 56.6296 72.691 56.316 72.273C56.107 71.8549 55.8457 71.5414 55.5322 71.3324C55.3232 71.1234 55.0619 71.1234 54.7484 71.3324C54.0168 72.0639 53.1285 73.109 52.0834 74.4677C51.1428 75.7218 50.6202 76.4534 50.5157 76.6624C49.8886 77.4985 49.4706 78.021 49.2616 78.23C49.0526 78.3346 48.8958 78.4391 48.7913 78.5436C48.6868 78.5436 48.53 78.6481 48.321 78.8571C48.2165 79.0661 47.8507 79.5887 47.2236 80.4248C46.7011 81.2608 46.1263 82.0969 45.4992 82.933C44.8722 83.6646 44.2451 84.3961 43.618 85.1277L42.991 86.2251L41.5801 87.7927C41.3711 88.0018 41.162 88.1063 40.953 88.1063C40.744 88.1063 40.4827 88.054 40.1692 87.9495C39.7512 87.845 39.3854 87.7927 39.0718 87.7927C38.4448 87.6882 38.1312 87.2702 38.1312 86.5386Z" fill="#1DA1F2"/>
<path d="M81.1376 53.9314C81.2421 53.3044 81.3466 52.7296 81.4511 52.207C81.6602 51.6845 81.8169 51.1619 81.9214 50.6394C81.9214 50.7439 82.0259 50.4826 82.235 49.8555C82.444 49.124 82.7053 48.2356 83.0188 47.1905C83.3323 46.1454 83.6459 45.1003 83.9594 44.0552C84.2729 42.9056 84.5864 41.965 84.9 41.2334C85.4225 40.0838 85.7361 39.3 85.8406 38.882C85.9451 38.3594 86.2586 37.5233 86.7812 36.3737C86.9902 36.0602 87.2515 35.5899 87.565 34.9628C87.8785 34.3358 88.1921 33.6564 88.5056 32.9249C88.8191 32.1933 89.0804 31.514 89.2894 30.8869C89.4984 30.2599 89.6029 29.7896 89.6029 29.476C89.6029 29.476 89.5507 29.5283 89.4462 29.6328H89.2894C89.0804 29.4238 88.9236 29.476 88.8191 29.7896L85.9973 30.7302L81.6079 32.2978C81.0854 32.5068 80.7196 32.6113 80.5106 32.6113C80.406 32.6113 80.3015 32.6113 80.197 32.6113C80.197 32.6113 80.1448 32.6636 80.0403 32.7681C79.9357 32.7681 79.6745 32.8726 79.2564 33.0816C78.7339 33.2907 78.1591 33.4997 77.532 33.7087C76.8004 33.8132 76.0166 33.97 75.1805 34.179C74.7625 34.179 74.2922 33.97 73.7696 33.5519C73.3516 33.3429 73.2993 33.0294 73.6129 32.6113C73.8219 32.0888 73.8742 31.7753 73.7696 31.6707L73.6129 31.514C73.5084 30.7824 73.7174 30.3644 74.2399 30.2599C74.658 30.1553 75.076 30.1031 75.4941 30.1031L78.6294 29.0057C78.7339 28.9012 78.8384 28.7967 78.9429 28.6922C79.0474 28.4832 79.2564 28.4832 79.57 28.6922C80.406 28.2742 81.0854 28.0129 81.6079 27.9084C82.0259 27.6994 82.3395 27.5948 82.5485 27.5948C83.1756 27.1768 83.8026 26.9155 84.4297 26.811C85.1613 26.602 85.8406 26.4452 86.4676 26.3407C86.6767 26.2362 86.8857 26.1317 87.0947 26.0272C87.3037 25.9227 87.5127 25.8704 87.7218 25.8704C88.2443 25.7659 88.7146 25.6614 89.1326 25.5569C89.5507 25.3479 90.021 25.1389 90.5435 24.9298C91.2751 24.6163 91.6409 24.355 91.6409 24.146C91.6409 24.0415 91.6931 23.937 91.7977 23.8325V23.6757L92.7383 21.3242L99.6359 3.76652C99.7404 3.55749 99.8449 3.29622 99.9495 2.98269C100.054 2.56465 100.211 2.09435 100.42 1.5718L100.89 0.787976C101.099 0.265425 101.726 0.00415039 102.771 0.00415039C103.816 0.00415039 104.6 0.213168 105.123 0.631203C105.227 0.840227 105.332 1.10151 105.436 1.41504C105.645 1.72857 105.854 2.0421 106.063 2.35563C106.168 2.56465 106.272 2.87818 106.377 3.29622C106.481 3.71426 106.429 4.08005 106.22 4.39358C104.443 7.52888 102.928 10.5597 101.674 13.486C100.42 16.4122 99.0611 19.4953 97.598 22.7351C97.389 22.9441 97.389 23.0486 97.598 23.0486C97.9115 22.9441 98.1205 22.9441 98.225 23.0486C100.42 22.5261 102.092 22.1603 103.242 21.9513C104.496 21.7423 106.116 21.3765 108.101 20.8539C108.728 20.8539 109.303 20.7494 109.826 20.5404C110.348 20.2269 110.871 20.2269 111.393 20.5404C111.602 20.4359 111.864 20.4359 112.177 20.5404C112.491 20.5404 112.752 20.4359 112.961 20.2269C113.902 19.9133 114.842 19.9656 115.783 20.3836C116.201 20.1746 116.514 20.1224 116.723 20.2269C117.35 19.9133 117.925 19.9133 118.448 20.2269C119.075 20.4359 119.754 20.5404 120.486 20.5404C120.695 20.4359 120.747 20.4882 120.642 20.6972C120.642 20.9062 120.695 21.0107 120.799 21.0107C121.113 21.0107 121.27 21.1152 121.27 21.3242C121.374 21.4287 121.322 21.481 121.113 21.481C120.59 21.69 120.381 21.9513 120.486 22.2648C120.59 22.4738 120.59 22.5784 120.486 22.5784C119.65 22.7874 118.866 22.9441 118.134 23.0486C117.403 23.0486 116.619 23.2054 115.783 23.5189C115.26 23.5189 114.738 23.5712 114.215 23.6757C113.797 23.6757 113.327 23.7802 112.804 23.9892L112.177 24.3028C111.028 24.1983 109.773 24.355 108.415 24.7731C107.161 25.0866 105.907 25.3479 104.652 25.5569C104.025 25.7659 103.503 25.9749 103.085 26.184C102.771 26.2885 102.353 26.4452 101.831 26.6543L99.1656 27.1245L96.8141 27.9084C96.2916 27.9084 95.9781 28.0129 95.8736 28.2219C95.8736 28.4309 95.769 28.6399 95.56 28.849C95.4555 28.9535 95.2465 29.3715 94.933 30.1031C94.7239 30.8347 94.4627 31.6185 94.1491 32.4546C93.9401 33.2906 93.6788 34.0745 93.3653 34.8061C93.0518 35.5376 92.8428 36.0079 92.7383 36.2169C91.4841 39.8748 90.23 43.3236 88.9759 46.5634C87.7218 49.8033 86.6244 53.1476 85.6838 56.5964C84.7432 59.9408 83.9594 63.4941 83.3323 67.2565C82.7053 71.0188 82.3917 75.1992 82.3917 79.7977C82.3917 82.3059 82.444 84.1349 82.5485 85.2845C82.653 86.3296 82.7575 87.0612 82.862 87.4792C83.0711 87.8972 83.2278 88.1585 83.3323 88.263C83.5413 88.3675 83.7504 88.6288 83.9594 89.0469C84.5864 89.1514 85.109 89.4126 85.527 89.8307C86.0496 90.1442 86.3631 90.51 86.4676 90.928C86.5722 91.3461 86.4154 91.7641 85.9973 92.1822C85.6838 92.4957 85.0045 92.6525 83.9594 92.6525C83.7504 92.6525 83.5413 92.5479 83.3323 92.3389C81.8692 91.8164 80.9286 91.4506 80.5106 91.2416C80.197 90.928 79.8312 90.2487 79.4132 89.2036C78.5771 87.7405 78.0546 85.7548 77.8455 83.2465C77.741 80.7383 77.6888 78.5436 77.6888 76.6624L78.0023 70.8621C78.0023 69.817 78.0546 69.0854 78.1591 68.6674C78.2636 68.2493 78.4203 67.5178 78.6294 66.4726C78.7339 65.114 78.9952 63.2851 79.4132 60.9859C79.9357 58.5821 80.406 56.7009 80.8241 55.3423L81.1376 53.9314Z" fill="#1DA1F2"/>
<path d="M131.928 53.9314C131.824 53.8269 131.667 53.8269 131.458 53.9314C131.354 53.9314 131.145 53.8792 130.831 53.7747C130.204 53.5656 129.316 53.6179 128.166 53.9314C127.643 54.1404 127.069 54.4017 126.442 54.7152C125.919 55.0288 125.396 55.3423 124.874 55.6558C123.933 56.1784 123.045 56.8577 122.209 57.6938C121.477 58.4254 120.694 59.1569 119.857 59.8885C119.126 60.4111 118.394 61.0904 117.663 61.9264C116.931 62.658 115.991 63.7554 114.841 65.2185C114.527 65.8456 114.109 66.5249 113.587 67.2565C113.169 67.8835 112.751 68.5106 112.333 69.1377C112.124 69.6602 111.862 70.026 111.549 70.235C110.922 71.2801 110.452 72.3775 110.138 73.5271C109.824 74.5722 109.459 75.6695 109.041 76.8192C109.041 77.0282 108.988 77.2372 108.884 77.4462C108.884 77.6552 108.884 77.8643 108.884 78.0733C108.675 78.4913 108.309 78.8048 107.786 79.0139C107.368 79.2229 107.003 79.2229 106.689 79.0139C105.54 78.7003 104.547 78.1778 103.711 77.4462C103.084 77.0282 102.927 76.4534 103.24 75.7218C103.449 75.1992 103.658 74.6767 103.867 74.1541C104.076 73.5271 104.338 72.9523 104.651 72.4297C105.278 71.2801 105.749 69.817 106.062 68.0403C106.585 66.1591 107.003 64.2779 107.316 62.3967C107.734 60.4111 108.205 58.4776 108.727 56.5964C108.936 56.0739 109.041 55.5513 109.041 55.0288C109.041 54.5062 109.093 53.9837 109.197 53.4611C109.615 51.8935 109.824 50.2736 109.824 48.6014C109.824 47.9743 110.138 47.5563 110.765 47.3473C111.392 47.1383 111.915 47.1905 112.333 47.504C113.064 47.8176 113.796 48.2356 114.527 48.7582C115.363 49.2807 115.677 49.8555 115.468 50.4826C115.363 51.6322 115.207 52.7296 114.998 53.7747C114.893 54.8198 114.736 55.9171 114.527 57.0667C114.527 57.0667 114.527 57.1712 114.527 57.3803C114.527 57.3803 114.58 57.3803 114.684 57.3803C115.311 56.8577 115.782 56.4919 116.095 56.2829C116.409 56.0739 116.774 55.7081 117.192 55.1855C118.133 54.1404 119.335 53.3566 120.798 52.8341C122.261 52.207 123.672 51.6845 125.031 51.2664C126.18 50.7439 127.539 50.6394 129.107 50.9529C129.734 51.1619 130.308 51.3709 130.831 51.5799C131.458 51.789 132.033 52.1547 132.555 52.6773C132.66 52.7818 132.712 52.8863 132.712 52.9908C132.712 53.0953 132.764 53.2521 132.869 53.4611C132.973 53.5656 132.921 53.6701 132.712 53.7747C132.608 53.8792 132.451 53.9314 132.242 53.9314H131.928Z" fill="#1DA1F2"/>
<path d="M171.613 75.0947C170.673 75.0947 169.837 74.938 169.105 74.6244C168.269 74.2064 167.433 73.7361 166.597 73.2136C165.761 72.5865 165.081 71.8549 164.559 71.0188C163.2 69.2422 162.207 67.2042 161.58 64.905C161.58 64.5915 161.424 64.4347 161.11 64.4347L158.445 67.0997C156.877 68.3538 155.31 69.608 153.742 70.8621C152.279 72.1162 150.763 73.2658 149.196 74.3109C148.151 74.938 147.106 75.5128 146.061 76.0353C145.12 76.5579 144.075 76.9237 142.925 77.1327C141.776 77.5507 140.469 77.7598 139.006 77.7598C137.125 77.9688 135.766 77.0282 134.93 74.938L133.676 72.5865C133.049 71.3324 132.997 69.9737 133.519 68.5106C133.728 67.6745 134.094 66.8907 134.617 66.1591C135.035 65.4275 135.4 64.696 135.714 63.9644L137.438 61.7697C138.902 60.0975 140.417 58.5299 141.985 57.0667C143.657 55.4991 145.381 54.1404 147.158 52.9908L149.823 51.4232C151.286 50.5871 152.854 50.1691 154.526 50.1691C155.466 50.1691 156.146 50.4303 156.564 50.9529C157.922 52.207 158.811 53.7224 159.229 55.4991C159.229 55.7081 159.124 56.0216 158.915 56.4397C158.602 56.6487 158.393 56.6487 158.288 56.4397L157.191 55.4991C156.668 54.9765 156.198 54.872 155.78 55.1855C154.944 55.3946 154.108 55.6036 153.272 55.8126C152.436 55.9171 151.6 56.2306 150.763 56.7532C148.882 57.6938 147.158 58.9479 145.59 60.5156C145.172 60.7246 144.806 61.0381 144.493 61.4562C142.298 63.1283 140.365 65.4275 138.693 68.3538C137.856 69.2944 137.282 70.4963 136.968 71.9594C136.759 72.3775 136.864 72.5865 137.282 72.5865C137.595 72.691 137.909 72.7433 138.222 72.7433C138.536 72.7433 138.797 72.7433 139.006 72.7433C139.738 72.5342 140.469 72.3775 141.201 72.273C142.037 72.1685 142.768 71.9072 143.395 71.4891C146.426 70.235 149.144 68.4583 151.547 66.1591L155.31 63.0238C155.623 62.8148 155.884 62.658 156.094 62.5535C156.407 62.3445 156.668 62.1355 156.877 61.9264C157.713 60.9859 158.497 60.0975 159.229 59.2614C160.065 58.4254 160.901 57.4325 161.737 56.2829C162.26 55.5513 162.887 55.3946 163.618 55.8126C164.036 56.0216 164.507 56.2829 165.029 56.5964C165.552 56.8055 165.917 57.119 166.126 57.537C166.231 57.9551 166.283 58.3209 166.283 58.6344C166.388 58.8434 166.388 59.1569 166.283 59.575C166.179 60.202 166.074 60.8814 165.97 61.6129C165.97 62.3445 165.97 63.0761 165.97 63.8076C165.97 65.5843 166.335 67.2042 167.067 68.6674C167.276 68.8764 167.485 69.0331 167.694 69.1377C168.008 69.1377 168.269 69.2422 168.478 69.4512C169.941 70.3918 171.456 70.8621 173.024 70.8621C174.592 70.7576 176.159 70.3918 177.727 69.7647C178.563 69.4512 179.295 69.2422 179.922 69.1377C180.549 68.9286 181.28 68.5629 182.117 68.0403C183.475 66.9952 184.625 66.2114 185.565 65.6888C186.506 65.1663 187.551 64.2257 188.701 62.867C189.014 62.5535 189.589 61.9265 190.425 60.9859C191.261 59.9408 191.784 59.2092 191.993 58.7911L192.463 58.4776C192.463 58.3731 192.672 58.3208 193.09 58.3208C193.613 58.3208 193.874 58.3731 193.874 58.4776L194.501 59.4182C194.815 60.1498 194.553 61.1426 193.717 62.3967C192.986 63.5464 192.411 64.3824 191.993 64.905C189.798 68.0403 187.029 70.4963 183.684 72.273C180.444 74.0496 177.361 74.9902 174.435 75.0947C174.226 75.0947 173.756 75.147 173.024 75.2515C172.293 75.356 171.822 75.3038 171.613 75.0947Z" fill="#1DA1F2"/>
</g>
</svg>
