<svg width="35" height="35" viewBox="0 0 35 35" fill="none" xmlns="http://www.w3.org/2000/svg">
<path d="M27.7083 4.375H21.6125C21 2.68334 19.3958 1.45834 17.5 1.45834C15.6042 1.45834 14 2.68334 13.3875 4.375H7.29167C5.6875 4.375 4.375 5.6875 4.375 7.29167V27.7083C4.375 29.3125 5.6875 30.625 7.29167 30.625H27.7083C29.3125 30.625 30.625 29.3125 30.625 27.7083V7.29167C30.625 5.6875 29.3125 4.375 27.7083 4.375ZM17.5 4.375C18.3021 4.375 18.9583 5.03125 18.9583 5.83334C18.9583 6.63542 18.3021 7.29167 17.5 7.29167C16.6979 7.29167 16.0417 6.63542 16.0417 5.83334C16.0417 5.03125 16.6979 4.375 17.5 4.375ZM13.5479 23.7563L9.77083 19.9792C9.20208 19.4104 9.20208 18.4917 9.77083 17.9229C10.3396 17.3542 11.2583 17.3542 11.8271 17.9229L14.5833 20.6646L23.1583 12.0896C23.7271 11.5208 24.6458 11.5208 25.2146 12.0896C25.7833 12.6583 25.7833 13.5771 25.2146 14.1458L15.6042 23.7563C15.05 24.325 14.1167 24.325 13.5479 23.7563Z" fill="#7CBCE3"/>
</svg>
