<svg width="35" height="35" viewBox="0 0 35 35" fill="none" xmlns="http://www.w3.org/2000/svg">
<path d="M25.5209 6.5625C22.6771 6.5625 19.6146 7.14583 17.5 8.75C15.3855 7.14583 12.323 6.5625 9.47921 6.5625C7.36462 6.5625 5.11879 6.88333 3.23754 7.71458C2.17296 8.19583 1.45837 9.23125 1.45837 10.4125V26.8625C1.45837 28.7583 3.23754 30.1583 5.07504 29.6917C6.50421 29.3271 8.02087 29.1667 9.47921 29.1667C11.7542 29.1667 14.175 29.5458 16.1292 30.5083C17.0042 30.9458 17.9959 30.9458 18.8563 30.5083C20.8105 29.5312 23.2313 29.1667 25.5063 29.1667C26.9646 29.1667 28.4813 29.3271 29.9105 29.6917C31.748 30.1729 33.5271 28.7729 33.5271 26.8625V10.4125C33.5271 9.23125 32.8125 8.19583 31.748 7.71458C29.8813 6.88333 27.6355 6.5625 25.5209 6.5625ZM30.625 25.1271C30.625 26.0458 29.7792 26.7167 28.875 26.5562C27.7813 26.3521 26.6438 26.2646 25.5209 26.2646C23.0417 26.2646 19.4688 27.2125 17.5 28.4521V11.6667C19.4688 10.4271 23.0417 9.47917 25.5209 9.47917C26.8625 9.47917 28.1896 9.61042 29.4584 9.8875C30.1292 10.0333 30.625 10.6313 30.625 11.3167V25.1271Z" fill="#DFBD72"/>
<path d="M20.3875 16.0562C19.9209 16.0562 19.4979 15.7646 19.3521 15.2979C19.1625 14.7292 19.4834 14.1021 20.0521 13.9271C22.2979 13.1979 25.2 12.9646 27.8688 13.2708C28.4667 13.3437 28.9042 13.8833 28.8313 14.4812C28.7584 15.0792 28.2188 15.5167 27.6209 15.4437C25.2584 15.1667 22.6771 15.3854 20.7229 16.0125C20.6063 16.0271 20.4896 16.0562 20.3875 16.0562Z" fill="#DFBD72"/>
<path d="M20.3875 19.9354C19.9209 19.9354 19.4979 19.6437 19.3521 19.1771C19.1625 18.6083 19.4834 17.9812 20.0521 17.8062C22.2834 17.0771 25.2 16.8437 27.8688 17.15C28.4667 17.2229 28.9042 17.7625 28.8313 18.3604C28.7584 18.9583 28.2188 19.3958 27.6209 19.3229C25.2584 19.0458 22.6771 19.2646 20.7229 19.8917C20.6063 19.9208 20.4896 19.9354 20.3875 19.9354Z" fill="#DFBD72"/>
<path d="M20.3875 23.8146C19.9209 23.8146 19.4979 23.5229 19.3521 23.0562C19.1625 22.4875 19.4834 21.8604 20.0521 21.6854C22.2834 20.9562 25.2 20.7229 27.8688 21.0292C28.4667 21.1021 28.9042 21.6417 28.8313 22.2396C28.7584 22.8375 28.2188 23.2604 27.6209 23.2021C25.2584 22.925 22.6771 23.1437 20.7229 23.7708C20.6063 23.8 20.4896 23.8146 20.3875 23.8146Z" fill="#DFBD72"/>
</svg>
