<svg width="35" height="35" viewBox="0 0 35 35" fill="none" xmlns="http://www.w3.org/2000/svg">
<path d="M29.1667 21.875H5.83333C5.03125 21.875 4.375 22.5312 4.375 23.3333C4.375 24.1354 5.03125 24.7917 5.83333 24.7917H29.1667C29.9688 24.7917 30.625 24.1354 30.625 23.3333C30.625 22.5312 29.9688 21.875 29.1667 21.875ZM29.1667 14.5833H5.83333C5.03125 14.5833 4.375 15.2396 4.375 16.0417V17.5C4.375 18.3021 5.03125 18.9583 5.83333 18.9583H29.1667C29.9688 18.9583 30.625 18.3021 30.625 17.5V16.0417C30.625 15.2396 29.9688 14.5833 29.1667 14.5833ZM29.1667 5.83333H5.83333C5.03125 5.83333 4.375 6.48958 4.375 7.29166V10.2083C4.375 11.0104 5.03125 11.6667 5.83333 11.6667H29.1667C29.9688 11.6667 30.625 11.0104 30.625 10.2083V7.29166C30.625 6.48958 29.9688 5.83333 29.1667 5.83333ZM29.8958 27.7083H5.10417C4.69583 27.7083 4.375 28.0292 4.375 28.4375C4.375 28.8458 4.69583 29.1667 5.10417 29.1667H29.8958C30.3042 29.1667 30.625 28.8458 30.625 28.4375C30.625 28.0292 30.3042 27.7083 29.8958 27.7083Z" fill="#FF8A8A"/>
</svg>
