<svg width="70" height="70" viewBox="0 0 70 70" fill="none" xmlns="http://www.w3.org/2000/svg">
<circle cx="35" cy="35" r="35" fill="#FFF3F7"/>
<path d="M50.3998 23.2666V44.0383H41.6548C39.7944 44.0397 37.9694 44.5467 36.3748 45.5049V26.3649L38.9048 24.4216C39.8846 23.661 41.0928 23.254 42.3331 23.2666H50.3998ZM52.2331 20.3333H42.3331C40.4546 20.3567 38.6367 21.0014 37.1631 22.1666L33.7898 24.6416C33.6811 24.7222 33.5929 24.8273 33.5324 24.9483C33.4719 25.0693 33.4407 25.2029 33.4414 25.3383V48.1449C33.4417 48.4201 33.5166 48.6901 33.6582 48.9261C33.7998 49.1621 34.0027 49.3553 34.2454 49.4851C34.4881 49.6149 34.7614 49.6765 35.0363 49.6632C35.3112 49.65 35.5773 49.5624 35.8064 49.4099L37.5298 48.2366C38.7468 47.4108 40.184 46.9701 41.6548 46.9716H52.1598C52.4709 46.9716 52.7694 46.848 52.9894 46.6279C53.2095 46.4079 53.3331 46.1094 53.3331 45.7983V21.5249C53.3331 21.212 53.2101 20.9117 52.9906 20.6887C52.771 20.4657 52.4726 20.3381 52.1598 20.3333H52.2331Z" fill="#FD5F93"/>
<path d="M27.3187 23.2666C28.7206 23.273 30.0809 23.7436 31.1871 24.6049L33.4604 26.4383V45.5599C31.7875 44.597 29.8907 44.0911 27.9604 44.0933H19.6004V23.2666H27.3187ZM27.3187 20.3333H18.7387C18.186 20.3429 17.6591 20.5693 17.2716 20.9636C16.8841 21.358 16.667 21.8887 16.6671 22.4416V44.9183C16.6647 45.1927 16.7163 45.465 16.8191 45.7195C16.9219 45.974 17.0739 46.2057 17.2662 46.4015C17.4586 46.5973 17.6877 46.7533 17.9403 46.8605C18.193 46.9678 18.4643 47.0242 18.7387 47.0266H27.9054C29.5455 47.0293 31.1476 47.5208 32.5071 48.4383L33.9004 49.3916C34.1536 49.5675 34.4538 49.6633 34.7621 49.6666C35.1819 49.6618 35.5829 49.4916 35.8781 49.193C36.1732 48.8944 36.3388 48.4915 36.3387 48.0716V24.9166L32.9837 22.2766C31.3662 21.0128 29.3714 20.3285 27.3187 20.3333Z" fill="#FD5F93"/>
</svg>
