<svg width="70" height="70" viewBox="0 0 70 70" fill="none" xmlns="http://www.w3.org/2000/svg">
<circle cx="35" cy="35" r="35" fill="#FFFAEB"/>
<path fill-rule="evenodd" clip-rule="evenodd" d="M39.7856 19.2334V27.19C39.7856 27.5304 39.9208 27.8568 40.1615 28.0975C40.4022 28.3382 40.7286 28.4734 41.0689 28.4734H47.6872V45.7984C47.7218 47.076 47.2496 48.3155 46.3738 49.2463C45.498 50.1771 44.2895 50.7236 43.0122 50.7667H27.6672C27.0268 50.7573 26.3947 50.6208 25.8075 50.3653C25.2203 50.1097 24.6896 49.7402 24.2462 49.2781C23.8029 48.8159 23.4556 48.2704 23.2246 47.6731C22.9936 47.0758 22.8834 46.4386 22.9005 45.7984V24.2017C22.8834 23.5616 22.9936 22.9244 23.2246 22.3271C23.4556 21.7297 23.8029 21.1842 24.2462 20.7221C24.6896 20.26 25.2203 19.8904 25.8075 19.6349C26.3947 19.3794 27.0268 19.2429 27.6672 19.2334H39.7856ZM42.3523 20.8973V25.8334H46.1598L42.3523 20.8973ZM27.6672 16.6667H42.3338L50.3455 26.9334V45.7984C50.3723 46.7706 50.2055 47.7384 49.8547 48.6455C49.5039 49.5526 48.9762 50.3809 48.3023 51.0821C47.6284 51.7834 46.8217 52.3435 45.9292 52.73C45.0368 53.1165 44.0763 53.3216 43.1038 53.3334H27.6672C26.6869 53.3338 25.7166 53.1376 24.8134 52.7565C23.9103 52.3755 23.0928 51.8172 22.4091 51.1147C21.7254 50.4123 21.1895 49.5799 20.8331 48.6667C20.4766 47.7536 20.3069 46.7783 20.3338 45.7984V24.2017C20.3069 23.2219 20.4766 22.2466 20.8331 21.3334C21.1895 20.4203 21.7254 19.5879 22.4091 18.8854C23.0928 18.183 23.9103 17.6247 24.8134 17.2436C25.7166 16.8625 26.6869 16.6664 27.6672 16.6667Z" fill="#ECB100"/>
</svg>
