<svg width="70" height="70" viewBox="0 0 70 70" fill="none" xmlns="http://www.w3.org/2000/svg">
<circle cx="35" cy="35" r="35" fill="#F5EEFF"/>
<g clip-path="url(#clip0_166_15514)">
<path d="M34.9999 21.25C25.8333 21.25 18.0049 26.9517 14.8333 35C18.0049 43.0483 25.8333 48.75 34.9999 48.75C44.1666 48.75 51.9949 43.0483 55.1666 35C51.9949 26.9517 44.1666 21.25 34.9999 21.25ZM34.9999 44.1667C29.9399 44.1667 25.8333 40.06 25.8333 35C25.8333 29.94 29.9399 25.8333 34.9999 25.8333C40.0599 25.8333 44.1666 29.94 44.1666 35C44.1666 40.06 40.0599 44.1667 34.9999 44.1667ZM34.9999 29.5C31.9566 29.5 29.4999 31.9567 29.4999 35C29.4999 38.0433 31.9566 40.5 34.9999 40.5C38.0433 40.5 40.4999 38.0433 40.4999 35C40.4999 31.9567 38.0433 29.5 34.9999 29.5Z" fill="#A262FF"/>
</g>
<defs>
<clipPath id="clip0_166_15514">
<rect width="44" height="44" fill="white" transform="translate(13 13)"/>
</clipPath>
</defs>
</svg>
