<svg width="70" height="70" viewBox="0 0 70 70" fill="none" xmlns="http://www.w3.org/2000/svg">
<circle cx="35" cy="35" r="35" fill="#FFFAEB"/>
<path fill-rule="evenodd" clip-rule="evenodd" d="M35.2198 22.8999C35.2636 22.8999 35.3056 22.9173 35.3365 22.9482C35.3674 22.9792 35.3848 23.0212 35.3848 23.0649V46.8983C35.3848 46.942 35.3674 46.984 35.3365 47.0149C35.3056 47.0459 35.2636 47.0633 35.2198 47.0633H27.8865C27.8637 47.0717 27.8392 47.075 27.815 47.0728C27.7907 47.0707 27.7673 47.0633 27.7462 47.051C27.7252 47.0387 27.7071 47.0219 27.6934 47.0019C27.6797 46.9819 27.6705 46.9592 27.6666 46.9354V28.1432C27.6667 28.1282 27.6667 28.1132 27.6665 28.0982V23.1016C27.6603 23.0755 27.6605 23.0482 27.6672 23.0222C27.6739 22.9962 27.6868 22.9722 27.7049 22.9523C27.723 22.9325 27.7456 22.9173 27.7709 22.9082C27.7961 22.899 27.8232 22.8962 27.8498 22.8999H35.1832H35.2198ZM26.7959 49.4552C26.6698 49.4025 26.5481 49.3404 26.4317 49.2698C26.3072 49.3474 26.1761 49.4146 26.0397 49.4706C25.7183 49.6024 25.3739 49.669 25.0266 49.6666H19.3066C18.9592 49.669 18.6148 49.6024 18.2934 49.4706C17.972 49.3387 17.68 49.1444 17.4344 48.8987C17.1887 48.6531 16.9944 48.3611 16.8626 48.0397C16.7308 47.7183 16.6641 47.3739 16.6666 47.0265V28.1432C16.681 27.4543 16.9661 26.7988 17.4602 26.3184C17.9542 25.8381 18.6175 25.5716 19.3066 25.5766H25.0266V25.5032C25.0571 25.503 25.0877 25.5033 25.1182 25.5042V23.0649C25.1182 22.3404 25.406 21.6456 25.9183 21.1333C26.4305 20.6211 27.1253 20.3333 27.8498 20.3333H35.1832H35.2198C35.5786 20.338 35.9328 20.4134 36.2624 20.5552C36.592 20.6969 36.8905 20.9021 37.1407 21.1592C37.391 21.4163 37.5882 21.7201 37.721 22.0534C37.8538 22.3867 37.9197 22.7428 37.9148 23.1016V46.9349C37.9148 47.6594 37.627 48.3542 37.1147 48.8665C36.6025 49.3788 35.9076 49.6666 35.1832 49.6666H27.8498C27.488 49.6666 27.1298 49.5948 26.7959 49.4552ZM25.0266 28.1432V46.9532H19.3066V28.1432H25.0266ZM51.5367 45.2116L46.55 25.0449L46.5134 25.0266L40.775 26.4566L45.7617 46.6233L51.5367 45.2116ZM45.8717 22.4599C46.0848 22.434 46.3003 22.434 46.5134 22.4599L46.55 22.4783C47.1393 22.4857 47.7086 22.6929 48.1648 23.0659C48.6211 23.4389 48.9373 23.9556 49.0617 24.5316L54.0667 44.6983C54.2352 45.3593 54.1375 46.06 53.7946 46.6497C53.4518 47.2394 52.8912 47.671 52.2334 47.8516L46.495 49.2816C46.282 49.3086 46.0664 49.3086 45.8534 49.2816C45.2766 49.2791 44.7169 49.0851 44.2623 48.73C43.8077 48.375 43.4839 47.879 43.3417 47.3199L38.3367 27.1533C38.1682 26.4923 38.266 25.7916 38.6088 25.2019C38.9517 24.6122 39.5123 24.1806 40.17 23.9999L45.8717 22.4599Z" fill="#ECB100"/>
</svg>
