<svg width="70" height="70" viewBox="0 0 70 70" fill="none" xmlns="http://www.w3.org/2000/svg">
<circle cx="35" cy="35" r="35" fill="#FFFAEB"/>
<g clip-path="url(#clip0_166_15946)">
<path opacity="0.87" d="M13 13H57V57H13V13Z" fill="#FFFAEB"/>
<path d="M20.3333 36.8335C21.3417 36.8335 22.1667 36.0085 22.1667 35.0002C22.1667 33.9918 21.3417 33.1668 20.3333 33.1668C19.325 33.1668 18.5 33.9918 18.5 35.0002C18.5 36.0085 19.325 36.8335 20.3333 36.8335ZM20.3333 44.1668C21.3417 44.1668 22.1667 43.3418 22.1667 42.3335C22.1667 41.3252 21.3417 40.5002 20.3333 40.5002C19.325 40.5002 18.5 41.3252 18.5 42.3335C18.5 43.3418 19.325 44.1668 20.3333 44.1668ZM20.3333 29.5002C21.3417 29.5002 22.1667 28.6752 22.1667 27.6668C22.1667 26.6585 21.3417 25.8335 20.3333 25.8335C19.325 25.8335 18.5 26.6585 18.5 27.6668C18.5 28.6752 19.325 29.5002 20.3333 29.5002ZM27.6667 36.8335H49.6667C50.675 36.8335 51.5 36.0085 51.5 35.0002C51.5 33.9918 50.675 33.1668 49.6667 33.1668H27.6667C26.6583 33.1668 25.8333 33.9918 25.8333 35.0002C25.8333 36.0085 26.6583 36.8335 27.6667 36.8335ZM27.6667 44.1668H49.6667C50.675 44.1668 51.5 43.3418 51.5 42.3335C51.5 41.3252 50.675 40.5002 49.6667 40.5002H27.6667C26.6583 40.5002 25.8333 41.3252 25.8333 42.3335C25.8333 43.3418 26.6583 44.1668 27.6667 44.1668ZM25.8333 27.6668C25.8333 28.6752 26.6583 29.5002 27.6667 29.5002H49.6667C50.675 29.5002 51.5 28.6752 51.5 27.6668C51.5 26.6585 50.675 25.8335 49.6667 25.8335H27.6667C26.6583 25.8335 25.8333 26.6585 25.8333 27.6668ZM20.3333 36.8335C21.3417 36.8335 22.1667 36.0085 22.1667 35.0002C22.1667 33.9918 21.3417 33.1668 20.3333 33.1668C19.325 33.1668 18.5 33.9918 18.5 35.0002C18.5 36.0085 19.325 36.8335 20.3333 36.8335ZM20.3333 44.1668C21.3417 44.1668 22.1667 43.3418 22.1667 42.3335C22.1667 41.3252 21.3417 40.5002 20.3333 40.5002C19.325 40.5002 18.5 41.3252 18.5 42.3335C18.5 43.3418 19.325 44.1668 20.3333 44.1668ZM20.3333 29.5002C21.3417 29.5002 22.1667 28.6752 22.1667 27.6668C22.1667 26.6585 21.3417 25.8335 20.3333 25.8335C19.325 25.8335 18.5 26.6585 18.5 27.6668C18.5 28.6752 19.325 29.5002 20.3333 29.5002ZM27.6667 36.8335H49.6667C50.675 36.8335 51.5 36.0085 51.5 35.0002C51.5 33.9918 50.675 33.1668 49.6667 33.1668H27.6667C26.6583 33.1668 25.8333 33.9918 25.8333 35.0002C25.8333 36.0085 26.6583 36.8335 27.6667 36.8335ZM27.6667 44.1668H49.6667C50.675 44.1668 51.5 43.3418 51.5 42.3335C51.5 41.3252 50.675 40.5002 49.6667 40.5002H27.6667C26.6583 40.5002 25.8333 41.3252 25.8333 42.3335C25.8333 43.3418 26.6583 44.1668 27.6667 44.1668ZM25.8333 27.6668C25.8333 28.6752 26.6583 29.5002 27.6667 29.5002H49.6667C50.675 29.5002 51.5 28.6752 51.5 27.6668C51.5 26.6585 50.675 25.8335 49.6667 25.8335H27.6667C26.6583 25.8335 25.8333 26.6585 25.8333 27.6668Z" fill="#ECB100"/>
</g>
<defs>
<clipPath id="clip0_166_15946">
<rect width="44" height="44" fill="white" transform="translate(13 13)"/>
</clipPath>
</defs>
</svg>
