<svg width="70" height="70" viewBox="0 0 70 70" fill="none" xmlns="http://www.w3.org/2000/svg">
<circle cx="35" cy="35" r="35" fill="#F5EEFF"/>
<g clip-path="url(#clip0_166_15953)">
<path d="M44.0748 31.755L33.6982 42.1317C32.9832 42.8467 31.8282 42.8467 31.1132 42.1317L25.9248 36.9434C25.2098 36.2284 25.2098 35.0734 25.9248 34.3584C26.6398 33.6434 27.7948 33.6434 28.5098 34.3584L32.3965 38.245L41.4715 29.17C42.1865 28.455 43.3415 28.455 44.0565 29.17C44.7898 29.885 44.7898 31.04 44.0748 31.755ZM20.3332 35C20.3332 30.7284 22.2032 26.8967 25.1365 24.22L27.9415 27.025C28.5098 27.5934 29.4998 27.19 29.4998 26.365V18.5C29.4998 17.9867 29.0965 17.5834 28.5832 17.5834H20.7182C19.8932 17.5834 19.4898 18.5734 20.0765 19.1417L22.5332 21.6167C18.9398 24.9534 16.6665 29.7017 16.6665 35C16.6665 43.7084 22.7532 51.005 30.8932 52.875C32.0482 53.1317 33.1665 52.27 33.1665 51.0784C33.1665 50.2167 32.5615 49.4834 31.7182 49.2817C25.2098 47.7967 20.3332 41.9667 20.3332 35ZM53.3332 35C53.3332 26.2917 47.2465 18.995 39.1065 17.125C37.9515 16.8684 36.8332 17.73 36.8332 18.9217C36.8332 19.7834 37.4382 20.5167 38.2815 20.7184C44.7898 22.2034 49.6665 28.0334 49.6665 35C49.6665 39.2717 47.7965 43.1034 44.8632 45.78L42.0582 42.975C41.4898 42.4067 40.4998 42.81 40.4998 43.635V51.5C40.4998 52.0134 40.9032 52.4167 41.4165 52.4167H49.2815C50.1065 52.4167 50.5098 51.4267 49.9232 50.8584L47.4665 48.3834C51.0598 45.0467 53.3332 40.2984 53.3332 35Z" fill="#A262FF"/>
</g>
<defs>
<clipPath id="clip0_166_15953">
<rect width="44" height="44" fill="white" transform="translate(13 13)"/>
</clipPath>
</defs>
</svg>
