<svg width="70" height="70" viewBox="0 0 70 70" fill="none" xmlns="http://www.w3.org/2000/svg">
<circle cx="35" cy="35" r="35" fill="#FFFAEB"/>
<g clip-path="url(#clip0_166_15507)">
<path d="M48.6216 36.7965C48.695 36.2098 48.75 35.6232 48.75 34.9998C48.75 34.3765 48.695 33.7898 48.6216 33.2032L52.49 30.1782C52.8383 29.9032 52.93 29.4082 52.7099 29.0048L49.0433 22.6615C48.8233 22.2582 48.3283 22.1115 47.9249 22.2582L43.3599 24.0915C42.4066 23.3582 41.38 22.7532 40.2616 22.2948L39.565 17.4365C39.51 16.9965 39.125 16.6665 38.6666 16.6665H31.3333C30.8749 16.6665 30.49 16.9965 30.4349 17.4365L29.7383 22.2948C28.62 22.7532 27.5933 23.3765 26.6399 24.0915L22.0749 22.2582C21.6533 22.0932 21.1766 22.2582 20.9566 22.6615L17.2899 29.0048C17.0516 29.4082 17.1616 29.9032 17.5099 30.1782L21.3783 33.2032C21.305 33.7898 21.2499 34.3948 21.2499 34.9998C21.2499 35.6048 21.305 36.2098 21.3783 36.7965L17.5099 39.8215C17.1616 40.0965 17.0699 40.5915 17.2899 40.9948L20.9566 47.3382C21.1766 47.7415 21.6716 47.8882 22.0749 47.7415L26.6399 45.9082C27.5933 46.6415 28.62 47.2465 29.7383 47.7048L30.4349 52.5632C30.49 53.0032 30.8749 53.3332 31.3333 53.3332H38.6666C39.125 53.3332 39.51 53.0032 39.565 52.5632L40.2616 47.7048C41.38 47.2465 42.4066 46.6232 43.3599 45.9082L47.9249 47.7415C48.3466 47.9065 48.8233 47.7415 49.0433 47.3382L52.7099 40.9948C52.93 40.5915 52.8383 40.0965 52.49 39.8215L48.6216 36.7965ZM35 41.4165C31.4616 41.4165 28.5833 38.5382 28.5833 34.9998C28.5833 31.4615 31.4616 28.5832 35 28.5832C38.5383 28.5832 41.4166 31.4615 41.4166 34.9998C41.4166 38.5382 38.5383 41.4165 35 41.4165Z" fill="#ECB100"/>
</g>
<defs>
<clipPath id="clip0_166_15507">
<rect width="44" height="44" fill="white" transform="translate(13 13)"/>
</clipPath>
</defs>
</svg>
