<svg width="70" height="70" viewBox="0 0 70 70" fill="none" xmlns="http://www.w3.org/2000/svg">
<circle cx="35" cy="35" r="35" fill="#F5EEFF"/>
<path fill-rule="evenodd" clip-rule="evenodd" d="M39.6935 45.8349V23.9999L30.8568 29.4999C30.4557 29.7727 29.9851 29.9253 29.5002 29.9399H27.5019V39.8949H29.5002C29.9865 39.9008 30.4596 40.0542 30.8568 40.3349L39.6935 45.8349ZM24.9352 39.8949V29.9399H19.3068V39.8949H24.9352ZM39.2168 21.2682C39.5067 21.0809 39.8435 20.9792 40.1885 20.9749H40.2618C40.8604 21.0308 41.4129 21.3197 41.8004 21.7792C42.188 22.2388 42.3794 22.8322 42.3335 23.4315V31.9521C42.4906 32.0679 42.6397 32.196 42.7794 32.3356C43.5152 33.0714 43.9285 34.0693 43.9285 35.1099C43.9285 36.1504 43.5152 37.1483 42.7794 37.8841C42.6397 38.0238 42.4906 38.1518 42.3335 38.2676V46.4032C42.3559 46.7057 42.318 47.0097 42.2221 47.2975C42.1261 47.5853 41.9739 47.8512 41.7744 48.0797C41.5748 48.3083 41.3319 48.4949 41.0597 48.6288C40.7874 48.7627 40.4913 48.8413 40.1885 48.8599C39.8435 48.8555 39.5067 48.7538 39.2168 48.5665L29.5002 42.4615H23.4467L23.1536 46.9031C23.1003 47.7113 22.4019 48.3233 21.5936 48.27C20.7853 48.2167 20.1733 47.5182 20.2267 46.71L20.5069 42.4615H18.7385C18.14 42.4056 17.5874 42.1167 17.1999 41.6572C16.8124 41.1976 16.621 40.6042 16.6668 40.0049V29.8299C16.6444 29.5273 16.6823 29.2233 16.7783 28.9355C16.8743 28.6477 17.0265 28.3818 17.226 28.1533C17.4255 27.9248 17.6685 27.7381 17.9407 27.6042C18.2129 27.4703 18.509 27.3918 18.8118 27.3732H29.5002L39.2168 21.2682ZM47.1551 30.4899C47.046 30.3796 46.9161 30.292 46.7729 30.2323C46.6297 30.1725 46.4761 30.1417 46.3209 30.1417C46.1658 30.1417 46.0122 30.1725 45.869 30.2323C45.7258 30.292 45.5959 30.3796 45.4868 30.4899C45.2684 30.7127 45.1461 31.0122 45.1461 31.3241C45.1461 31.636 45.2684 31.9355 45.4868 32.1583C45.8504 32.518 46.1391 32.9463 46.3361 33.4183C46.5331 33.8903 46.6345 34.3968 46.6345 34.9083C46.6345 35.4198 46.5331 35.9262 46.3361 36.3982C46.1391 36.8702 45.8504 37.2985 45.4868 37.6583C45.3182 37.8213 45.2024 38.0311 45.1542 38.2606C45.106 38.4902 45.1278 38.7288 45.2166 38.9459C45.3053 39.1629 45.4571 39.3484 45.6524 39.4784C45.8476 39.6083 46.0773 39.6768 46.3118 39.6749C46.4613 39.6757 46.6096 39.6469 46.748 39.5903C46.8864 39.5337 47.0123 39.4503 47.1184 39.3449C47.713 38.76 48.1822 38.06 48.4974 37.2878C48.8126 36.5155 48.9672 35.6872 48.9518 34.8533C48.9574 34.0234 48.7983 33.2007 48.4836 32.4328C48.1689 31.6649 47.7049 30.9671 47.1184 30.3799L47.1551 30.4899ZM49.4727 26.8785C49.6143 26.938 49.7427 27.0252 49.8502 27.1349C50.9604 28.1199 51.8459 29.3318 52.4469 30.6888C53.0479 32.0457 53.3503 33.516 53.3336 34.9999C53.3433 36.498 53.0364 37.9813 52.433 39.3525C51.8295 40.7237 50.9431 41.9519 49.8319 42.9566C49.5888 43.1633 49.2735 43.2649 48.9555 43.2391C48.6375 43.2133 48.3427 43.0622 48.1361 42.8191C47.9294 42.576 47.8278 42.2607 47.8536 41.9427C47.8794 41.6247 48.0304 41.3299 48.2736 41.1233C49.131 40.3487 49.8183 39.4045 50.2917 38.3504C50.765 37.2964 51.0143 36.1554 51.0236 34.9999C51.0295 33.8243 50.7801 32.6613 50.2927 31.5914C49.8052 30.5215 49.0913 29.5703 48.2002 28.8033C48.0899 28.6942 48.0023 28.5643 47.9426 28.4211C47.8828 28.2779 47.852 28.1243 47.852 27.9691C47.852 27.814 47.8828 27.6603 47.9426 27.5172C48.0023 27.374 48.0899 27.2441 48.2002 27.1349C48.3078 27.0252 48.4361 26.938 48.5778 26.8785C48.7194 26.8189 48.8716 26.7883 49.0252 26.7883C49.1789 26.7883 49.331 26.8189 49.4727 26.8785Z" fill="#A262FF"/>
</svg>
