<svg width="70" height="70" viewBox="0 0 70 70" fill="none" xmlns="http://www.w3.org/2000/svg">
<circle cx="35" cy="35" r="35" fill="#FFF3F7"/>
<path fill-rule="evenodd" clip-rule="evenodd" d="M48.765 19.5412H42.4121C41.4764 19.5412 40.7179 20.2997 40.7179 21.2353V27.5882C40.7179 28.5239 41.4764 29.2824 42.4121 29.2824H48.765C49.7006 29.2824 50.4591 28.5239 50.4591 27.5882V21.2353C50.4591 20.2997 49.7006 19.5412 48.765 19.5412ZM42.4121 17C40.073 17 38.1768 18.8962 38.1768 21.2353V27.5882C38.1768 29.9273 40.073 31.8235 42.4121 31.8235H48.765C51.1041 31.8235 53.0003 29.9273 53.0003 27.5882V21.2353C53.0003 18.8962 51.1041 17 48.765 17H42.4121Z" fill="#FD5F93"/>
<path fill-rule="evenodd" clip-rule="evenodd" d="M28.5882 39.7177H22.2353C21.2997 39.7177 20.5412 40.4762 20.5412 41.4118V47.7647C20.5412 48.7004 21.2997 49.4589 22.2353 49.4589H28.5882C29.5239 49.4589 30.2824 48.7004 30.2824 47.7647V41.4118C30.2824 40.4762 29.5239 39.7177 28.5882 39.7177ZM22.2353 37.1765C19.8962 37.1765 18 39.0727 18 41.4118V47.7647C18 50.1038 19.8962 52 22.2353 52H28.5882C30.9273 52 32.8235 50.1038 32.8235 47.7647V41.4118C32.8235 39.0727 30.9273 37.1765 28.5882 37.1765H22.2353Z" fill="#FD5F93"/>
<path fill-rule="evenodd" clip-rule="evenodd" d="M48.765 39.7177H42.4121C41.4764 39.7177 40.7179 40.4762 40.7179 41.4118V47.7647C40.7179 48.7004 41.4764 49.4589 42.4121 49.4589H48.765C49.7006 49.4589 50.4591 48.7004 50.4591 47.7647V41.4118C50.4591 40.4762 49.7006 39.7177 48.765 39.7177ZM42.4121 37.1765C40.073 37.1765 38.1768 39.0727 38.1768 41.4118V47.7647C38.1768 50.1038 40.073 52 42.4121 52H48.765C51.1041 52 53.0003 50.1038 53.0003 47.7647V41.4118C53.0003 39.0727 51.1041 37.1765 48.765 37.1765H42.4121Z" fill="#FD5F93"/>
<path fill-rule="evenodd" clip-rule="evenodd" d="M28.5882 19.5412H22.2353C21.2997 19.5412 20.5412 20.2997 20.5412 21.2353V27.5882C20.5412 28.5239 21.2997 29.2824 22.2353 29.2824H28.5882C29.5239 29.2824 30.2824 28.5239 30.2824 27.5882V21.2353C30.2824 20.2997 29.5239 19.5412 28.5882 19.5412ZM22.2353 17C19.8962 17 18 18.8962 18 21.2353V27.5882C18 29.9273 19.8962 31.8235 22.2353 31.8235H28.5882C30.9273 31.8235 32.8235 29.9273 32.8235 27.5882V21.2353C32.8235 18.8962 30.9273 17 28.5882 17H22.2353Z" fill="#FD5F93"/>
</svg>
