<svg width="70" height="70" viewBox="0 0 70 70" fill="none" xmlns="http://www.w3.org/2000/svg">
<circle cx="35" cy="35" r="35" fill="#FFF3F7"/>
<g clip-path="url(#clip0_166_15964)">
<path d="M43.2498 35.9167H40.4998V43.25L45.9998 46.9167L47.3748 44.6617L43.2498 41.875V35.9167ZM42.3332 29.5L16.6665 18.5V31.3333L33.1665 35L16.6665 38.6667V51.5L29.9948 45.7983C31.4982 51.1883 36.4482 55.1667 42.3332 55.1667C49.4098 55.1667 55.1665 49.41 55.1665 42.3333C55.1665 35.2567 49.4098 29.5 42.3332 29.5ZM42.3332 51.5C37.2915 51.5 33.2032 47.43 33.1665 42.3883V42.26C33.2032 37.2367 37.2915 33.1483 42.3332 33.1483C47.3932 33.1483 51.4998 37.255 51.4998 42.315C51.4998 47.375 47.3932 51.5 42.3332 51.5Z" fill="#FD5F93"/>
</g>
<defs>
<clipPath id="clip0_166_15964">
<rect width="44" height="44" fill="white" transform="translate(13 13)"/>
</clipPath>
</defs>
</svg>
