<svg width="35" height="35" viewBox="0 0 35 35" fill="none" xmlns="http://www.w3.org/2000/svg">
<path d="M33.5417 16.0563L26.25 16.0417C25.4479 16.0417 24.7917 16.6979 24.7917 17.5V30.625C24.7917 31.4271 25.4479 32.0833 26.25 32.0833H33.5417C34.3438 32.0833 35 31.4271 35 30.625V17.5C35 16.6979 34.3438 16.0563 33.5417 16.0563ZM33.5417 29.1667H26.25V18.9583H33.5417V29.1667ZM29.1667 2.91667H2.91667C1.3125 2.91667 0 4.22917 0 5.83334V23.3333C0 24.9375 1.3125 26.25 2.91667 26.25H13.125V29.1667H11.6667C10.8646 29.1667 10.2083 29.8229 10.2083 30.625C10.2083 31.4271 10.8646 32.0833 11.6667 32.0833H20.4167C21.2188 32.0833 21.875 31.4271 21.875 30.625C21.875 29.8229 21.2188 29.1667 20.4167 29.1667H18.9583V26.25H20.4167C21.2188 26.25 21.875 25.5938 21.875 24.7917C21.875 23.9896 21.2188 23.3333 20.4167 23.3333H4.375C3.57292 23.3333 2.91667 22.6771 2.91667 21.875V7.29167C2.91667 6.48959 3.57292 5.83334 4.375 5.83334H27.7083C28.5104 5.83334 29.1667 6.48959 29.1667 7.29167V11.6667C29.1667 12.4688 29.8229 13.125 30.625 13.125C31.4271 13.125 32.0833 12.4688 32.0833 11.6667V5.83334C32.0833 4.22917 30.7708 2.91667 29.1667 2.91667ZM17.4563 13.125L16.0417 8.75L14.6271 13.125H10.2083L13.8104 15.6917L12.4396 19.9354L16.0417 17.3104L19.6438 19.9354L18.2729 15.6917L21.875 13.125H17.4563Z" fill="#DFBD72"/>
</svg>
