<svg width="35" height="35" viewBox="0 0 35 35" fill="none" xmlns="http://www.w3.org/2000/svg">
<path d="M20.4167 13.8542H24.7917C25.5938 13.8542 26.25 13.1979 26.25 12.3958C26.25 11.5938 25.5938 10.9375 24.7917 10.9375H20.4167C19.6146 10.9375 18.9583 11.5938 18.9583 12.3958C18.9583 13.1979 19.6146 13.8542 20.4167 13.8542ZM20.4167 24.0625H24.7917C25.5938 24.0625 26.25 23.4062 26.25 22.6042C26.25 21.8021 25.5938 21.1458 24.7917 21.1458H20.4167C19.6146 21.1458 18.9583 21.8021 18.9583 22.6042C18.9583 23.4062 19.6146 24.0625 20.4167 24.0625ZM27.7083 30.625H7.29167C5.6875 30.625 4.375 29.3125 4.375 27.7083V7.29167C4.375 5.6875 5.6875 4.375 7.29167 4.375H27.7083C29.3125 4.375 30.625 5.6875 30.625 7.29167V27.7083C30.625 29.3125 29.3125 30.625 27.7083 30.625ZM10.2083 16.0417H14.5833C15.3854 16.0417 16.0417 15.3854 16.0417 14.5833V10.2083C16.0417 9.40625 15.3854 8.75 14.5833 8.75H10.2083C9.40625 8.75 8.75 9.40625 8.75 10.2083V14.5833C8.75 15.3854 9.40625 16.0417 10.2083 16.0417ZM10.2083 10.2083H14.5833V14.5833H10.2083V10.2083ZM10.2083 26.25H14.5833C15.3854 26.25 16.0417 25.5938 16.0417 24.7917V20.4167C16.0417 19.6146 15.3854 18.9583 14.5833 18.9583H10.2083C9.40625 18.9583 8.75 19.6146 8.75 20.4167V24.7917C8.75 25.5938 9.40625 26.25 10.2083 26.25ZM10.2083 20.4167H14.5833V24.7917H10.2083V20.4167Z" fill="#FF8A8A"/>
</svg>
