<svg width="35" height="35" viewBox="0 0 35 35" fill="none" xmlns="http://www.w3.org/2000/svg">
<path d="M23.3334 16.0417C25.7542 16.0417 27.6938 14.0875 27.6938 11.6667C27.6938 9.24583 25.7542 7.29166 23.3334 7.29166C20.9125 7.29166 18.9584 9.24583 18.9584 11.6667C18.9584 14.0875 20.9125 16.0417 23.3334 16.0417ZM11.6667 16.0417C14.0875 16.0417 16.0271 14.0875 16.0271 11.6667C16.0271 9.24583 14.0875 7.29166 11.6667 7.29166C9.24587 7.29166 7.29171 9.24583 7.29171 11.6667C7.29171 14.0875 9.24587 16.0417 11.6667 16.0417ZM11.6667 18.9583C8.26879 18.9583 1.45837 20.6646 1.45837 24.0625V26.25C1.45837 27.0521 2.11462 27.7083 2.91671 27.7083H20.4167C21.2188 27.7083 21.875 27.0521 21.875 26.25V24.0625C21.875 20.6646 15.0646 18.9583 11.6667 18.9583ZM23.3334 18.9583C22.9105 18.9583 22.4292 18.9875 21.9188 19.0312C21.948 19.0458 21.9625 19.075 21.9771 19.0896C23.6396 20.3 24.7917 21.9187 24.7917 24.0625V26.25C24.7917 26.7604 24.6896 27.2562 24.5292 27.7083H32.0834C32.8855 27.7083 33.5417 27.0521 33.5417 26.25V24.0625C33.5417 20.6646 26.7313 18.9583 23.3334 18.9583Z" fill="#67C5D2"/>
</svg>
