<svg width="35" height="35" viewBox="0 0 35 35" fill="none" xmlns="http://www.w3.org/2000/svg">
<path d="M17.5 29.1667L16.2458 27.9125C14.525 26.1917 14.5396 23.3917 16.275 21.7L17.5 20.5042C16.9313 20.4458 16.5083 20.4167 16.0417 20.4167C12.1479 20.4167 4.375 22.3708 4.375 26.25V29.1667H17.5ZM16.0417 17.5C19.2646 17.5 21.875 14.8896 21.875 11.6667C21.875 8.44374 19.2646 5.83333 16.0417 5.83333C12.8188 5.83333 10.2083 8.44374 10.2083 11.6667C10.2083 14.8896 12.8188 17.5 16.0417 17.5Z" fill="#D2A386"/>
<path d="M23.5958 28.8458C23.027 29.4146 22.0937 29.4146 21.525 28.8458L18.5062 25.7979C17.952 25.2292 17.952 24.325 18.5062 23.7708L18.5208 23.7563C19.0895 23.1875 20.0083 23.1875 20.5625 23.7563L22.5604 25.7542L29.0208 19.25C29.5895 18.6813 30.5083 18.6813 31.077 19.25L31.0916 19.2646C31.6458 19.8333 31.6458 20.7375 31.0916 21.2917L23.5958 28.8458Z" fill="#D2A386"/>
</svg>
