<svg width="30" height="30" viewBox="0 0 30 30" fill="none" xmlns="http://www.w3.org/2000/svg">
<path d="M10.4625 21.6126H19.6875C19.5019 20.5231 18.9372 19.5342 18.0932 18.8206C17.2492 18.107 16.1803 17.7146 15.075 17.7126C13.9636 17.6913 12.8825 18.0755 12.0337 18.7932C11.1848 19.5109 10.6263 20.5131 10.4625 21.6126ZM20.55 23.1751H9.52503C9.42183 23.1805 9.31866 23.1641 9.22218 23.1271C9.12571 23.09 9.0381 23.0331 8.96503 22.9601C8.89196 22.887 8.83506 22.7994 8.79802 22.7029C8.76099 22.6065 8.74463 22.5033 8.75003 22.4001C8.75003 20.7425 9.40851 19.1528 10.5806 17.9807C11.7527 16.8086 13.3424 16.1501 15 16.1501H15.075C16.7049 16.1495 18.2704 16.7857 19.438 17.9228C20.6055 19.06 21.2827 20.6083 21.325 22.2376V22.4001C21.325 22.5019 21.305 22.6026 21.266 22.6967C21.2271 22.7907 21.17 22.8761 21.098 22.9481C21.0261 23.0201 20.9406 23.0771 20.8466 23.1161C20.7526 23.155 20.6518 23.1751 20.55 23.1751ZM15 9.11258C14.5347 9.1101 14.0791 9.24582 13.6911 9.50254C13.303 9.75925 12.9998 10.1254 12.82 10.5546C12.6402 10.9838 12.5919 11.4567 12.6812 11.9133C12.7704 12.37 12.9933 12.7899 13.3214 13.1198C13.6496 13.4497 14.0683 13.6748 14.5245 13.7665C14.9806 13.8582 15.4538 13.8124 15.8839 13.6349C16.3141 13.4574 16.6818 13.1562 16.9406 12.7695C17.1994 12.3827 17.3375 11.9279 17.3375 11.4626C17.3426 11.1536 17.2856 10.8468 17.1701 10.5603C17.0546 10.2737 16.8828 10.0132 16.6649 9.79412C16.447 9.57506 16.1874 9.40188 15.9014 9.28483C15.6155 9.16777 15.309 9.1092 15 9.11258ZM15 15.3626C14.2252 15.3651 13.467 15.1374 12.8217 14.7084C12.1763 14.2795 11.6729 13.6685 11.3753 12.9531C11.0776 12.2377 10.9991 11.45 11.1496 10.6899C11.3002 9.92975 11.6731 9.23147 12.221 8.68354C12.7689 8.13562 13.4672 7.76274 14.2273 7.61217C14.9874 7.4616 15.7751 7.54014 16.4906 7.83781C17.206 8.13549 17.8169 8.6389 18.2459 9.28422C18.6748 9.92954 18.9025 10.6877 18.9 11.4626C18.905 11.9761 18.8076 12.4855 18.6134 12.961C18.4191 13.4364 18.1321 13.8683 17.7689 14.2315C17.4058 14.5946 16.9738 14.8817 16.4984 15.0759C16.023 15.2701 15.5136 15.3676 15 15.3626Z" fill="#FF8A8A"/>
<path d="M2.59976 22.5001C2.59415 22.5978 2.60948 22.6956 2.64474 22.787C2.67999 22.8783 2.73435 22.9611 2.80417 23.0297C2.87399 23.0984 2.95768 23.1513 3.04961 23.185C3.14155 23.2187 3.23962 23.2323 3.33726 23.2251H7.01226C7.11631 23.2387 7.22208 23.23 7.32249 23.1994C7.42289 23.1689 7.51564 23.1174 7.59451 23.0481C7.67339 22.9789 7.73659 22.8937 7.77988 22.7981C7.82318 22.7025 7.84557 22.5987 7.84557 22.4938C7.84557 22.3889 7.82318 22.2851 7.77988 22.1895C7.73659 22.0939 7.67339 22.0087 7.59451 21.9395C7.51564 21.8703 7.42289 21.8187 7.32249 21.7882C7.22208 21.7576 7.11631 21.7489 7.01226 21.7626H4.07476C4.25274 20.7453 4.78684 19.8245 5.58152 19.1649C6.3762 18.5054 7.37961 18.1501 8.41226 18.1626H8.92476C9.12036 18.1808 9.31519 18.1206 9.46639 17.9952C9.61759 17.8697 9.71278 17.6894 9.73101 17.4938C9.74925 17.2982 9.68903 17.1034 9.56362 16.9522C9.4382 16.801 9.25786 16.7058 9.06226 16.6876C8.84967 16.6359 8.6308 16.6149 8.41226 16.6251H8.26226C6.73382 16.6579 5.28046 17.2941 4.21953 18.3949C3.1586 19.4956 2.5763 20.9714 2.59976 22.5001Z" fill="#FF8A8A"/>
<path d="M8.47509 15.9126C9.09128 15.9149 9.69788 15.76 10.2376 15.4626C10.3276 15.4182 10.4075 15.3556 10.4721 15.2787C10.5366 15.2018 10.5846 15.1124 10.6128 15.016C10.641 14.9197 10.6488 14.8185 10.6359 14.7189C10.623 14.6194 10.5895 14.5236 10.5376 14.4376C10.4907 14.3499 10.4265 14.2726 10.349 14.2104C10.2715 14.1481 10.1821 14.1021 10.0864 14.0753C9.99065 14.0484 9.89045 14.0412 9.79184 14.0541C9.69323 14.0669 9.59824 14.0996 9.51259 14.1501C9.17116 14.3286 8.79161 14.4219 8.40633 14.4219C8.02106 14.4219 7.64151 14.3286 7.30009 14.1501C6.82539 13.8409 6.4874 13.3614 6.35576 12.8104C6.22411 12.2594 6.30885 11.6788 6.59251 11.1884C6.87617 10.6981 7.33713 10.3352 7.8804 10.1745C8.42368 10.0139 9.00787 10.0678 9.51259 10.3251C9.6937 10.4051 9.8978 10.4163 10.0865 10.3564C10.2753 10.2966 10.4357 10.1699 10.5376 10.0001C10.6234 9.82047 10.6402 9.61557 10.5849 9.42431C10.5296 9.23306 10.406 9.06877 10.2376 8.96262C9.71496 8.6185 9.10075 8.4399 8.47509 8.45012C7.98844 8.44495 7.50574 8.53781 7.05576 8.72318C6.60578 8.90856 6.19773 9.18264 5.85594 9.52909C5.51416 9.87554 5.24563 10.2873 5.06638 10.7397C4.88712 11.1922 4.80081 11.6761 4.81258 12.1626C4.81232 13.1422 5.19537 14.083 5.87982 14.7838C6.56427 15.4846 7.49577 15.8898 8.47509 15.9126Z" fill="#FF8A8A"/>
<path d="M27.3875 22.4999C27.4045 20.9832 26.8239 19.5206 25.7714 18.4283C24.7189 17.3361 23.2789 16.7017 21.7625 16.6624H21.6125C21.3932 16.6502 21.1733 16.6755 20.9625 16.7374C20.866 16.7452 20.7721 16.7723 20.6862 16.817C20.6003 16.8617 20.5243 16.9231 20.4625 16.9977C20.4008 17.0722 20.3546 17.1584 20.3267 17.2511C20.2988 17.3438 20.2897 17.4412 20.3 17.5374C20.319 17.7311 20.4138 17.9093 20.5636 18.0334C20.7135 18.1575 20.9063 18.2173 21.1 18.1999H21.6125C22.6386 18.1874 23.6357 18.54 24.4258 19.1949C25.2158 19.8498 25.7472 20.7643 25.925 21.7749H23C22.8078 21.7749 22.6233 21.8513 22.4874 21.9873C22.3514 22.1232 22.275 22.3076 22.275 22.4999C22.275 22.6922 22.3514 22.8766 22.4874 23.0126C22.6233 23.1485 22.8078 23.2249 23 23.2249H26.65C26.7477 23.2322 26.8458 23.2186 26.9377 23.1849C27.0296 23.1512 27.1133 23.0982 27.1831 23.0296C27.253 22.961 27.3073 22.8782 27.3426 22.7869C27.3778 22.6955 27.3931 22.5977 27.3875 22.4999Z" fill="#FF8A8A"/>
<path d="M25.1875 12.2376C25.1942 11.7575 25.1048 11.2808 24.9245 10.8358C24.7443 10.3908 24.4768 9.98627 24.1378 9.64616C23.7989 9.30605 23.3953 9.03718 22.9509 8.85538C22.5065 8.67358 22.0302 8.58253 21.55 8.58757C20.9244 8.57735 20.3102 8.75596 19.7875 9.10007C19.6706 9.21775 19.5959 9.3709 19.5753 9.53554C19.5547 9.70017 19.5892 9.867 19.6735 10.0099C19.7578 10.1528 19.8872 10.2637 20.0412 10.3253C20.1953 10.3868 20.3655 10.3956 20.525 10.3501C20.7715 10.1619 21.0552 10.0282 21.3573 9.95802C21.6593 9.8878 21.9729 9.88261 22.2771 9.9428C22.5813 10.003 22.8692 10.1272 23.1218 10.3071C23.3744 10.487 23.5858 10.7186 23.7421 10.9865C23.8983 11.2544 23.9959 11.5524 24.0282 11.8608C24.0605 12.1692 24.0268 12.481 23.9295 12.7755C23.8321 13.0699 23.6733 13.3403 23.4635 13.5686C23.2537 13.797 22.9977 13.9782 22.7125 14.1001C22.3777 14.285 22.0013 14.382 21.6188 14.382C21.2362 14.382 20.8599 14.285 20.525 14.1001C20.4382 14.0518 20.3426 14.0212 20.2439 14.0102C20.1451 13.9991 20.0452 14.0078 19.9498 14.0357C19.8544 14.0636 19.7656 14.1102 19.6884 14.1728C19.6111 14.2353 19.5471 14.3126 19.5 14.4001C19.4515 14.4852 19.4205 14.5792 19.4087 14.6764C19.3969 14.7737 19.4046 14.8724 19.4314 14.9666C19.4581 15.0609 19.5034 15.1489 19.5646 15.2255C19.6257 15.302 19.7015 15.3656 19.7875 15.4126C20.3272 15.7099 20.9338 15.8648 21.55 15.8626C22.5037 15.8345 23.4108 15.4439 24.0867 14.7704C24.7625 14.0969 25.1562 13.1912 25.1875 12.2376Z" fill="#FF8A8A"/>
</svg>
