<svg width="30" height="30" viewBox="0 0 30 30" fill="none" xmlns="http://www.w3.org/2000/svg">
<path d="M23.75 5.5C23.9469 5.50626 24.1341 5.58728 24.2734 5.7266C24.4127 5.86592 24.4937 6.05307 24.5 6.25V19.2625C24.4968 19.4604 24.4167 19.6493 24.2768 19.7893C24.1368 19.9292 23.9479 20.0093 23.75 20.0125H6.25C6.05209 20.0093 5.86319 19.9292 5.72323 19.7893C5.58327 19.6493 5.50322 19.4604 5.5 19.2625V6.25C5.50626 6.05307 5.58728 5.86592 5.7266 5.7266C5.86592 5.58728 6.05307 5.50626 6.25 5.5H23.75ZM23.75 3.75H6.25C5.58696 3.75 4.95107 4.01339 4.48223 4.48223C4.01339 4.95107 3.75 5.58696 3.75 6.25V19.2625C3.75 19.9255 4.01339 20.5614 4.48223 21.0303C4.95107 21.4991 5.58696 21.7625 6.25 21.7625H23.75C24.413 21.7625 25.0489 21.4991 25.5178 21.0303C25.9866 20.5614 26.25 19.9255 26.25 19.2625V6.25C26.25 5.58696 25.9866 4.95107 25.5178 4.48223C25.0489 4.01339 24.413 3.75 23.75 3.75Z" fill="#FD5F93"/>
<path fill-rule="evenodd" clip-rule="evenodd" d="M8.44075 25.5251C8.17028 25.8963 7.73216 26.1376 7.23768 26.1376C6.74321 26.1376 6.30509 25.8963 6.03462 25.5251H5.1875C4.70425 25.5251 4.3125 25.1333 4.3125 24.6501C4.3125 24.1668 4.70425 23.7751 5.1875 23.7751H6.03464C6.3051 23.4039 6.74322 23.1626 7.23768 23.1626C7.73215 23.1626 8.17026 23.4039 8.44073 23.7751H25C25.4832 23.7751 25.875 24.1668 25.875 24.6501C25.875 25.1333 25.4832 25.5251 25 25.5251H8.44075Z" fill="#FD5F93"/>
<path d="M18.5625 12.4251C18.6194 12.4596 18.6665 12.5083 18.6991 12.5663C18.7318 12.6243 18.7489 12.6898 18.7489 12.7563C18.7489 12.8229 18.7318 12.8884 18.6991 12.9464C18.6665 13.0044 18.6194 13.053 18.5625 13.0876L15.875 14.6376L13.2 16.1751C13.142 16.2072 13.0768 16.2239 13.0106 16.2236C12.9443 16.2233 12.8793 16.2061 12.8216 16.1735C12.7639 16.1409 12.7155 16.094 12.6811 16.0374C12.6467 15.9808 12.6274 15.9163 12.625 15.8501V9.66259C12.6274 9.59638 12.6467 9.53189 12.6811 9.47527C12.7155 9.41866 12.7639 9.37182 12.8216 9.33922C12.8793 9.30662 12.9443 9.28935 13.0106 9.28907C13.0768 9.28878 13.142 9.30549 13.2 9.33759L15.875 10.8751L18.5625 12.4251Z" fill="#FD5F93"/>
</svg>
