<svg width="30" height="30" viewBox="0 0 30 30" fill="none" xmlns="http://www.w3.org/2000/svg">
<path d="M15 4.2C17.136 4.2 19.2241 4.83341 21.0002 6.02013C22.7762 7.20685 24.1605 8.89358 24.9779 10.867C25.7953 12.8405 26.0092 15.012 25.5925 17.107C25.1758 19.202 24.1472 21.1263 22.6368 22.6368C21.1264 24.1472 19.202 25.1758 17.107 25.5925C15.012 26.0092 12.8405 25.7953 10.867 24.9779C8.89358 24.1605 7.20685 22.7762 6.02013 21.0002C4.83341 19.2241 4.20001 17.136 4.20001 15C4.20661 12.1377 5.34658 9.3945 7.37055 7.37054C9.39451 5.34658 12.1377 4.2066 15 4.2ZM15 2.5C12.5277 2.5 10.111 3.23311 8.05538 4.60663C5.99976 5.98015 4.39761 7.93238 3.45151 10.2165C2.50542 12.5005 2.25787 15.0139 2.74019 17.4386C3.2225 19.8634 4.41301 22.0907 6.16117 23.8388C7.90933 25.587 10.1366 26.7775 12.5614 27.2598C14.9861 27.7421 17.4995 27.4946 19.7836 26.5485C22.0676 25.6024 24.0199 24.0002 25.3934 21.9446C26.7669 19.889 27.5 17.4723 27.5 15C27.5 13.3585 27.1767 11.733 26.5485 10.2165C25.9203 8.69989 24.9996 7.3219 23.8388 6.16117C22.6781 5.00043 21.3001 4.07969 19.7836 3.45151C18.267 2.82332 16.6415 2.5 15 2.5Z" fill="#5FBD8A"/>
<path fill-rule="evenodd" clip-rule="evenodd" d="M10.1504 9.94995C10.1504 9.50122 10.5142 9.13745 10.9629 9.13745H18.8004C19.2491 9.13745 19.6129 9.50122 19.6129 9.94995C19.6129 10.3987 19.2491 10.7625 18.8004 10.7625H10.9629C10.5142 10.7625 10.1504 10.3987 10.1504 9.94995Z" fill="#5FBD8A"/>
<path fill-rule="evenodd" clip-rule="evenodd" d="M10.1504 13.25C10.1504 12.8013 10.5142 12.4375 10.9629 12.4375H18.8004C19.2491 12.4375 19.6129 12.8013 19.6129 13.25C19.6129 13.6987 19.2491 14.0625 18.8004 14.0625H10.9629C10.5142 14.0625 10.1504 13.6987 10.1504 13.25Z" fill="#5FBD8A"/>
<path fill-rule="evenodd" clip-rule="evenodd" d="M10.2629 10C10.2629 9.55127 10.6267 9.1875 11.0754 9.1875H13.3504C13.3504 9.1875 13.3504 9.1875 13.3504 9.1875C14.3688 9.18749 15.3456 9.59094 16.0672 10.3095C16.7887 11.0281 17.1962 12.0033 17.2004 13.0217L16.3879 13.025L17.2004 13.0283C17.1962 14.0467 16.7887 15.0219 16.0672 15.7405C15.3456 16.4591 14.3688 16.8625 13.3504 16.8625H12.9642L17.3793 21.1549C17.701 21.4677 17.7083 21.9821 17.3955 22.3039C17.0827 22.6256 16.5683 22.6329 16.2465 22.3201L10.3965 16.6326C10.1594 16.402 10.0857 16.0508 10.2101 15.7444C10.3345 15.4379 10.6322 15.2375 10.9629 15.2375H13.3504C13.9389 15.2375 14.5035 15.0043 14.9205 14.5891C15.3367 14.1745 15.5721 13.6123 15.5754 13.025C15.5721 12.4377 15.3367 11.8754 14.9205 11.4609C14.5035 11.0457 13.9389 10.8125 13.3504 10.8125H11.0754C10.6267 10.8125 10.2629 10.4487 10.2629 10Z" fill="#5FBD8A"/>
</svg>
