<svg width="30" height="30" viewBox="0 0 30 30" fill="none" xmlns="http://www.w3.org/2000/svg">
<path d="M6.29345 15.8813C6.26447 15.5915 6.24962 15.2975 6.24962 15C6.24962 14.7025 6.26447 14.4085 6.29345 14.1187L4.00684 11.5401L6.50684 7.20994L9.88334 7.90089C10.3587 7.55767 10.87 7.26103 11.4104 7.01765L12.4996 3.75H17.4996L18.5888 7.01765C19.1293 7.26103 19.6405 7.55767 20.1159 7.90089L23.4924 7.20994L25.9924 11.5401L23.7058 14.1187C23.7348 14.4085 23.7496 14.7025 23.7496 15C23.7496 15.2975 23.7348 15.5915 23.7058 15.8813L25.9924 18.4599L23.4924 22.7901L20.1159 22.0991C19.6405 22.4423 19.1293 22.739 18.5888 22.9823L17.4996 26.25H12.4996L11.4104 22.9823C10.87 22.739 10.3587 22.4423 9.88334 22.0991L6.50684 22.7901L4.00684 18.4599L6.29345 15.8813Z" stroke="#ECB100" stroke-width="2" stroke-linecap="square"/>
<path d="M15 16.25C15.6904 16.25 16.25 15.6904 16.25 15C16.25 14.3096 15.6904 13.75 15 13.75C14.3096 13.75 13.75 14.3096 13.75 15C13.75 15.6904 14.3096 16.25 15 16.25Z" stroke="#ECB100" stroke-width="2" stroke-linecap="square"/>
</svg>
