<svg width="30" height="30" viewBox="0 0 30 30" fill="none" xmlns="http://www.w3.org/2000/svg">
<path d="M17.4 17.05C18.9505 17.0534 20.4366 17.6707 21.5329 18.7671C22.6293 19.8635 23.2467 21.3495 23.25 22.9C23.25 22.9929 23.2131 23.0819 23.1475 23.1475C23.0819 23.2132 22.9928 23.2501 22.9 23.2501H7.1C7.00717 23.2501 6.91815 23.2132 6.85251 23.1475C6.78687 23.0819 6.75 22.9929 6.75 22.9C6.7533 21.3495 7.3707 19.8635 8.46707 18.7671C9.56345 17.6707 11.0495 17.0534 12.6 17.05H17.4ZM17.4 15.3H12.6C10.5844 15.3 8.65127 16.1008 7.22599 17.526C5.80071 18.9513 5 20.8844 5 22.9C5 23.457 5.22125 23.9911 5.61508 24.385C6.0089 24.7788 6.54305 25 7.1 25H22.9C23.457 25 23.9911 24.7788 24.3849 24.385C24.7788 23.9911 25 23.457 25 22.9C25 20.8844 24.1993 18.9513 22.774 17.526C21.3487 16.1008 19.4156 15.3 17.4 15.3Z" fill="#62B4FF"/>
<path d="M14.9998 6.7875C15.5833 6.7875 16.1536 6.96051 16.6387 7.28466C17.1239 7.60881 17.502 8.06954 17.7253 8.60858C17.9485 9.14763 18.0069 9.74077 17.8931 10.313C17.7793 10.8853 17.4983 11.4109 17.0858 11.8235C16.6732 12.236 16.1476 12.517 15.5753 12.6308C15.0031 12.7446 14.4099 12.6862 13.8709 12.4629C13.3318 12.2397 12.8711 11.8616 12.547 11.3764C12.2228 10.8913 12.0498 10.321 12.0498 9.7375C12.0498 9.3501 12.1261 8.96649 12.2744 8.60858C12.4226 8.25067 12.6399 7.92547 12.9138 7.65154C13.4671 7.0983 14.2174 6.7875 14.9998 6.7875ZM14.9998 5C14.0702 5 13.1615 5.27565 12.3886 5.79209C11.6157 6.30854 11.0133 7.04258 10.6576 7.90139C10.3018 8.7602 10.2088 9.70521 10.3901 10.6169C10.5715 11.5286 11.0191 12.3661 11.6764 13.0234C12.3337 13.6807 13.1712 14.1283 14.0829 14.3097C14.9946 14.491 15.9396 14.398 16.7984 14.0422C17.6572 13.6865 18.3913 13.0841 18.9077 12.3112C19.4242 11.5383 19.6998 10.6296 19.6998 9.7C19.6998 8.45348 19.2046 7.25802 18.3232 6.3766C17.4418 5.49518 16.2463 5 14.9998 5Z" fill="#62B4FF"/>
</svg>
